G04 #@! TF.GenerationSoftware,KiCad,Pcbnew,5.0.2*
G04 #@! TF.CreationDate,2020-09-01T14:55:28+02:00*
G04 #@! TF.ProjectId,pmod-linky_tic,706d6f64-2d6c-4696-9e6b-795f7469632e,1*
G04 #@! TF.SameCoordinates,Original*
G04 #@! TF.FileFunction,Legend,Top*
G04 #@! TF.FilePolarity,Positive*
%FSLAX46Y46*%
G04 Gerber Fmt 4.6, Leading zero omitted, Abs format (unit mm)*
G04 Created by KiCad (PCBNEW 5.0.2) date mar. 01 sept. 2020 14:55:28 CEST*
%MOMM*%
%LPD*%
G01*
G04 APERTURE LIST*
%ADD10C,0.203200*%
%ADD11C,0.101600*%
%ADD12C,0.150000*%
%ADD13C,0.127000*%
%ADD14C,0.027940*%
%ADD15C,0.152400*%
%ADD16C,0.076200*%
G04 APERTURE END LIST*
D10*
X156257920Y-110430000D02*
X156972205Y-110430000D01*
X156115062Y-110858571D02*
X156615062Y-109358571D01*
X157115062Y-110858571D01*
X155472205Y-105678571D02*
X155472205Y-104178571D01*
X156115062Y-104321428D02*
X156186491Y-104250000D01*
X156329348Y-104178571D01*
X156686491Y-104178571D01*
X156829348Y-104250000D01*
X156900777Y-104321428D01*
X156972205Y-104464285D01*
X156972205Y-104607142D01*
X156900777Y-104821428D01*
X156043634Y-105678571D01*
X156972205Y-105678571D01*
X155472205Y-100598571D02*
X155472205Y-99098571D01*
X156972205Y-100598571D02*
X156115062Y-100598571D01*
X156543634Y-100598571D02*
X156543634Y-99098571D01*
X156400777Y-99312857D01*
X156257920Y-99455714D01*
X156115062Y-99527142D01*
D11*
G04 #@! TO.C,J1*
X167550000Y-112620000D02*
X167550000Y-97380000D01*
X157390000Y-112620000D02*
X157390000Y-97380000D01*
X167550000Y-112620000D02*
X157390000Y-112620000D01*
X157390000Y-97380000D02*
X167550000Y-97380000D01*
D12*
G04 #@! TO.C,P1*
X132000000Y-112620000D02*
X132000000Y-97380000D01*
X132000000Y-97380000D02*
X129460000Y-97380000D01*
X129460000Y-97380000D02*
X129460000Y-112620000D01*
X132000000Y-112620000D02*
X129460000Y-112620000D01*
D13*
G04 #@! TO.C,R1*
X154262000Y-104508000D02*
X154262000Y-105524000D01*
X154262000Y-105524000D02*
X152738000Y-105524000D01*
X152738000Y-105524000D02*
X152738000Y-104508000D01*
X152738000Y-103492000D02*
X152738000Y-102476000D01*
X152738000Y-102476000D02*
X154262000Y-102476000D01*
X154262000Y-102476000D02*
X154262000Y-103492000D01*
D12*
G04 #@! TO.C,U1*
X152250000Y-97700000D02*
X152250000Y-102300000D01*
X145750000Y-97700000D02*
X152250000Y-97700000D01*
X145750000Y-102300000D02*
X145750000Y-97700000D01*
X152250000Y-102300000D02*
X145750000Y-102300000D01*
D13*
G04 #@! TO.C,Q1*
X146131000Y-103476000D02*
X146131000Y-106524000D01*
X146131000Y-106524000D02*
X145369000Y-106524000D01*
X145369000Y-106524000D02*
X145369000Y-103476000D01*
X145369000Y-103476000D02*
X146131000Y-103476000D01*
G04 #@! TO.C,R2*
X143143000Y-99385000D02*
X140857000Y-99385000D01*
X140857000Y-99385000D02*
X140857000Y-98115000D01*
X140857000Y-98115000D02*
X143143000Y-98115000D01*
X143143000Y-98115000D02*
X143143000Y-99385000D01*
G04 #@! TO.C,R3*
X143635000Y-106893000D02*
X142365000Y-106893000D01*
X143635000Y-104607000D02*
X143635000Y-106893000D01*
X142365000Y-104607000D02*
X143635000Y-104607000D01*
X142365000Y-106893000D02*
X142365000Y-104607000D01*
G04 #@! TO.C,U2*
X140762000Y-105508000D02*
X140254000Y-106270000D01*
X140762000Y-103730000D02*
X140762000Y-106333500D01*
X140762000Y-106333500D02*
X139238000Y-106333500D01*
X139238000Y-106333500D02*
X139238000Y-103730000D01*
X139238000Y-103730000D02*
X140762000Y-103730000D01*
G04 #@! TO.C,C1*
X139012000Y-110588000D02*
X139012000Y-111604000D01*
X139012000Y-111604000D02*
X137488000Y-111604000D01*
X137488000Y-111604000D02*
X137488000Y-110588000D01*
X137488000Y-109572000D02*
X137488000Y-108556000D01*
X137488000Y-108556000D02*
X139012000Y-108556000D01*
X139012000Y-108556000D02*
X139012000Y-109572000D01*
G04 #@! TO.C,C2*
X138857000Y-106865000D02*
X141143000Y-106865000D01*
X141143000Y-106865000D02*
X141143000Y-108135000D01*
X141143000Y-108135000D02*
X138857000Y-108135000D01*
X138857000Y-108135000D02*
X138857000Y-106865000D01*
G04 #@! TO.C,C3*
X143143000Y-100615000D02*
X143143000Y-101885000D01*
X140857000Y-100615000D02*
X143143000Y-100615000D01*
X140857000Y-101885000D02*
X140857000Y-100615000D01*
X143143000Y-101885000D02*
X140857000Y-101885000D01*
D14*
G04 #@! TO.C,agilack-11.5*
X151688720Y-109157160D02*
X151688720Y-108776160D01*
X151663320Y-109182560D02*
X151663320Y-108801560D01*
X151637920Y-109182560D02*
X151637920Y-108801560D01*
X151612520Y-109207960D02*
X151612520Y-108826960D01*
X151587120Y-109207960D02*
X151587120Y-108826960D01*
X151561720Y-109233360D02*
X151561720Y-108852360D01*
X151536320Y-109233360D02*
X151536320Y-108852360D01*
X151510920Y-109258760D02*
X151510920Y-108877760D01*
X151485520Y-109258760D02*
X151485520Y-108877760D01*
X151485520Y-111112960D02*
X151485520Y-109639760D01*
X151460120Y-109284160D02*
X151460120Y-108903160D01*
X151460120Y-111112960D02*
X151460120Y-109639760D01*
X151460120Y-113627560D02*
X151460120Y-111976560D01*
X151434720Y-109284160D02*
X151434720Y-108903160D01*
X151434720Y-111112960D02*
X151434720Y-109639760D01*
X151434720Y-113627560D02*
X151434720Y-111951160D01*
X151409320Y-109309560D02*
X151409320Y-108928560D01*
X151409320Y-111112960D02*
X151409320Y-109639760D01*
X151409320Y-113627560D02*
X151409320Y-111925760D01*
X151383920Y-109309560D02*
X151383920Y-108928560D01*
X151383920Y-111112960D02*
X151383920Y-109639760D01*
X151383920Y-113576760D02*
X151383920Y-111900360D01*
X151358520Y-109334960D02*
X151358520Y-108953960D01*
X151358520Y-111112960D02*
X151358520Y-109639760D01*
X151358520Y-113551360D02*
X151358520Y-111874960D01*
X151333120Y-109334960D02*
X151333120Y-108979360D01*
X151333120Y-111112960D02*
X151333120Y-109639760D01*
X151333120Y-113525960D02*
X151333120Y-111849560D01*
X151307720Y-109360360D02*
X151307720Y-108979360D01*
X151307720Y-111112960D02*
X151307720Y-109639760D01*
X151307720Y-113500560D02*
X151307720Y-111824160D01*
X151282320Y-109360360D02*
X151282320Y-109004760D01*
X151282320Y-111112960D02*
X151282320Y-109639760D01*
X151282320Y-113475160D02*
X151282320Y-111798760D01*
X151256920Y-109385760D02*
X151256920Y-109004760D01*
X151256920Y-111112960D02*
X151256920Y-109639760D01*
X151256920Y-113449760D02*
X151256920Y-111773360D01*
X151256920Y-113627560D02*
X151256920Y-113602160D01*
X151231520Y-109385760D02*
X151231520Y-109030160D01*
X151231520Y-113424360D02*
X151231520Y-111747960D01*
X151231520Y-113627560D02*
X151231520Y-113576760D01*
X151206120Y-108674560D02*
X151206120Y-108242760D01*
X151206120Y-109411160D02*
X151206120Y-109030160D01*
X151206120Y-113398960D02*
X151206120Y-111722560D01*
X151206120Y-113627560D02*
X151206120Y-113551360D01*
X151180720Y-104610560D02*
X151180720Y-104178760D01*
X151180720Y-108750760D02*
X151180720Y-108166560D01*
X151180720Y-109411160D02*
X151180720Y-109055560D01*
X151180720Y-113373560D02*
X151180720Y-111697160D01*
X151180720Y-113627560D02*
X151180720Y-113525960D01*
X151155320Y-102781760D02*
X151155320Y-102426160D01*
X151155320Y-103594560D02*
X151155320Y-103340560D01*
X151155320Y-104686760D02*
X151155320Y-104077160D01*
X151155320Y-105397960D02*
X151155320Y-105118560D01*
X151155320Y-107175960D02*
X151155320Y-106134560D01*
X151155320Y-107607760D02*
X151155320Y-107353760D01*
X151155320Y-108826960D02*
X151155320Y-108090360D01*
X151155320Y-109436560D02*
X151155320Y-109055560D01*
X151155320Y-113348160D02*
X151155320Y-111671760D01*
X151155320Y-113627560D02*
X151155320Y-113500560D01*
X151129920Y-102807160D02*
X151129920Y-102451560D01*
X151129920Y-103594560D02*
X151129920Y-103340560D01*
X151129920Y-104762960D02*
X151129920Y-104000960D01*
X151129920Y-105423360D02*
X151129920Y-105143960D01*
X151129920Y-107175960D02*
X151129920Y-106134560D01*
X151129920Y-107607760D02*
X151129920Y-107353760D01*
X151129920Y-108877760D02*
X151129920Y-108039560D01*
X151129920Y-109436560D02*
X151129920Y-109080960D01*
X151129920Y-113322760D02*
X151129920Y-111646360D01*
X151129920Y-113627560D02*
X151129920Y-113475160D01*
X151129920Y-113881560D02*
X151129920Y-113805360D01*
X151104520Y-102832560D02*
X151104520Y-102476960D01*
X151104520Y-103594560D02*
X151104520Y-103340560D01*
X151104520Y-104788360D02*
X151104520Y-103924760D01*
X151104520Y-105423360D02*
X151104520Y-105143960D01*
X151104520Y-107175960D02*
X151104520Y-106109160D01*
X151104520Y-107607760D02*
X151104520Y-107353760D01*
X151104520Y-108903160D02*
X151104520Y-108014160D01*
X151104520Y-109461960D02*
X151104520Y-109080960D01*
X151104520Y-113297360D02*
X151104520Y-111620960D01*
X151104520Y-113627560D02*
X151104520Y-113449760D01*
X151104520Y-113881560D02*
X151104520Y-113779960D01*
X151079120Y-102857960D02*
X151079120Y-102502360D01*
X151079120Y-103594560D02*
X151079120Y-103340560D01*
X151079120Y-104839160D02*
X151079120Y-103924760D01*
X151079120Y-105448760D02*
X151079120Y-105143960D01*
X151079120Y-107175960D02*
X151079120Y-106109160D01*
X151079120Y-107607760D02*
X151079120Y-107353760D01*
X151079120Y-108928560D02*
X151079120Y-107963360D01*
X151079120Y-109461960D02*
X151079120Y-109106360D01*
X151079120Y-110833560D02*
X151079120Y-109639760D01*
X151079120Y-113271960D02*
X151079120Y-111595560D01*
X151079120Y-113627560D02*
X151079120Y-113424360D01*
X151079120Y-113881560D02*
X151079120Y-113754560D01*
X151053720Y-102883360D02*
X151053720Y-102527760D01*
X151053720Y-103594560D02*
X151053720Y-103340560D01*
X151053720Y-104864560D02*
X151053720Y-103950160D01*
X151053720Y-105448760D02*
X151053720Y-105169360D01*
X151053720Y-107175960D02*
X151053720Y-106109160D01*
X151053720Y-107607760D02*
X151053720Y-107353760D01*
X151053720Y-108979360D02*
X151053720Y-107937960D01*
X151053720Y-109487360D02*
X151053720Y-109106360D01*
X151053720Y-110833560D02*
X151053720Y-109639760D01*
X151053720Y-113246560D02*
X151053720Y-111570160D01*
X151053720Y-113576760D02*
X151053720Y-113398960D01*
X151053720Y-113881560D02*
X151053720Y-113729160D01*
X151028320Y-102908760D02*
X151028320Y-102527760D01*
X151028320Y-103594560D02*
X151028320Y-103340560D01*
X151028320Y-104915360D02*
X151028320Y-103950160D01*
X151028320Y-105448760D02*
X151028320Y-105169360D01*
X151028320Y-107175960D02*
X151028320Y-106083760D01*
X151028320Y-107607760D02*
X151028320Y-107353760D01*
X151028320Y-108979360D02*
X151028320Y-107912560D01*
X151028320Y-109487360D02*
X151028320Y-109131760D01*
X151028320Y-110833560D02*
X151028320Y-109639760D01*
X151028320Y-113221160D02*
X151028320Y-111570160D01*
X151028320Y-113551360D02*
X151028320Y-113373560D01*
X151028320Y-113881560D02*
X151028320Y-113703760D01*
X151002920Y-102908760D02*
X151002920Y-102553160D01*
X151002920Y-103594560D02*
X151002920Y-103340560D01*
X151002920Y-104940760D02*
X151002920Y-103950160D01*
X151002920Y-105474160D02*
X151002920Y-105169360D01*
X151002920Y-107175960D02*
X151002920Y-106083760D01*
X151002920Y-107607760D02*
X151002920Y-107353760D01*
X151002920Y-109004760D02*
X151002920Y-107912560D01*
X151002920Y-109512760D02*
X151002920Y-109131760D01*
X151002920Y-110808160D02*
X151002920Y-109665160D01*
X151002920Y-113195760D02*
X151002920Y-111570160D01*
X151002920Y-113525960D02*
X151002920Y-113348160D01*
X151002920Y-113881560D02*
X151002920Y-113703760D01*
X150977520Y-102934160D02*
X150977520Y-102578560D01*
X150977520Y-103594560D02*
X150977520Y-103340560D01*
X150977520Y-104966160D02*
X150977520Y-103975560D01*
X150977520Y-105474160D02*
X150977520Y-105194760D01*
X150977520Y-107175960D02*
X150977520Y-106083760D01*
X150977520Y-107607760D02*
X150977520Y-107353760D01*
X150977520Y-109030160D02*
X150977520Y-107912560D01*
X150977520Y-109512760D02*
X150977520Y-109157160D01*
X150977520Y-110808160D02*
X150977520Y-109665160D01*
X150977520Y-113170360D02*
X150977520Y-111570160D01*
X150977520Y-113500560D02*
X150977520Y-113322760D01*
X150977520Y-113881560D02*
X150977520Y-113703760D01*
X150952120Y-102959560D02*
X150952120Y-102603960D01*
X150952120Y-103594560D02*
X150952120Y-103340560D01*
X150952120Y-104966160D02*
X150952120Y-103975560D01*
X150952120Y-105499560D02*
X150952120Y-105194760D01*
X150952120Y-107175960D02*
X150952120Y-106058360D01*
X150952120Y-107607760D02*
X150952120Y-107353760D01*
X150952120Y-108293560D02*
X150952120Y-107912560D01*
X150952120Y-109055560D02*
X150952120Y-108572960D01*
X150952120Y-109538160D02*
X150952120Y-109157160D01*
X150952120Y-110782760D02*
X150952120Y-109690560D01*
X150952120Y-113144960D02*
X150952120Y-111570160D01*
X150952120Y-113475160D02*
X150952120Y-113297360D01*
X150952120Y-113881560D02*
X150952120Y-113703760D01*
X150926720Y-102984960D02*
X150926720Y-102629360D01*
X150926720Y-103594560D02*
X150926720Y-103340560D01*
X150926720Y-104178760D02*
X150926720Y-104000960D01*
X150926720Y-104991560D02*
X150926720Y-104508960D01*
X150926720Y-105499560D02*
X150926720Y-105194760D01*
X150926720Y-106337760D02*
X150926720Y-106058360D01*
X150926720Y-107175960D02*
X150926720Y-106921960D01*
X150926720Y-107607760D02*
X150926720Y-107353760D01*
X150926720Y-108217360D02*
X150926720Y-107912560D01*
X150926720Y-109080960D02*
X150926720Y-108649160D01*
X150926720Y-109538160D02*
X150926720Y-109182560D01*
X150926720Y-110782760D02*
X150926720Y-109690560D01*
X150926720Y-113119560D02*
X150926720Y-111570160D01*
X150926720Y-113449760D02*
X150926720Y-113271960D01*
X150926720Y-113881560D02*
X150926720Y-113703760D01*
X150901320Y-103010360D02*
X150901320Y-102654760D01*
X150901320Y-103594560D02*
X150901320Y-103340560D01*
X150901320Y-104102560D02*
X150901320Y-104000960D01*
X150901320Y-105016960D02*
X150901320Y-104585160D01*
X150901320Y-105499560D02*
X150901320Y-105220160D01*
X150901320Y-106312360D02*
X150901320Y-106032960D01*
X150901320Y-107175960D02*
X150901320Y-106921960D01*
X150901320Y-107607760D02*
X150901320Y-107353760D01*
X150901320Y-108191960D02*
X150901320Y-107912560D01*
X150901320Y-109080960D02*
X150901320Y-108699960D01*
X150901320Y-109563560D02*
X150901320Y-109182560D01*
X150901320Y-110757360D02*
X150901320Y-109715960D01*
X150901320Y-113094160D02*
X150901320Y-111570160D01*
X150901320Y-113424360D02*
X150901320Y-113246560D01*
X150901320Y-113627560D02*
X150901320Y-113576760D01*
X150901320Y-113881560D02*
X150901320Y-113703760D01*
X150875920Y-103035760D02*
X150875920Y-102680160D01*
X150875920Y-103594560D02*
X150875920Y-103340560D01*
X150875920Y-105016960D02*
X150875920Y-104635960D01*
X150875920Y-105524960D02*
X150875920Y-105220160D01*
X150875920Y-106312360D02*
X150875920Y-106032960D01*
X150875920Y-107175960D02*
X150875920Y-106921960D01*
X150875920Y-107607760D02*
X150875920Y-107353760D01*
X150875920Y-108166560D02*
X150875920Y-107912560D01*
X150875920Y-109106360D02*
X150875920Y-108725360D01*
X150875920Y-109563560D02*
X150875920Y-109207960D01*
X150875920Y-110757360D02*
X150875920Y-109715960D01*
X150875920Y-113068760D02*
X150875920Y-111570160D01*
X150875920Y-113398960D02*
X150875920Y-113221160D01*
X150875920Y-113627560D02*
X150875920Y-113551360D01*
X150875920Y-113881560D02*
X150875920Y-113703760D01*
X150850520Y-103061160D02*
X150850520Y-102705560D01*
X150850520Y-103594560D02*
X150850520Y-103340560D01*
X150850520Y-105042360D02*
X150850520Y-104661360D01*
X150850520Y-105524960D02*
X150850520Y-105245560D01*
X150850520Y-106312360D02*
X150850520Y-106032960D01*
X150850520Y-107175960D02*
X150850520Y-106921960D01*
X150850520Y-107607760D02*
X150850520Y-107353760D01*
X150850520Y-108166560D02*
X150850520Y-107912560D01*
X150850520Y-109106360D02*
X150850520Y-108750760D01*
X150850520Y-109588960D02*
X150850520Y-109207960D01*
X150850520Y-110731960D02*
X150850520Y-109741360D01*
X150850520Y-112560760D02*
X150850520Y-111570160D01*
X150850520Y-113043360D02*
X150850520Y-112662360D01*
X150850520Y-113373560D02*
X150850520Y-113195760D01*
X150850520Y-113627560D02*
X150850520Y-113525960D01*
X150850520Y-113881560D02*
X150850520Y-113703760D01*
X150825120Y-103086560D02*
X150825120Y-102730960D01*
X150825120Y-103594560D02*
X150825120Y-103340560D01*
X150825120Y-105067760D02*
X150825120Y-104686760D01*
X150825120Y-105524960D02*
X150825120Y-105245560D01*
X150825120Y-106286960D02*
X150825120Y-106007560D01*
X150825120Y-107175960D02*
X150825120Y-106921960D01*
X150825120Y-107607760D02*
X150825120Y-107353760D01*
X150825120Y-108166560D02*
X150825120Y-107912560D01*
X150825120Y-109131760D02*
X150825120Y-108776160D01*
X150825120Y-109588960D02*
X150825120Y-109233360D01*
X150825120Y-110731960D02*
X150825120Y-109741360D01*
X150825120Y-112459160D02*
X150825120Y-111570160D01*
X150825120Y-113017960D02*
X150825120Y-112738560D01*
X150825120Y-113348160D02*
X150825120Y-113170360D01*
X150825120Y-113627560D02*
X150825120Y-113500560D01*
X150825120Y-113881560D02*
X150825120Y-113703760D01*
X150799720Y-103086560D02*
X150799720Y-102756360D01*
X150799720Y-103594560D02*
X150799720Y-103340560D01*
X150799720Y-105067760D02*
X150799720Y-104712160D01*
X150799720Y-106286960D02*
X150799720Y-105245560D01*
X150799720Y-107175960D02*
X150799720Y-106921960D01*
X150799720Y-107607760D02*
X150799720Y-107353760D01*
X150799720Y-108166560D02*
X150799720Y-107912560D01*
X150799720Y-109131760D02*
X150799720Y-108801560D01*
X150799720Y-109614360D02*
X150799720Y-109233360D01*
X150799720Y-110706560D02*
X150799720Y-109766760D01*
X150799720Y-112408360D02*
X150799720Y-111570160D01*
X150799720Y-112992560D02*
X150799720Y-112814760D01*
X150799720Y-113322760D02*
X150799720Y-113144960D01*
X150799720Y-113627560D02*
X150799720Y-113475160D01*
X150799720Y-113881560D02*
X150799720Y-113703760D01*
X150774320Y-103111960D02*
X150774320Y-102756360D01*
X150774320Y-103594560D02*
X150774320Y-103340560D01*
X150774320Y-105067760D02*
X150774320Y-104737560D01*
X150774320Y-106261560D02*
X150774320Y-105270960D01*
X150774320Y-107175960D02*
X150774320Y-106921960D01*
X150774320Y-107607760D02*
X150774320Y-107353760D01*
X150774320Y-108166560D02*
X150774320Y-107912560D01*
X150774320Y-109157160D02*
X150774320Y-108826960D01*
X150774320Y-109614360D02*
X150774320Y-109258760D01*
X150774320Y-110706560D02*
X150774320Y-109766760D01*
X150774320Y-112382960D02*
X150774320Y-111570160D01*
X150774320Y-112967160D02*
X150774320Y-112840160D01*
X150774320Y-113297360D02*
X150774320Y-113119560D01*
X150774320Y-113627560D02*
X150774320Y-113449760D01*
X150774320Y-113881560D02*
X150774320Y-113703760D01*
X150748920Y-103137360D02*
X150748920Y-102781760D01*
X150748920Y-103594560D02*
X150748920Y-103340560D01*
X150748920Y-105093160D02*
X150748920Y-104762960D01*
X150748920Y-106261560D02*
X150748920Y-105270960D01*
X150748920Y-107175960D02*
X150748920Y-106921960D01*
X150748920Y-107607760D02*
X150748920Y-107353760D01*
X150748920Y-108166560D02*
X150748920Y-107912560D01*
X150748920Y-109157160D02*
X150748920Y-108826960D01*
X150748920Y-109639760D02*
X150748920Y-109258760D01*
X150748920Y-110681160D02*
X150748920Y-110300160D01*
X150748920Y-112332160D02*
X150748920Y-111570160D01*
X150748920Y-112941760D02*
X150748920Y-112865560D01*
X150748920Y-113271960D02*
X150748920Y-113094160D01*
X150748920Y-113627560D02*
X150748920Y-113424360D01*
X150748920Y-113881560D02*
X150748920Y-113703760D01*
X150723520Y-103162760D02*
X150723520Y-102807160D01*
X150723520Y-103594560D02*
X150723520Y-103340560D01*
X150723520Y-105093160D02*
X150723520Y-104788360D01*
X150723520Y-106261560D02*
X150723520Y-105270960D01*
X150723520Y-107175960D02*
X150723520Y-106921960D01*
X150723520Y-107607760D02*
X150723520Y-107353760D01*
X150723520Y-108166560D02*
X150723520Y-107912560D01*
X150723520Y-109157160D02*
X150723520Y-108852360D01*
X150723520Y-109639760D02*
X150723520Y-109284160D01*
X150723520Y-110681160D02*
X150723520Y-110300160D01*
X150723520Y-112306760D02*
X150723520Y-111570160D01*
X150723520Y-112636960D02*
X150723520Y-112586160D01*
X150723520Y-112916360D02*
X150723520Y-112890960D01*
X150723520Y-113246560D02*
X150723520Y-113068760D01*
X150723520Y-113627560D02*
X150723520Y-113398960D01*
X150723520Y-113881560D02*
X150723520Y-113703760D01*
X150698120Y-103188160D02*
X150698120Y-102832560D01*
X150698120Y-103594560D02*
X150698120Y-103340560D01*
X150698120Y-105093160D02*
X150698120Y-104788360D01*
X150698120Y-106236160D02*
X150698120Y-105296360D01*
X150698120Y-107175960D02*
X150698120Y-106921960D01*
X150698120Y-107607760D02*
X150698120Y-107353760D01*
X150698120Y-108166560D02*
X150698120Y-107912560D01*
X150698120Y-109157160D02*
X150698120Y-108877760D01*
X150698120Y-109665160D02*
X150698120Y-109284160D01*
X150698120Y-110655760D02*
X150698120Y-110274760D01*
X150698120Y-112306760D02*
X150698120Y-111570160D01*
X150698120Y-112713160D02*
X150698120Y-112484560D01*
X150698120Y-113221160D02*
X150698120Y-113043360D01*
X150698120Y-113627560D02*
X150698120Y-113398960D01*
X150698120Y-113881560D02*
X150698120Y-113703760D01*
X150672720Y-103213560D02*
X150672720Y-102857960D01*
X150672720Y-103594560D02*
X150672720Y-103340560D01*
X150672720Y-105118560D02*
X150672720Y-104813760D01*
X150672720Y-106236160D02*
X150672720Y-105296360D01*
X150672720Y-107175960D02*
X150672720Y-106921960D01*
X150672720Y-107607760D02*
X150672720Y-107353760D01*
X150672720Y-108166560D02*
X150672720Y-107912560D01*
X150672720Y-109182560D02*
X150672720Y-108877760D01*
X150672720Y-109665160D02*
X150672720Y-109309560D01*
X150672720Y-110655760D02*
X150672720Y-110274760D01*
X150672720Y-112281360D02*
X150672720Y-111570160D01*
X150672720Y-112763960D02*
X150672720Y-112459160D01*
X150672720Y-113195760D02*
X150672720Y-113017960D01*
X150672720Y-113627560D02*
X150672720Y-113373560D01*
X150672720Y-113881560D02*
X150672720Y-113703760D01*
X150647320Y-103238960D02*
X150647320Y-102883360D01*
X150647320Y-103594560D02*
X150647320Y-103340560D01*
X150647320Y-105118560D02*
X150647320Y-104813760D01*
X150647320Y-106236160D02*
X150647320Y-105321760D01*
X150647320Y-107175960D02*
X150647320Y-106921960D01*
X150647320Y-107607760D02*
X150647320Y-107353760D01*
X150647320Y-108166560D02*
X150647320Y-107912560D01*
X150647320Y-109182560D02*
X150647320Y-108877760D01*
X150647320Y-109690560D02*
X150647320Y-109309560D01*
X150647320Y-110630360D02*
X150647320Y-110249360D01*
X150647320Y-112255960D02*
X150647320Y-111570160D01*
X150647320Y-112789360D02*
X150647320Y-112408360D01*
X150647320Y-113170360D02*
X150647320Y-112992560D01*
X150647320Y-113627560D02*
X150647320Y-113348160D01*
X150647320Y-113881560D02*
X150647320Y-113703760D01*
X150621920Y-103238960D02*
X150621920Y-102908760D01*
X150621920Y-103594560D02*
X150621920Y-103340560D01*
X150621920Y-105118560D02*
X150621920Y-104813760D01*
X150621920Y-106210760D02*
X150621920Y-105321760D01*
X150621920Y-107175960D02*
X150621920Y-106921960D01*
X150621920Y-107607760D02*
X150621920Y-107353760D01*
X150621920Y-108547560D02*
X150621920Y-107912560D01*
X150621920Y-109182560D02*
X150621920Y-108903160D01*
X150621920Y-109690560D02*
X150621920Y-109334960D01*
X150621920Y-110630360D02*
X150621920Y-110249360D01*
X150621920Y-112230560D02*
X150621920Y-111570160D01*
X150621920Y-112814760D02*
X150621920Y-112408360D01*
X150621920Y-113144960D02*
X150621920Y-112992560D01*
X150621920Y-113627560D02*
X150621920Y-113322760D01*
X150621920Y-113881560D02*
X150621920Y-113703760D01*
X150596520Y-103264360D02*
X150596520Y-102934160D01*
X150596520Y-103594560D02*
X150596520Y-103340560D01*
X150596520Y-105118560D02*
X150596520Y-104839160D01*
X150596520Y-106210760D02*
X150596520Y-105321760D01*
X150596520Y-107175960D02*
X150596520Y-106921960D01*
X150596520Y-107607760D02*
X150596520Y-107353760D01*
X150596520Y-108547560D02*
X150596520Y-107912560D01*
X150596520Y-109182560D02*
X150596520Y-108903160D01*
X150596520Y-109715960D02*
X150596520Y-109334960D01*
X150596520Y-110604960D02*
X150596520Y-110223960D01*
X150596520Y-112205160D02*
X150596520Y-111570160D01*
X150596520Y-112814760D02*
X150596520Y-112382960D01*
X150596520Y-113119560D02*
X150596520Y-112992560D01*
X150596520Y-113627560D02*
X150596520Y-113297360D01*
X150596520Y-113881560D02*
X150596520Y-113703760D01*
X150571120Y-103289760D02*
X150571120Y-102959560D01*
X150571120Y-103594560D02*
X150571120Y-103340560D01*
X150571120Y-105118560D02*
X150571120Y-104839160D01*
X150571120Y-105626560D02*
X150571120Y-105347160D01*
X150571120Y-106210760D02*
X150571120Y-105931360D01*
X150571120Y-107175960D02*
X150571120Y-106921960D01*
X150571120Y-107607760D02*
X150571120Y-107353760D01*
X150571120Y-108547560D02*
X150571120Y-107912560D01*
X150571120Y-109182560D02*
X150571120Y-108903160D01*
X150571120Y-109715960D02*
X150571120Y-109360360D01*
X150571120Y-110604960D02*
X150571120Y-110223960D01*
X150571120Y-112179760D02*
X150571120Y-111570160D01*
X150571120Y-112840160D02*
X150571120Y-112382960D01*
X150571120Y-113094160D02*
X150571120Y-112992560D01*
X150571120Y-113627560D02*
X150571120Y-113271960D01*
X150571120Y-113881560D02*
X150571120Y-113703760D01*
X150545720Y-103315160D02*
X150545720Y-102984960D01*
X150545720Y-103594560D02*
X150545720Y-103340560D01*
X150545720Y-105118560D02*
X150545720Y-104839160D01*
X150545720Y-105626560D02*
X150545720Y-105347160D01*
X150545720Y-106185360D02*
X150545720Y-105931360D01*
X150545720Y-107175960D02*
X150545720Y-106921960D01*
X150545720Y-107607760D02*
X150545720Y-107353760D01*
X150545720Y-108547560D02*
X150545720Y-107912560D01*
X150545720Y-109182560D02*
X150545720Y-108903160D01*
X150545720Y-109741360D02*
X150545720Y-109360360D01*
X150545720Y-110579560D02*
X150545720Y-110198560D01*
X150545720Y-112154360D02*
X150545720Y-111570160D01*
X150545720Y-112840160D02*
X150545720Y-112357560D01*
X150545720Y-113068760D02*
X150545720Y-112992560D01*
X150545720Y-113627560D02*
X150545720Y-113246560D01*
X150545720Y-113881560D02*
X150545720Y-113703760D01*
X150520320Y-103594560D02*
X150520320Y-102984960D01*
X150520320Y-105118560D02*
X150520320Y-104839160D01*
X150520320Y-105626560D02*
X150520320Y-105347160D01*
X150520320Y-106185360D02*
X150520320Y-105905960D01*
X150520320Y-107175960D02*
X150520320Y-106921960D01*
X150520320Y-107607760D02*
X150520320Y-107353760D01*
X150520320Y-108547560D02*
X150520320Y-107912560D01*
X150520320Y-109182560D02*
X150520320Y-108903160D01*
X150520320Y-109741360D02*
X150520320Y-109385760D01*
X150520320Y-110579560D02*
X150520320Y-110198560D01*
X150520320Y-112128960D02*
X150520320Y-111570160D01*
X150520320Y-112840160D02*
X150520320Y-112357560D01*
X150520320Y-113043360D02*
X150520320Y-112992560D01*
X150520320Y-113627560D02*
X150520320Y-113221160D01*
X150520320Y-113881560D02*
X150520320Y-113703760D01*
X150494920Y-103594560D02*
X150494920Y-103010360D01*
X150494920Y-105118560D02*
X150494920Y-104839160D01*
X150494920Y-105651960D02*
X150494920Y-105372560D01*
X150494920Y-106159960D02*
X150494920Y-105905960D01*
X150494920Y-107175960D02*
X150494920Y-106921960D01*
X150494920Y-107607760D02*
X150494920Y-107353760D01*
X150494920Y-108547560D02*
X150494920Y-107912560D01*
X150494920Y-109182560D02*
X150494920Y-108903160D01*
X150494920Y-109766760D02*
X150494920Y-109385760D01*
X150494920Y-110554160D02*
X150494920Y-110198560D01*
X150494920Y-112103560D02*
X150494920Y-111570160D01*
X150494920Y-112840160D02*
X150494920Y-112357560D01*
X150494920Y-113017960D02*
X150494920Y-112992560D01*
X150494920Y-113627560D02*
X150494920Y-113195760D01*
X150494920Y-113881560D02*
X150494920Y-113703760D01*
X150469520Y-103594560D02*
X150469520Y-103035760D01*
X150469520Y-105118560D02*
X150469520Y-104839160D01*
X150469520Y-105651960D02*
X150469520Y-105372560D01*
X150469520Y-106159960D02*
X150469520Y-105905960D01*
X150469520Y-107175960D02*
X150469520Y-106921960D01*
X150469520Y-107607760D02*
X150469520Y-107353760D01*
X150469520Y-108547560D02*
X150469520Y-107912560D01*
X150469520Y-109182560D02*
X150469520Y-108903160D01*
X150469520Y-109766760D02*
X150469520Y-109411160D01*
X150469520Y-110554160D02*
X150469520Y-110173160D01*
X150469520Y-112078160D02*
X150469520Y-111570160D01*
X150469520Y-112840160D02*
X150469520Y-112357560D01*
X150469520Y-113627560D02*
X150469520Y-113170360D01*
X150469520Y-113881560D02*
X150469520Y-113703760D01*
X150444120Y-103594560D02*
X150444120Y-103061160D01*
X150444120Y-105118560D02*
X150444120Y-104839160D01*
X150444120Y-105651960D02*
X150444120Y-105372560D01*
X150444120Y-106159960D02*
X150444120Y-105880560D01*
X150444120Y-107175960D02*
X150444120Y-106921960D01*
X150444120Y-107607760D02*
X150444120Y-107353760D01*
X150444120Y-108547560D02*
X150444120Y-107912560D01*
X150444120Y-109182560D02*
X150444120Y-108903160D01*
X150444120Y-109792160D02*
X150444120Y-109411160D01*
X150444120Y-110528760D02*
X150444120Y-110173160D01*
X150444120Y-112052760D02*
X150444120Y-111570160D01*
X150444120Y-112840160D02*
X150444120Y-112357560D01*
X150444120Y-113627560D02*
X150444120Y-113144960D01*
X150444120Y-113881560D02*
X150444120Y-113703760D01*
X150418720Y-103594560D02*
X150418720Y-103061160D01*
X150418720Y-105118560D02*
X150418720Y-104839160D01*
X150418720Y-105677360D02*
X150418720Y-105397960D01*
X150418720Y-106134560D02*
X150418720Y-105880560D01*
X150418720Y-107175960D02*
X150418720Y-106921960D01*
X150418720Y-107607760D02*
X150418720Y-107353760D01*
X150418720Y-108547560D02*
X150418720Y-107912560D01*
X150418720Y-109182560D02*
X150418720Y-108903160D01*
X150418720Y-109792160D02*
X150418720Y-109436560D01*
X150418720Y-110528760D02*
X150418720Y-110147760D01*
X150418720Y-112027360D02*
X150418720Y-111570160D01*
X150418720Y-112205160D02*
X150418720Y-112179760D01*
X150418720Y-112840160D02*
X150418720Y-112357560D01*
X150418720Y-113627560D02*
X150418720Y-113119560D01*
X150418720Y-113881560D02*
X150418720Y-113703760D01*
X150393320Y-103594560D02*
X150393320Y-103035760D01*
X150393320Y-105118560D02*
X150393320Y-104839160D01*
X150393320Y-105677360D02*
X150393320Y-105397960D01*
X150393320Y-106134560D02*
X150393320Y-105880560D01*
X150393320Y-107175960D02*
X150393320Y-106921960D01*
X150393320Y-107607760D02*
X150393320Y-107353760D01*
X150393320Y-109182560D02*
X150393320Y-108903160D01*
X150393320Y-109817560D02*
X150393320Y-109436560D01*
X150393320Y-110503360D02*
X150393320Y-110147760D01*
X150393320Y-112001960D02*
X150393320Y-111570160D01*
X150393320Y-112205160D02*
X150393320Y-112154360D01*
X150393320Y-112840160D02*
X150393320Y-112357560D01*
X150393320Y-113627560D02*
X150393320Y-113094160D01*
X150393320Y-113881560D02*
X150393320Y-113703760D01*
X150367920Y-103315160D02*
X150367920Y-103010360D01*
X150367920Y-103594560D02*
X150367920Y-103340560D01*
X150367920Y-105118560D02*
X150367920Y-104839160D01*
X150367920Y-105677360D02*
X150367920Y-105423360D01*
X150367920Y-106134560D02*
X150367920Y-105855160D01*
X150367920Y-107175960D02*
X150367920Y-106921960D01*
X150367920Y-107607760D02*
X150367920Y-107353760D01*
X150367920Y-109182560D02*
X150367920Y-108903160D01*
X150367920Y-109817560D02*
X150367920Y-109461960D01*
X150367920Y-110503360D02*
X150367920Y-110122360D01*
X150367920Y-111976560D02*
X150367920Y-111570160D01*
X150367920Y-112205160D02*
X150367920Y-112128960D01*
X150367920Y-112840160D02*
X150367920Y-112382960D01*
X150367920Y-113627560D02*
X150367920Y-113068760D01*
X150367920Y-113881560D02*
X150367920Y-113703760D01*
X150342520Y-103315160D02*
X150342520Y-102984960D01*
X150342520Y-103594560D02*
X150342520Y-103340560D01*
X150342520Y-105118560D02*
X150342520Y-104839160D01*
X150342520Y-105702760D02*
X150342520Y-105423360D01*
X150342520Y-106109160D02*
X150342520Y-105855160D01*
X150342520Y-107175960D02*
X150342520Y-106921960D01*
X150342520Y-107607760D02*
X150342520Y-107353760D01*
X150342520Y-109182560D02*
X150342520Y-108877760D01*
X150342520Y-109842960D02*
X150342520Y-109461960D01*
X150342520Y-110477960D02*
X150342520Y-110122360D01*
X150342520Y-111951160D02*
X150342520Y-111570160D01*
X150342520Y-112205160D02*
X150342520Y-112103560D01*
X150342520Y-112814760D02*
X150342520Y-112382960D01*
X150342520Y-113627560D02*
X150342520Y-113043360D01*
X150342520Y-113881560D02*
X150342520Y-113703760D01*
X150317120Y-103289760D02*
X150317120Y-102959560D01*
X150317120Y-103594560D02*
X150317120Y-103340560D01*
X150317120Y-105118560D02*
X150317120Y-104813760D01*
X150317120Y-105702760D02*
X150317120Y-105423360D01*
X150317120Y-106109160D02*
X150317120Y-105855160D01*
X150317120Y-107175960D02*
X150317120Y-106921960D01*
X150317120Y-107607760D02*
X150317120Y-107353760D01*
X150317120Y-109182560D02*
X150317120Y-108877760D01*
X150317120Y-109842960D02*
X150317120Y-109487360D01*
X150317120Y-110477960D02*
X150317120Y-110096960D01*
X150317120Y-111925760D02*
X150317120Y-111570160D01*
X150317120Y-112205160D02*
X150317120Y-112052760D01*
X150317120Y-112814760D02*
X150317120Y-112382960D01*
X150317120Y-113627560D02*
X150317120Y-113017960D01*
X150317120Y-113881560D02*
X150317120Y-113703760D01*
X150291720Y-103264360D02*
X150291720Y-102934160D01*
X150291720Y-103594560D02*
X150291720Y-103340560D01*
X150291720Y-105118560D02*
X150291720Y-104813760D01*
X150291720Y-105702760D02*
X150291720Y-105448760D01*
X150291720Y-106109160D02*
X150291720Y-105829760D01*
X150291720Y-107175960D02*
X150291720Y-106921960D01*
X150291720Y-107607760D02*
X150291720Y-107353760D01*
X150291720Y-109157160D02*
X150291720Y-108877760D01*
X150291720Y-109868360D02*
X150291720Y-109487360D01*
X150291720Y-110452560D02*
X150291720Y-110096960D01*
X150291720Y-111900360D02*
X150291720Y-111570160D01*
X150291720Y-112205160D02*
X150291720Y-112027360D01*
X150291720Y-112789360D02*
X150291720Y-112408360D01*
X150291720Y-113627560D02*
X150291720Y-112992560D01*
X150291720Y-113881560D02*
X150291720Y-113703760D01*
X150266320Y-103238960D02*
X150266320Y-102908760D01*
X150266320Y-103594560D02*
X150266320Y-103340560D01*
X150266320Y-105093160D02*
X150266320Y-104788360D01*
X150266320Y-105728160D02*
X150266320Y-105448760D01*
X150266320Y-106083760D02*
X150266320Y-105829760D01*
X150266320Y-107175960D02*
X150266320Y-106921960D01*
X150266320Y-107607760D02*
X150266320Y-107353760D01*
X150266320Y-109157160D02*
X150266320Y-108852360D01*
X150266320Y-109868360D02*
X150266320Y-109512760D01*
X150266320Y-110452560D02*
X150266320Y-110071560D01*
X150266320Y-111874960D02*
X150266320Y-111570160D01*
X150266320Y-112205160D02*
X150266320Y-112001960D01*
X150266320Y-112763960D02*
X150266320Y-112433760D01*
X150266320Y-113627560D02*
X150266320Y-112967160D01*
X150266320Y-113881560D02*
X150266320Y-113703760D01*
X150240920Y-103213560D02*
X150240920Y-102883360D01*
X150240920Y-103594560D02*
X150240920Y-103340560D01*
X150240920Y-105093160D02*
X150240920Y-104788360D01*
X150240920Y-105728160D02*
X150240920Y-105448760D01*
X150240920Y-106083760D02*
X150240920Y-105829760D01*
X150240920Y-107175960D02*
X150240920Y-106921960D01*
X150240920Y-107607760D02*
X150240920Y-107353760D01*
X150240920Y-109157160D02*
X150240920Y-108852360D01*
X150240920Y-109893760D02*
X150240920Y-109538160D01*
X150240920Y-110427160D02*
X150240920Y-110071560D01*
X150240920Y-111849560D02*
X150240920Y-111570160D01*
X150240920Y-112179760D02*
X150240920Y-111976560D01*
X150240920Y-112738560D02*
X150240920Y-112459160D01*
X150240920Y-113627560D02*
X150240920Y-112941760D01*
X150240920Y-113881560D02*
X150240920Y-113703760D01*
X150215520Y-103188160D02*
X150215520Y-102857960D01*
X150215520Y-103594560D02*
X150215520Y-103340560D01*
X150215520Y-105093160D02*
X150215520Y-104762960D01*
X150215520Y-105728160D02*
X150215520Y-105474160D01*
X150215520Y-106058360D02*
X150215520Y-105804360D01*
X150215520Y-107175960D02*
X150215520Y-106921960D01*
X150215520Y-107607760D02*
X150215520Y-107353760D01*
X150215520Y-109157160D02*
X150215520Y-108826960D01*
X150215520Y-109893760D02*
X150215520Y-109538160D01*
X150215520Y-110427160D02*
X150215520Y-110046160D01*
X150215520Y-111824160D02*
X150215520Y-111570160D01*
X150215520Y-112154360D02*
X150215520Y-111951160D01*
X150215520Y-112306760D02*
X150215520Y-112281360D01*
X150215520Y-112687760D02*
X150215520Y-112509960D01*
X150215520Y-113627560D02*
X150215520Y-112916360D01*
X150215520Y-113881560D02*
X150215520Y-113703760D01*
X150190120Y-103162760D02*
X150190120Y-102832560D01*
X150190120Y-103594560D02*
X150190120Y-103340560D01*
X150190120Y-105093160D02*
X150190120Y-104762960D01*
X150190120Y-105753560D02*
X150190120Y-105474160D01*
X150190120Y-106058360D02*
X150190120Y-105804360D01*
X150190120Y-107175960D02*
X150190120Y-106921960D01*
X150190120Y-107607760D02*
X150190120Y-107353760D01*
X150190120Y-109131760D02*
X150190120Y-108801560D01*
X150190120Y-109919160D02*
X150190120Y-109563560D01*
X150190120Y-110401760D02*
X150190120Y-110046160D01*
X150190120Y-111798760D02*
X150190120Y-111570160D01*
X150190120Y-112128960D02*
X150190120Y-111925760D01*
X150190120Y-112332160D02*
X150190120Y-112281360D01*
X150190120Y-113627560D02*
X150190120Y-112890960D01*
X150190120Y-113881560D02*
X150190120Y-113703760D01*
X150164720Y-103137360D02*
X150164720Y-102807160D01*
X150164720Y-103594560D02*
X150164720Y-103340560D01*
X150164720Y-105067760D02*
X150164720Y-104737560D01*
X150164720Y-105753560D02*
X150164720Y-105474160D01*
X150164720Y-106058360D02*
X150164720Y-105804360D01*
X150164720Y-107175960D02*
X150164720Y-106921960D01*
X150164720Y-107607760D02*
X150164720Y-107353760D01*
X150164720Y-109131760D02*
X150164720Y-108776160D01*
X150164720Y-109919160D02*
X150164720Y-109563560D01*
X150164720Y-110401760D02*
X150164720Y-110046160D01*
X150164720Y-111773360D02*
X150164720Y-111570160D01*
X150164720Y-112103560D02*
X150164720Y-111900360D01*
X150164720Y-112357560D02*
X150164720Y-112255960D01*
X150164720Y-113627560D02*
X150164720Y-112865560D01*
X150164720Y-113881560D02*
X150164720Y-113703760D01*
X150139320Y-103137360D02*
X150139320Y-102781760D01*
X150139320Y-103594560D02*
X150139320Y-103340560D01*
X150139320Y-105067760D02*
X150139320Y-104712160D01*
X150139320Y-105753560D02*
X150139320Y-105499560D01*
X150139320Y-106032960D02*
X150139320Y-105778960D01*
X150139320Y-107175960D02*
X150139320Y-106921960D01*
X150139320Y-107607760D02*
X150139320Y-107353760D01*
X150139320Y-108090360D02*
X150139320Y-108064960D01*
X150139320Y-109106360D02*
X150139320Y-108750760D01*
X150139320Y-109944560D02*
X150139320Y-109588960D01*
X150139320Y-110376360D02*
X150139320Y-110020760D01*
X150139320Y-111747960D02*
X150139320Y-111570160D01*
X150139320Y-112078160D02*
X150139320Y-111874960D01*
X150139320Y-112382960D02*
X150139320Y-112230560D01*
X150139320Y-113627560D02*
X150139320Y-112814760D01*
X150139320Y-113881560D02*
X150139320Y-113703760D01*
X150113920Y-103111960D02*
X150113920Y-102756360D01*
X150113920Y-103594560D02*
X150113920Y-103340560D01*
X150113920Y-105042360D02*
X150113920Y-104686760D01*
X150113920Y-106032960D02*
X150113920Y-105499560D01*
X150113920Y-107175960D02*
X150113920Y-106921960D01*
X150113920Y-107607760D02*
X150113920Y-107353760D01*
X150113920Y-108141160D02*
X150113920Y-108039560D01*
X150113920Y-109106360D02*
X150113920Y-108699960D01*
X150113920Y-109944560D02*
X150113920Y-109588960D01*
X150113920Y-110376360D02*
X150113920Y-110020760D01*
X150113920Y-111722560D02*
X150113920Y-111570160D01*
X150113920Y-112052760D02*
X150113920Y-111849560D01*
X150113920Y-112433760D02*
X150113920Y-112205160D01*
X150113920Y-113627560D02*
X150113920Y-112789360D01*
X150113920Y-113881560D02*
X150113920Y-113703760D01*
X150088520Y-103086560D02*
X150088520Y-102730960D01*
X150088520Y-103594560D02*
X150088520Y-103340560D01*
X150088520Y-105042360D02*
X150088520Y-104635960D01*
X150088520Y-106032960D02*
X150088520Y-105524960D01*
X150088520Y-107175960D02*
X150088520Y-106921960D01*
X150088520Y-107607760D02*
X150088520Y-107353760D01*
X150088520Y-108191960D02*
X150088520Y-108039560D01*
X150088520Y-109080960D02*
X150088520Y-108674560D01*
X150088520Y-109969960D02*
X150088520Y-109614360D01*
X150088520Y-110350960D02*
X150088520Y-109995360D01*
X150088520Y-111697160D02*
X150088520Y-111570160D01*
X150088520Y-112027360D02*
X150088520Y-111824160D01*
X150088520Y-112509960D02*
X150088520Y-112179760D01*
X150088520Y-113627560D02*
X150088520Y-112713160D01*
X150088520Y-113881560D02*
X150088520Y-113703760D01*
X150063120Y-103061160D02*
X150063120Y-102730960D01*
X150063120Y-103594560D02*
X150063120Y-103340560D01*
X150063120Y-104102560D02*
X150063120Y-104026360D01*
X150063120Y-105016960D02*
X150063120Y-104585160D01*
X150063120Y-106007560D02*
X150063120Y-105524960D01*
X150063120Y-107175960D02*
X150063120Y-106921960D01*
X150063120Y-107607760D02*
X150063120Y-107353760D01*
X150063120Y-108293560D02*
X150063120Y-108014160D01*
X150063120Y-109055560D02*
X150063120Y-108598360D01*
X150063120Y-109969960D02*
X150063120Y-109614360D01*
X150063120Y-110350960D02*
X150063120Y-109995360D01*
X150063120Y-111671760D02*
X150063120Y-111570160D01*
X150063120Y-112001960D02*
X150063120Y-111798760D01*
X150063120Y-113627560D02*
X150063120Y-112154360D01*
X150063120Y-113881560D02*
X150063120Y-113703760D01*
X150037720Y-103035760D02*
X150037720Y-102705560D01*
X150037720Y-103594560D02*
X150037720Y-103340560D01*
X150037720Y-104178760D02*
X150037720Y-104000960D01*
X150037720Y-104991560D02*
X150037720Y-104534360D01*
X150037720Y-106007560D02*
X150037720Y-105524960D01*
X150037720Y-107175960D02*
X150037720Y-106921960D01*
X150037720Y-107607760D02*
X150037720Y-107353760D01*
X150037720Y-109055560D02*
X150037720Y-108014160D01*
X150037720Y-110325560D02*
X150037720Y-109639760D01*
X150037720Y-111646360D02*
X150037720Y-111570160D01*
X150037720Y-111976560D02*
X150037720Y-111773360D01*
X150037720Y-113627560D02*
X150037720Y-112128960D01*
X150037720Y-113881560D02*
X150037720Y-113703760D01*
X150012320Y-103010360D02*
X150012320Y-102680160D01*
X150012320Y-103594560D02*
X150012320Y-103340560D01*
X150012320Y-104966160D02*
X150012320Y-104000960D01*
X150012320Y-105982160D02*
X150012320Y-105550360D01*
X150012320Y-107175960D02*
X150012320Y-106921960D01*
X150012320Y-107607760D02*
X150012320Y-107353760D01*
X150012320Y-109030160D02*
X150012320Y-107988760D01*
X150012320Y-110325560D02*
X150012320Y-109639760D01*
X150012320Y-111620960D02*
X150012320Y-111570160D01*
X150012320Y-111951160D02*
X150012320Y-111747960D01*
X150012320Y-113627560D02*
X150012320Y-112103560D01*
X150012320Y-113881560D02*
X150012320Y-113703760D01*
X149986920Y-102984960D02*
X149986920Y-102654760D01*
X149986920Y-103594560D02*
X149986920Y-103340560D01*
X149986920Y-104966160D02*
X149986920Y-104000960D01*
X149986920Y-105982160D02*
X149986920Y-105550360D01*
X149986920Y-107175960D02*
X149986920Y-106921960D01*
X149986920Y-107607760D02*
X149986920Y-107353760D01*
X149986920Y-109004760D02*
X149986920Y-107963360D01*
X149986920Y-110300160D02*
X149986920Y-109665160D01*
X149986920Y-111925760D02*
X149986920Y-111722560D01*
X149986920Y-113627560D02*
X149986920Y-112078160D01*
X149986920Y-113881560D02*
X149986920Y-113703760D01*
X149961520Y-102959560D02*
X149961520Y-102629360D01*
X149961520Y-103594560D02*
X149961520Y-103340560D01*
X149961520Y-104940760D02*
X149961520Y-103975560D01*
X149961520Y-105982160D02*
X149961520Y-105550360D01*
X149961520Y-107175960D02*
X149961520Y-106921960D01*
X149961520Y-107607760D02*
X149961520Y-107353760D01*
X149961520Y-108979360D02*
X149961520Y-107963360D01*
X149961520Y-110300160D02*
X149961520Y-109665160D01*
X149961520Y-111900360D02*
X149961520Y-111697160D01*
X149961520Y-113627560D02*
X149961520Y-112052760D01*
X149961520Y-113881560D02*
X149961520Y-113703760D01*
X149936120Y-102959560D02*
X149936120Y-102603960D01*
X149936120Y-103594560D02*
X149936120Y-103340560D01*
X149936120Y-104915360D02*
X149936120Y-103975560D01*
X149936120Y-105956760D02*
X149936120Y-105575760D01*
X149936120Y-107175960D02*
X149936120Y-106921960D01*
X149936120Y-107607760D02*
X149936120Y-107353760D01*
X149936120Y-108953960D02*
X149936120Y-107963360D01*
X149936120Y-110274760D02*
X149936120Y-109690560D01*
X149936120Y-111874960D02*
X149936120Y-111671760D01*
X149936120Y-113627560D02*
X149936120Y-112027360D01*
X149936120Y-113881560D02*
X149936120Y-113703760D01*
X149910720Y-102934160D02*
X149910720Y-102578560D01*
X149910720Y-103594560D02*
X149910720Y-103340560D01*
X149910720Y-104864560D02*
X149910720Y-103950160D01*
X149910720Y-105956760D02*
X149910720Y-105575760D01*
X149910720Y-107175960D02*
X149910720Y-106921960D01*
X149910720Y-107607760D02*
X149910720Y-107353760D01*
X149910720Y-108903160D02*
X149910720Y-107988760D01*
X149910720Y-110274760D02*
X149910720Y-109690560D01*
X149910720Y-111849560D02*
X149910720Y-111646360D01*
X149910720Y-113627560D02*
X149910720Y-112001960D01*
X149910720Y-113881560D02*
X149910720Y-113703760D01*
X149885320Y-102908760D02*
X149885320Y-102553160D01*
X149885320Y-103594560D02*
X149885320Y-103340560D01*
X149885320Y-104839160D02*
X149885320Y-103950160D01*
X149885320Y-105956760D02*
X149885320Y-105601160D01*
X149885320Y-107175960D02*
X149885320Y-106921960D01*
X149885320Y-107607760D02*
X149885320Y-107353760D01*
X149885320Y-108877760D02*
X149885320Y-108039560D01*
X149885320Y-110249360D02*
X149885320Y-109715960D01*
X149885320Y-111824160D02*
X149885320Y-111620960D01*
X149885320Y-113627560D02*
X149885320Y-111976560D01*
X149885320Y-113881560D02*
X149885320Y-113703760D01*
X149859920Y-102883360D02*
X149859920Y-102527760D01*
X149859920Y-103594560D02*
X149859920Y-103340560D01*
X149859920Y-104788360D02*
X149859920Y-103950160D01*
X149859920Y-105931360D02*
X149859920Y-105601160D01*
X149859920Y-107175960D02*
X149859920Y-106921960D01*
X149859920Y-107607760D02*
X149859920Y-107353760D01*
X149859920Y-108826960D02*
X149859920Y-108090360D01*
X149859920Y-110249360D02*
X149859920Y-109715960D01*
X149859920Y-111798760D02*
X149859920Y-111570160D01*
X149859920Y-113627560D02*
X149859920Y-111951160D01*
X149859920Y-113881560D02*
X149859920Y-113690000D01*
X149834520Y-102857960D02*
X149834520Y-102502360D01*
X149834520Y-103594560D02*
X149834520Y-103340560D01*
X149834520Y-104737560D02*
X149834520Y-104000960D01*
X149834520Y-105931360D02*
X149834520Y-105601160D01*
X149834520Y-107175960D02*
X149834520Y-106921960D01*
X149834520Y-107607760D02*
X149834520Y-107353760D01*
X149834520Y-108776160D02*
X149834520Y-108166560D01*
X149834520Y-110223960D02*
X149834520Y-109741360D01*
X149834520Y-111773360D02*
X149834520Y-111570160D01*
X149834520Y-113602160D02*
X149834520Y-111925760D01*
X149834520Y-113881560D02*
X149834520Y-113670000D01*
X149809120Y-102832560D02*
X149809120Y-102476960D01*
X149809120Y-103594560D02*
X149809120Y-103340560D01*
X149809120Y-104686760D02*
X149809120Y-104051760D01*
X149809120Y-105931360D02*
X149809120Y-105626560D01*
X149809120Y-107175960D02*
X149809120Y-106921960D01*
X149809120Y-107607760D02*
X149809120Y-107353760D01*
X149809120Y-108674560D02*
X149809120Y-108242760D01*
X149809120Y-110223960D02*
X149809120Y-109741360D01*
X149809120Y-111747960D02*
X149809120Y-111570160D01*
X149809120Y-113576760D02*
X149809120Y-111900360D01*
X149809120Y-113881560D02*
X149809120Y-113652960D01*
X149783720Y-102807160D02*
X149783720Y-102451560D01*
X149783720Y-103594560D02*
X149783720Y-103340560D01*
X149783720Y-104610560D02*
X149783720Y-104153360D01*
X149783720Y-105905960D02*
X149783720Y-105626560D01*
X149783720Y-107175960D02*
X149783720Y-106921960D01*
X149783720Y-107607760D02*
X149783720Y-107353760D01*
X149783720Y-110198560D02*
X149783720Y-109766760D01*
X149783720Y-111722560D02*
X149783720Y-111570160D01*
X149783720Y-113551360D02*
X149783720Y-111874960D01*
X149783720Y-113881560D02*
X149783720Y-113630000D01*
X149758320Y-110198560D02*
X149758320Y-109766760D01*
X149758320Y-111697160D02*
X149758320Y-111570160D01*
X149758320Y-113525960D02*
X149758320Y-111849560D01*
X149758320Y-113881560D02*
X149758320Y-113600000D01*
X149732920Y-110173160D02*
X149732920Y-109792160D01*
X149732920Y-111646360D02*
X149732920Y-111570160D01*
X149732920Y-113500560D02*
X149732920Y-111824160D01*
X149732920Y-113881560D02*
X149732920Y-113576760D01*
X149707520Y-110173160D02*
X149707520Y-109792160D01*
X149707520Y-111646360D02*
X149707520Y-111570160D01*
X149707520Y-113475160D02*
X149707520Y-111798760D01*
X149707520Y-113856160D02*
X149707520Y-113551360D01*
X149682120Y-110147760D02*
X149682120Y-109817560D01*
X149682120Y-113449760D02*
X149682120Y-111773360D01*
X149682120Y-113830760D02*
X149682120Y-113525960D01*
X149656720Y-110147760D02*
X149656720Y-109817560D01*
X149656720Y-113424360D02*
X149656720Y-111747960D01*
X149656720Y-113805360D02*
X149656720Y-113500560D01*
X149631320Y-110122360D02*
X149631320Y-109842960D01*
X149631320Y-113398960D02*
X149631320Y-111722560D01*
X149631320Y-113779960D02*
X149631320Y-113475160D01*
X149605920Y-110122360D02*
X149605920Y-109842960D01*
X149605920Y-113373560D02*
X149605920Y-111697160D01*
X149605920Y-113754560D02*
X149605920Y-113449760D01*
X149580520Y-110096960D02*
X149580520Y-109868360D01*
X149580520Y-113348160D02*
X149580520Y-111671760D01*
X149580520Y-113729160D02*
X149580520Y-113424360D01*
X149555120Y-110096960D02*
X149555120Y-109868360D01*
X149555120Y-113322760D02*
X149555120Y-111646360D01*
X149555120Y-113703760D02*
X149555120Y-113398960D01*
X149529720Y-110071560D02*
X149529720Y-109893760D01*
X149529720Y-113297360D02*
X149529720Y-111620960D01*
X149529720Y-113678360D02*
X149529720Y-113373560D01*
X149504320Y-110071560D02*
X149504320Y-109893760D01*
X149504320Y-113271960D02*
X149504320Y-111570160D01*
X149504320Y-113652960D02*
X149504320Y-113348160D01*
X149478920Y-110046160D02*
X149478920Y-109919160D01*
X149478920Y-113246560D02*
X149478920Y-111570160D01*
X149478920Y-113627560D02*
X149478920Y-113322760D01*
X149453520Y-110046160D02*
X149453520Y-109919160D01*
X149453520Y-113602160D02*
X149453520Y-113297360D01*
X149428120Y-110020760D02*
X149428120Y-109944560D01*
X149428120Y-113576760D02*
X149428120Y-113271960D01*
X149402720Y-110020760D02*
X149402720Y-109944560D01*
X149402720Y-113551360D02*
X149402720Y-113246560D01*
X149377320Y-109995360D02*
X149377320Y-109969960D01*
X149377320Y-113525960D02*
X149377320Y-111722560D01*
X149351920Y-113500560D02*
X149351920Y-111722560D01*
X149326520Y-113475160D02*
X149326520Y-111722560D01*
X149301120Y-113449760D02*
X149301120Y-111722560D01*
X149275720Y-113424360D02*
X149275720Y-111722560D01*
X149250320Y-113398960D02*
X149250320Y-111722560D01*
X149224920Y-113373560D02*
X149224920Y-111722560D01*
G04 #@! TO.C,ohw_logo*
X144464900Y-111596600D02*
X144541100Y-111596600D01*
X147436700Y-111571200D02*
X147487500Y-111571200D01*
X144439500Y-111571200D02*
X144541100Y-111571200D01*
X147411300Y-111545800D02*
X147512900Y-111545800D01*
X144414100Y-111545800D02*
X144566500Y-111545800D01*
X147385900Y-111520400D02*
X147538300Y-111520400D01*
X144388700Y-111520400D02*
X144566500Y-111520400D01*
X147360500Y-111495000D02*
X147563700Y-111495000D01*
X144363300Y-111495000D02*
X144591900Y-111495000D01*
X147335100Y-111469600D02*
X147563700Y-111469600D01*
X144337900Y-111469600D02*
X144591900Y-111469600D01*
X147309700Y-111444200D02*
X147589100Y-111444200D01*
X144337900Y-111444200D02*
X144617300Y-111444200D01*
X147258900Y-111418800D02*
X147589100Y-111418800D01*
X144312500Y-111418800D02*
X144642700Y-111418800D01*
X147208100Y-111393400D02*
X147614500Y-111393400D01*
X144312500Y-111393400D02*
X144668100Y-111393400D01*
X147157300Y-111368000D02*
X147614500Y-111368000D01*
X144312500Y-111368000D02*
X144693500Y-111368000D01*
X147131900Y-111342600D02*
X147614500Y-111342600D01*
X144312500Y-111342600D02*
X144744300Y-111342600D01*
X147106500Y-111317200D02*
X147614500Y-111317200D01*
X144287100Y-111317200D02*
X144769700Y-111317200D01*
X147055700Y-111291800D02*
X147614500Y-111291800D01*
X146547700Y-111291800D02*
X146573100Y-111291800D01*
X145252300Y-111291800D02*
X145303100Y-111291800D01*
X144261700Y-111291800D02*
X144820500Y-111291800D01*
X147055700Y-111266400D02*
X147614500Y-111266400D01*
X146547700Y-111266400D02*
X146623900Y-111266400D01*
X145201500Y-111266400D02*
X145303100Y-111266400D01*
X144236300Y-111266400D02*
X144845900Y-111266400D01*
X147030300Y-111241000D02*
X147589100Y-111241000D01*
X146522300Y-111241000D02*
X146674700Y-111241000D01*
X145150700Y-111241000D02*
X145328500Y-111241000D01*
X144210900Y-111241000D02*
X144896700Y-111241000D01*
X147004900Y-111215600D02*
X147614500Y-111215600D01*
X146522300Y-111215600D02*
X146725500Y-111215600D01*
X145074500Y-111215600D02*
X145328500Y-111215600D01*
X144185500Y-111215600D02*
X144947500Y-111215600D01*
X146979500Y-111190200D02*
X147639900Y-111190200D01*
X146522300Y-111190200D02*
X146776300Y-111190200D01*
X144160100Y-111190200D02*
X145353900Y-111190200D01*
X146903300Y-111164800D02*
X147665300Y-111164800D01*
X146496900Y-111164800D02*
X146852500Y-111164800D01*
X144134700Y-111164800D02*
X145353900Y-111164800D01*
X146496900Y-111139400D02*
X147690700Y-111139400D01*
X144109300Y-111139400D02*
X145353900Y-111139400D01*
X146471500Y-111114000D02*
X147690700Y-111114000D01*
X144083900Y-111114000D02*
X145379300Y-111114000D01*
X146471500Y-111088600D02*
X147716100Y-111088600D01*
X144058500Y-111088600D02*
X145379300Y-111088600D01*
X146471500Y-111063200D02*
X147741500Y-111063200D01*
X144058500Y-111063200D02*
X145379300Y-111063200D01*
X146446100Y-111037800D02*
X147766900Y-111037800D01*
X144058500Y-111037800D02*
X145404700Y-111037800D01*
X146446100Y-111012400D02*
X147792300Y-111012400D01*
X144058500Y-111012400D02*
X145404700Y-111012400D01*
X146446100Y-110987000D02*
X147792300Y-110987000D01*
X144083900Y-110987000D02*
X145404700Y-110987000D01*
X146420700Y-110961600D02*
X147792300Y-110961600D01*
X144109300Y-110961600D02*
X145430100Y-110961600D01*
X146420700Y-110936200D02*
X147766900Y-110936200D01*
X144109300Y-110936200D02*
X145430100Y-110936200D01*
X146395300Y-110910800D02*
X147766900Y-110910800D01*
X144134700Y-110910800D02*
X145430100Y-110910800D01*
X146395300Y-110885400D02*
X147741500Y-110885400D01*
X144160100Y-110885400D02*
X145455500Y-110885400D01*
X146395300Y-110860000D02*
X147716100Y-110860000D01*
X144185500Y-110860000D02*
X145455500Y-110860000D01*
X146369900Y-110834600D02*
X147690700Y-110834600D01*
X144185500Y-110834600D02*
X145455500Y-110834600D01*
X146369900Y-110809200D02*
X147690700Y-110809200D01*
X144210900Y-110809200D02*
X145480900Y-110809200D01*
X146344500Y-110783800D02*
X147665300Y-110783800D01*
X144236300Y-110783800D02*
X145480900Y-110783800D01*
X146344500Y-110758400D02*
X147639900Y-110758400D01*
X144236300Y-110758400D02*
X145506300Y-110758400D01*
X146344500Y-110733000D02*
X147639900Y-110733000D01*
X144261700Y-110733000D02*
X145506300Y-110733000D01*
X146319100Y-110707600D02*
X147614500Y-110707600D01*
X144287100Y-110707600D02*
X145506300Y-110707600D01*
X146319100Y-110682200D02*
X147589100Y-110682200D01*
X144312500Y-110682200D02*
X145531700Y-110682200D01*
X146293700Y-110656800D02*
X147589100Y-110656800D01*
X144312500Y-110656800D02*
X145531700Y-110656800D01*
X146293700Y-110631400D02*
X147563700Y-110631400D01*
X144337900Y-110631400D02*
X145531700Y-110631400D01*
X146293700Y-110606000D02*
X147538300Y-110606000D01*
X144363300Y-110606000D02*
X145557100Y-110606000D01*
X146268300Y-110580600D02*
X147538300Y-110580600D01*
X144388700Y-110580600D02*
X145557100Y-110580600D01*
X146268300Y-110555200D02*
X147512900Y-110555200D01*
X144388700Y-110555200D02*
X145557100Y-110555200D01*
X146268300Y-110529800D02*
X147487500Y-110529800D01*
X144388700Y-110529800D02*
X145582500Y-110529800D01*
X146242900Y-110504400D02*
X147462100Y-110504400D01*
X144388700Y-110504400D02*
X145582500Y-110504400D01*
X146242900Y-110479000D02*
X147462100Y-110479000D01*
X144363300Y-110479000D02*
X145582500Y-110479000D01*
X146217500Y-110453600D02*
X147436700Y-110453600D01*
X144363300Y-110453600D02*
X145607900Y-110453600D01*
X146217500Y-110428200D02*
X147462100Y-110428200D01*
X144337900Y-110428200D02*
X145607900Y-110428200D01*
X146217500Y-110402800D02*
X147462100Y-110402800D01*
X144337900Y-110402800D02*
X145607900Y-110402800D01*
X146192100Y-110377400D02*
X147487500Y-110377400D01*
X144312500Y-110377400D02*
X145633300Y-110377400D01*
X146192100Y-110352000D02*
X147487500Y-110352000D01*
X144312500Y-110352000D02*
X145633300Y-110352000D01*
X146166700Y-110326600D02*
X147512900Y-110326600D01*
X144287100Y-110326600D02*
X145658700Y-110326600D01*
X146166700Y-110301200D02*
X147512900Y-110301200D01*
X144287100Y-110301200D02*
X145658700Y-110301200D01*
X146166700Y-110275800D02*
X147512900Y-110275800D01*
X144261700Y-110275800D02*
X145658700Y-110275800D01*
X146141300Y-110250400D02*
X147538300Y-110250400D01*
X144261700Y-110250400D02*
X145684100Y-110250400D01*
X146141300Y-110225000D02*
X147538300Y-110225000D01*
X144261700Y-110225000D02*
X145684100Y-110225000D01*
X146141300Y-110199600D02*
X147563700Y-110199600D01*
X144236300Y-110199600D02*
X145684100Y-110199600D01*
X146141300Y-110174200D02*
X147563700Y-110174200D01*
X144236300Y-110174200D02*
X145658700Y-110174200D01*
X146192100Y-110148800D02*
X147563700Y-110148800D01*
X144236300Y-110148800D02*
X145607900Y-110148800D01*
X146242900Y-110123400D02*
X147589100Y-110123400D01*
X144210900Y-110123400D02*
X145557100Y-110123400D01*
X146268300Y-110098000D02*
X147589100Y-110098000D01*
X144210900Y-110098000D02*
X145531700Y-110098000D01*
X146293700Y-110072600D02*
X147589100Y-110072600D01*
X144210900Y-110072600D02*
X145506300Y-110072600D01*
X146344500Y-110047200D02*
X147589100Y-110047200D01*
X144210900Y-110047200D02*
X145455500Y-110047200D01*
X146369900Y-110021800D02*
X147614500Y-110021800D01*
X144185500Y-110021800D02*
X145455500Y-110021800D01*
X146369900Y-109996400D02*
X147614500Y-109996400D01*
X144083900Y-109996400D02*
X145430100Y-109996400D01*
X146395300Y-109971000D02*
X147614500Y-109971000D01*
X143956900Y-109971000D02*
X145404700Y-109971000D01*
X146420700Y-109945600D02*
X147716100Y-109945600D01*
X143804500Y-109945600D02*
X145379300Y-109945600D01*
X146446100Y-109920200D02*
X147893900Y-109920200D01*
X143677500Y-109920200D02*
X145379300Y-109920200D01*
X146446100Y-109894800D02*
X148046300Y-109894800D01*
X143575900Y-109894800D02*
X145353900Y-109894800D01*
X146471500Y-109869400D02*
X148198700Y-109869400D01*
X143575900Y-109869400D02*
X145328500Y-109869400D01*
X146471500Y-109844000D02*
X148224100Y-109844000D01*
X143575900Y-109844000D02*
X145328500Y-109844000D01*
X146496900Y-109818600D02*
X148224100Y-109818600D01*
X143575900Y-109818600D02*
X145328500Y-109818600D01*
X146496900Y-109793200D02*
X148224100Y-109793200D01*
X143575900Y-109793200D02*
X145303100Y-109793200D01*
X146496900Y-109767800D02*
X148249500Y-109767800D01*
X143575900Y-109767800D02*
X145303100Y-109767800D01*
X146522300Y-109742400D02*
X148249500Y-109742400D01*
X143550500Y-109742400D02*
X145303100Y-109742400D01*
X146522300Y-109717000D02*
X148249500Y-109717000D01*
X143550500Y-109717000D02*
X145277700Y-109717000D01*
X146522300Y-109691600D02*
X148249500Y-109691600D01*
X143550500Y-109691600D02*
X145277700Y-109691600D01*
X146522300Y-109666200D02*
X148249500Y-109666200D01*
X143550500Y-109666200D02*
X145277700Y-109666200D01*
X146522300Y-109640800D02*
X148249500Y-109640800D01*
X143550500Y-109640800D02*
X145277700Y-109640800D01*
X146522300Y-109615400D02*
X148249500Y-109615400D01*
X143550500Y-109615400D02*
X145277700Y-109615400D01*
X146522300Y-109590000D02*
X148249500Y-109590000D01*
X143550500Y-109590000D02*
X145277700Y-109590000D01*
X146522300Y-109564600D02*
X148249500Y-109564600D01*
X143550500Y-109564600D02*
X145277700Y-109564600D01*
X146522300Y-109539200D02*
X148249500Y-109539200D01*
X143550500Y-109539200D02*
X145277700Y-109539200D01*
X146522300Y-109513800D02*
X148249500Y-109513800D01*
X143575900Y-109513800D02*
X145277700Y-109513800D01*
X146522300Y-109488400D02*
X148224100Y-109488400D01*
X143575900Y-109488400D02*
X145277700Y-109488400D01*
X146522300Y-109463000D02*
X148224100Y-109463000D01*
X143575900Y-109463000D02*
X145303100Y-109463000D01*
X146496900Y-109437600D02*
X148224100Y-109437600D01*
X143575900Y-109437600D02*
X145303100Y-109437600D01*
X146496900Y-109412200D02*
X148224100Y-109412200D01*
X143575900Y-109412200D02*
X145303100Y-109412200D01*
X146496900Y-109386800D02*
X148224100Y-109386800D01*
X143575900Y-109386800D02*
X145303100Y-109386800D01*
X146471500Y-109361400D02*
X148224100Y-109361400D01*
X143575900Y-109361400D02*
X145328500Y-109361400D01*
X146471500Y-109336000D02*
X148224100Y-109336000D01*
X143575900Y-109336000D02*
X145328500Y-109336000D01*
X146446100Y-109310600D02*
X148224100Y-109310600D01*
X143575900Y-109310600D02*
X145353900Y-109310600D01*
X146446100Y-109285200D02*
X148224100Y-109285200D01*
X143601300Y-109285200D02*
X145353900Y-109285200D01*
X146420700Y-109259800D02*
X148198700Y-109259800D01*
X143728300Y-109259800D02*
X145379300Y-109259800D01*
X146395300Y-109234400D02*
X148198700Y-109234400D01*
X143880700Y-109234400D02*
X145404700Y-109234400D01*
X146395300Y-109209000D02*
X148097100Y-109209000D01*
X144033100Y-109209000D02*
X145404700Y-109209000D01*
X146369900Y-109183600D02*
X147944700Y-109183600D01*
X144185500Y-109183600D02*
X145430100Y-109183600D01*
X146344500Y-109158200D02*
X147817700Y-109158200D01*
X144210900Y-109158200D02*
X145455500Y-109158200D01*
X146319100Y-109132800D02*
X147665300Y-109132800D01*
X144210900Y-109132800D02*
X145480900Y-109132800D01*
X146293700Y-109107400D02*
X147589100Y-109107400D01*
X144210900Y-109107400D02*
X145506300Y-109107400D01*
X146242900Y-109082000D02*
X147563700Y-109082000D01*
X144236300Y-109082000D02*
X145557100Y-109082000D01*
X146217500Y-109056600D02*
X147563700Y-109056600D01*
X144236300Y-109056600D02*
X145582500Y-109056600D01*
X146166700Y-109031200D02*
X147563700Y-109031200D01*
X144236300Y-109031200D02*
X145633300Y-109031200D01*
X146090500Y-109005800D02*
X147538300Y-109005800D01*
X144261700Y-109005800D02*
X145709500Y-109005800D01*
X146014300Y-108980400D02*
X147538300Y-108980400D01*
X144261700Y-108980400D02*
X145785700Y-108980400D01*
X144261700Y-108955000D02*
X147512900Y-108955000D01*
X144287100Y-108929600D02*
X147512900Y-108929600D01*
X144287100Y-108904200D02*
X147512900Y-108904200D01*
X144312500Y-108878800D02*
X147487500Y-108878800D01*
X144312500Y-108853400D02*
X147487500Y-108853400D01*
X144337900Y-108828000D02*
X147462100Y-108828000D01*
X144337900Y-108802600D02*
X147462100Y-108802600D01*
X144363300Y-108777200D02*
X147436700Y-108777200D01*
X144363300Y-108751800D02*
X147436700Y-108751800D01*
X144388700Y-108726400D02*
X147411300Y-108726400D01*
X144388700Y-108701000D02*
X147385900Y-108701000D01*
X144388700Y-108675600D02*
X147385900Y-108675600D01*
X144363300Y-108650200D02*
X147411300Y-108650200D01*
X144363300Y-108624800D02*
X147411300Y-108624800D01*
X144337900Y-108599400D02*
X147436700Y-108599400D01*
X144312500Y-108574000D02*
X147462100Y-108574000D01*
X144312500Y-108548600D02*
X147487500Y-108548600D01*
X144287100Y-108523200D02*
X147487500Y-108523200D01*
X144261700Y-108497800D02*
X147512900Y-108497800D01*
X144261700Y-108472400D02*
X147538300Y-108472400D01*
X144236300Y-108447000D02*
X147563700Y-108447000D01*
X144210900Y-108421600D02*
X147563700Y-108421600D01*
X144210900Y-108396200D02*
X147589100Y-108396200D01*
X144185500Y-108370800D02*
X147614500Y-108370800D01*
X144160100Y-108345400D02*
X147614500Y-108345400D01*
X144134700Y-108320000D02*
X147639900Y-108320000D01*
X144134700Y-108294600D02*
X147665300Y-108294600D01*
X144109300Y-108269200D02*
X147690700Y-108269200D01*
X144083900Y-108243800D02*
X147690700Y-108243800D01*
X144083900Y-108218400D02*
X147716100Y-108218400D01*
X144058500Y-108193000D02*
X147716100Y-108193000D01*
X144058500Y-108167600D02*
X147716100Y-108167600D01*
X144083900Y-108142200D02*
X147716100Y-108142200D01*
X144083900Y-108116800D02*
X147690700Y-108116800D01*
X145023700Y-108091400D02*
X147690700Y-108091400D01*
X144109300Y-108091400D02*
X144998300Y-108091400D01*
X146776300Y-108066000D02*
X147665300Y-108066000D01*
X145074500Y-108066000D02*
X146725500Y-108066000D01*
X144134700Y-108066000D02*
X144972900Y-108066000D01*
X146827100Y-108040600D02*
X147639900Y-108040600D01*
X145125300Y-108040600D02*
X146674700Y-108040600D01*
X144160100Y-108040600D02*
X144922100Y-108040600D01*
X146852500Y-108015200D02*
X147614500Y-108015200D01*
X145176100Y-108015200D02*
X146623900Y-108015200D01*
X144185500Y-108015200D02*
X144896700Y-108015200D01*
X146877900Y-107989800D02*
X147589100Y-107989800D01*
X145226900Y-107989800D02*
X146547700Y-107989800D01*
X144210900Y-107989800D02*
X144871300Y-107989800D01*
X146928700Y-107964400D02*
X147563700Y-107964400D01*
X145303100Y-107964400D02*
X146496900Y-107964400D01*
X144236300Y-107964400D02*
X144820500Y-107964400D01*
X146954100Y-107939000D02*
X147538300Y-107939000D01*
X145379300Y-107939000D02*
X146420700Y-107939000D01*
X144261700Y-107939000D02*
X144795100Y-107939000D01*
X147004900Y-107913600D02*
X147512900Y-107913600D01*
X145455500Y-107913600D02*
X146319100Y-107913600D01*
X144287100Y-107913600D02*
X144744300Y-107913600D01*
X147030300Y-107888200D02*
X147487500Y-107888200D01*
X145480900Y-107888200D02*
X146319100Y-107888200D01*
X144312500Y-107888200D02*
X144718900Y-107888200D01*
X147081100Y-107862800D02*
X147462100Y-107862800D01*
X145480900Y-107862800D02*
X146319100Y-107862800D01*
X144337900Y-107862800D02*
X144693500Y-107862800D01*
X147106500Y-107837400D02*
X147436700Y-107837400D01*
X145480900Y-107837400D02*
X146319100Y-107837400D01*
X144363300Y-107837400D02*
X144642700Y-107837400D01*
X147157300Y-107812000D02*
X147385900Y-107812000D01*
X145480900Y-107812000D02*
X146293700Y-107812000D01*
X144414100Y-107812000D02*
X144617300Y-107812000D01*
X147182700Y-107786600D02*
X147360500Y-107786600D01*
X145480900Y-107786600D02*
X146293700Y-107786600D01*
X144439500Y-107786600D02*
X144566500Y-107786600D01*
X147233500Y-107761200D02*
X147335100Y-107761200D01*
X145506300Y-107761200D02*
X146293700Y-107761200D01*
X144464900Y-107761200D02*
X144541100Y-107761200D01*
X145506300Y-107735800D02*
X146293700Y-107735800D01*
X145506300Y-107710400D02*
X146293700Y-107710400D01*
X145506300Y-107685000D02*
X146293700Y-107685000D01*
X145506300Y-107659600D02*
X146293700Y-107659600D01*
X145506300Y-107634200D02*
X146268300Y-107634200D01*
X145531700Y-107608800D02*
X146268300Y-107608800D01*
X145531700Y-107583400D02*
X146268300Y-107583400D01*
X145531700Y-107558000D02*
X146268300Y-107558000D01*
X145531700Y-107532600D02*
X146268300Y-107532600D01*
X145531700Y-107507200D02*
X146268300Y-107507200D01*
X145557100Y-107481800D02*
X146242900Y-107481800D01*
X145557100Y-107456400D02*
X146242900Y-107456400D01*
X145557100Y-107431000D02*
X146242900Y-107431000D01*
X145557100Y-107405600D02*
X146242900Y-107405600D01*
X145557100Y-107380200D02*
X146242900Y-107380200D01*
X145557100Y-107354800D02*
X146242900Y-107354800D01*
X145582500Y-107329400D02*
X146217500Y-107329400D01*
X145582500Y-107304000D02*
X146217500Y-107304000D01*
X145734900Y-107278600D02*
X145988900Y-107278600D01*
G04 #@! TO.C,J1*
D15*
X162136666Y-95972380D02*
X162136666Y-96686666D01*
X162089047Y-96829523D01*
X161993809Y-96924761D01*
X161850952Y-96972380D01*
X161755714Y-96972380D01*
X163136666Y-96972380D02*
X162565238Y-96972380D01*
X162850952Y-96972380D02*
X162850952Y-95972380D01*
X162755714Y-96115238D01*
X162660476Y-96210476D01*
X162565238Y-96258095D01*
G04 #@! TO.C,P1*
D12*
X130111904Y-96952380D02*
X130111904Y-95952380D01*
X130492857Y-95952380D01*
X130588095Y-96000000D01*
X130635714Y-96047619D01*
X130683333Y-96142857D01*
X130683333Y-96285714D01*
X130635714Y-96380952D01*
X130588095Y-96428571D01*
X130492857Y-96476190D01*
X130111904Y-96476190D01*
X131635714Y-96952380D02*
X131064285Y-96952380D01*
X131350000Y-96952380D02*
X131350000Y-95952380D01*
X131254761Y-96095238D01*
X131159523Y-96190476D01*
X131064285Y-96238095D01*
G04 #@! TO.C,R1*
D11*
X152444714Y-104127000D02*
X152081857Y-104381000D01*
X152444714Y-104562428D02*
X151682714Y-104562428D01*
X151682714Y-104272142D01*
X151719000Y-104199571D01*
X151755285Y-104163285D01*
X151827857Y-104127000D01*
X151936714Y-104127000D01*
X152009285Y-104163285D01*
X152045571Y-104199571D01*
X152081857Y-104272142D01*
X152081857Y-104562428D01*
X152444714Y-103401285D02*
X152444714Y-103836714D01*
X152444714Y-103619000D02*
X151682714Y-103619000D01*
X151791571Y-103691571D01*
X151864142Y-103764142D01*
X151900428Y-103836714D01*
G04 #@! TO.C,U1*
X148419428Y-96712714D02*
X148419428Y-97329571D01*
X148455714Y-97402142D01*
X148492000Y-97438428D01*
X148564571Y-97474714D01*
X148709714Y-97474714D01*
X148782285Y-97438428D01*
X148818571Y-97402142D01*
X148854857Y-97329571D01*
X148854857Y-96712714D01*
X149616857Y-97474714D02*
X149181428Y-97474714D01*
X149399142Y-97474714D02*
X149399142Y-96712714D01*
X149326571Y-96821571D01*
X149254000Y-96894142D01*
X149181428Y-96930428D01*
G04 #@! TO.C,Q1*
X148447285Y-105672571D02*
X148411000Y-105745142D01*
X148338428Y-105817714D01*
X148229571Y-105926571D01*
X148193285Y-105999142D01*
X148193285Y-106071714D01*
X148374714Y-106035428D02*
X148338428Y-106108000D01*
X148265857Y-106180571D01*
X148120714Y-106216857D01*
X147866714Y-106216857D01*
X147721571Y-106180571D01*
X147649000Y-106108000D01*
X147612714Y-106035428D01*
X147612714Y-105890285D01*
X147649000Y-105817714D01*
X147721571Y-105745142D01*
X147866714Y-105708857D01*
X148120714Y-105708857D01*
X148265857Y-105745142D01*
X148338428Y-105817714D01*
X148374714Y-105890285D01*
X148374714Y-106035428D01*
X148374714Y-104983142D02*
X148374714Y-105418571D01*
X148374714Y-105200857D02*
X147612714Y-105200857D01*
X147721571Y-105273428D01*
X147794142Y-105346000D01*
X147830428Y-105418571D01*
G04 #@! TO.C,R2*
X141873000Y-97814714D02*
X141619000Y-97451857D01*
X141437571Y-97814714D02*
X141437571Y-97052714D01*
X141727857Y-97052714D01*
X141800428Y-97089000D01*
X141836714Y-97125285D01*
X141873000Y-97197857D01*
X141873000Y-97306714D01*
X141836714Y-97379285D01*
X141800428Y-97415571D01*
X141727857Y-97451857D01*
X141437571Y-97451857D01*
X142163285Y-97125285D02*
X142199571Y-97089000D01*
X142272142Y-97052714D01*
X142453571Y-97052714D01*
X142526142Y-97089000D01*
X142562428Y-97125285D01*
X142598714Y-97197857D01*
X142598714Y-97270428D01*
X142562428Y-97379285D01*
X142127000Y-97814714D01*
X142598714Y-97814714D01*
G04 #@! TO.C,R3*
X143854714Y-103747000D02*
X143491857Y-104001000D01*
X143854714Y-104182428D02*
X143092714Y-104182428D01*
X143092714Y-103892142D01*
X143129000Y-103819571D01*
X143165285Y-103783285D01*
X143237857Y-103747000D01*
X143346714Y-103747000D01*
X143419285Y-103783285D01*
X143455571Y-103819571D01*
X143491857Y-103892142D01*
X143491857Y-104182428D01*
X143092714Y-103493000D02*
X143092714Y-103021285D01*
X143383000Y-103275285D01*
X143383000Y-103166428D01*
X143419285Y-103093857D01*
X143455571Y-103057571D01*
X143528142Y-103021285D01*
X143709571Y-103021285D01*
X143782142Y-103057571D01*
X143818428Y-103093857D01*
X143854714Y-103166428D01*
X143854714Y-103384142D01*
X143818428Y-103456714D01*
X143782142Y-103493000D01*
G04 #@! TO.C,U2*
D16*
X139419428Y-102583734D02*
X139419428Y-103200591D01*
X139455714Y-103273162D01*
X139492000Y-103309448D01*
X139564571Y-103345734D01*
X139709714Y-103345734D01*
X139782285Y-103309448D01*
X139818571Y-103273162D01*
X139854857Y-103200591D01*
X139854857Y-102583734D01*
X140181428Y-102656305D02*
X140217714Y-102620020D01*
X140290285Y-102583734D01*
X140471714Y-102583734D01*
X140544285Y-102620020D01*
X140580571Y-102656305D01*
X140616857Y-102728877D01*
X140616857Y-102801448D01*
X140580571Y-102910305D01*
X140145142Y-103345734D01*
X140616857Y-103345734D01*
G04 #@! TO.C,C1*
D11*
X140052142Y-110567000D02*
X140088428Y-110603285D01*
X140124714Y-110712142D01*
X140124714Y-110784714D01*
X140088428Y-110893571D01*
X140015857Y-110966142D01*
X139943285Y-111002428D01*
X139798142Y-111038714D01*
X139689285Y-111038714D01*
X139544142Y-111002428D01*
X139471571Y-110966142D01*
X139399000Y-110893571D01*
X139362714Y-110784714D01*
X139362714Y-110712142D01*
X139399000Y-110603285D01*
X139435285Y-110567000D01*
X140124714Y-109841285D02*
X140124714Y-110276714D01*
X140124714Y-110059000D02*
X139362714Y-110059000D01*
X139471571Y-110131571D01*
X139544142Y-110204142D01*
X139580428Y-110276714D01*
G04 #@! TO.C,C2*
X140453000Y-109102142D02*
X140416714Y-109138428D01*
X140307857Y-109174714D01*
X140235285Y-109174714D01*
X140126428Y-109138428D01*
X140053857Y-109065857D01*
X140017571Y-108993285D01*
X139981285Y-108848142D01*
X139981285Y-108739285D01*
X140017571Y-108594142D01*
X140053857Y-108521571D01*
X140126428Y-108449000D01*
X140235285Y-108412714D01*
X140307857Y-108412714D01*
X140416714Y-108449000D01*
X140453000Y-108485285D01*
X140743285Y-108485285D02*
X140779571Y-108449000D01*
X140852142Y-108412714D01*
X141033571Y-108412714D01*
X141106142Y-108449000D01*
X141142428Y-108485285D01*
X141178714Y-108557857D01*
X141178714Y-108630428D01*
X141142428Y-108739285D01*
X140707000Y-109174714D01*
X141178714Y-109174714D01*
G04 #@! TO.C,C3*
X138963000Y-101522142D02*
X138926714Y-101558428D01*
X138817857Y-101594714D01*
X138745285Y-101594714D01*
X138636428Y-101558428D01*
X138563857Y-101485857D01*
X138527571Y-101413285D01*
X138491285Y-101268142D01*
X138491285Y-101159285D01*
X138527571Y-101014142D01*
X138563857Y-100941571D01*
X138636428Y-100869000D01*
X138745285Y-100832714D01*
X138817857Y-100832714D01*
X138926714Y-100869000D01*
X138963000Y-100905285D01*
X139217000Y-100832714D02*
X139688714Y-100832714D01*
X139434714Y-101123000D01*
X139543571Y-101123000D01*
X139616142Y-101159285D01*
X139652428Y-101195571D01*
X139688714Y-101268142D01*
X139688714Y-101449571D01*
X139652428Y-101522142D01*
X139616142Y-101558428D01*
X139543571Y-101594714D01*
X139325857Y-101594714D01*
X139253285Y-101558428D01*
X139217000Y-101522142D01*
G04 #@! TD*
M02*
