G04 #@! TF.GenerationSoftware,KiCad,Pcbnew,5.0.2*
G04 #@! TF.CreationDate,2020-09-01T14:55:28+02:00*
G04 #@! TF.ProjectId,pmod-linky_tic,706d6f64-2d6c-4696-9e6b-795f7469632e,1*
G04 #@! TF.SameCoordinates,Original*
G04 #@! TF.FileFunction,Copper,L1,Top*
G04 #@! TF.FilePolarity,Positive*
%FSLAX46Y46*%
G04 Gerber Fmt 4.6, Leading zero omitted, Abs format (unit mm)*
G04 Created by KiCad (PCBNEW 5.0.2) date mar. 01 sept. 2020 14:55:28 CEST*
%MOMM*%
%LPD*%
G01*
G04 APERTURE LIST*
G04 #@! TA.AperFunction,NonConductor*
%ADD10C,0.101600*%
G04 #@! TD*
G04 #@! TA.AperFunction,NonConductor*
%ADD11C,0.152400*%
G04 #@! TD*
G04 #@! TA.AperFunction,ComponentPad*
%ADD12R,2.540000X2.540000*%
G04 #@! TD*
G04 #@! TA.AperFunction,ComponentPad*
%ADD13C,2.540000*%
G04 #@! TD*
G04 #@! TA.AperFunction,ComponentPad*
%ADD14R,2.000000X1.900000*%
G04 #@! TD*
G04 #@! TA.AperFunction,ComponentPad*
%ADD15C,1.900000*%
G04 #@! TD*
G04 #@! TA.AperFunction,SMDPad,CuDef*
%ADD16R,1.397000X0.889000*%
G04 #@! TD*
G04 #@! TA.AperFunction,SMDPad,CuDef*
%ADD17R,1.300000X1.500000*%
G04 #@! TD*
G04 #@! TA.AperFunction,SMDPad,CuDef*
%ADD18R,0.914400X0.914400*%
G04 #@! TD*
G04 #@! TA.AperFunction,SMDPad,CuDef*
%ADD19R,0.635000X1.143000*%
G04 #@! TD*
G04 #@! TA.AperFunction,SMDPad,CuDef*
%ADD20R,1.143000X0.635000*%
G04 #@! TD*
G04 #@! TA.AperFunction,SMDPad,CuDef*
%ADD21R,1.000760X0.701040*%
G04 #@! TD*
G04 #@! TA.AperFunction,ComponentPad*
%ADD22C,1.399540*%
G04 #@! TD*
G04 #@! TA.AperFunction,ViaPad*
%ADD23C,0.711200*%
G04 #@! TD*
G04 #@! TA.AperFunction,Conductor*
%ADD24C,0.406400*%
G04 #@! TD*
G04 #@! TA.AperFunction,Conductor*
%ADD25C,0.152400*%
G04 #@! TD*
G04 APERTURE END LIST*
D10*
X149534800Y-114821733D02*
X149534800Y-114347600D01*
X149534800Y-114483066D02*
X149568666Y-114415333D01*
X149602533Y-114381466D01*
X149670266Y-114347600D01*
X149738000Y-114347600D01*
X150246000Y-114787866D02*
X150178266Y-114821733D01*
X150042800Y-114821733D01*
X149975066Y-114787866D01*
X149941200Y-114720133D01*
X149941200Y-114449200D01*
X149975066Y-114381466D01*
X150042800Y-114347600D01*
X150178266Y-114347600D01*
X150246000Y-114381466D01*
X150279866Y-114449200D01*
X150279866Y-114516933D01*
X149941200Y-114584666D01*
X150516933Y-114347600D02*
X150686266Y-114821733D01*
X150855600Y-114347600D01*
X151499066Y-114821733D02*
X151092666Y-114821733D01*
X151295866Y-114821733D02*
X151295866Y-114110533D01*
X151228133Y-114212133D01*
X151160400Y-114279866D01*
X151092666Y-114313733D01*
X154940133Y-114368533D02*
X155278800Y-114368533D01*
X154872400Y-114571733D02*
X155109466Y-113860533D01*
X155346533Y-114571733D01*
X155888400Y-114097600D02*
X155888400Y-114673333D01*
X155854533Y-114741066D01*
X155820666Y-114774933D01*
X155752933Y-114808800D01*
X155651333Y-114808800D01*
X155583600Y-114774933D01*
X155888400Y-114537866D02*
X155820666Y-114571733D01*
X155685200Y-114571733D01*
X155617466Y-114537866D01*
X155583600Y-114504000D01*
X155549733Y-114436266D01*
X155549733Y-114233066D01*
X155583600Y-114165333D01*
X155617466Y-114131466D01*
X155685200Y-114097600D01*
X155820666Y-114097600D01*
X155888400Y-114131466D01*
X156227066Y-114571733D02*
X156227066Y-114097600D01*
X156227066Y-113860533D02*
X156193200Y-113894400D01*
X156227066Y-113928266D01*
X156260933Y-113894400D01*
X156227066Y-113860533D01*
X156227066Y-113928266D01*
X156667333Y-114571733D02*
X156599600Y-114537866D01*
X156565733Y-114470133D01*
X156565733Y-113860533D01*
X157243066Y-114571733D02*
X157243066Y-114199200D01*
X157209200Y-114131466D01*
X157141466Y-114097600D01*
X157006000Y-114097600D01*
X156938266Y-114131466D01*
X157243066Y-114537866D02*
X157175333Y-114571733D01*
X157006000Y-114571733D01*
X156938266Y-114537866D01*
X156904400Y-114470133D01*
X156904400Y-114402400D01*
X156938266Y-114334666D01*
X157006000Y-114300800D01*
X157175333Y-114300800D01*
X157243066Y-114266933D01*
X157886533Y-114537866D02*
X157818800Y-114571733D01*
X157683333Y-114571733D01*
X157615600Y-114537866D01*
X157581733Y-114504000D01*
X157547866Y-114436266D01*
X157547866Y-114233066D01*
X157581733Y-114165333D01*
X157615600Y-114131466D01*
X157683333Y-114097600D01*
X157818800Y-114097600D01*
X157886533Y-114131466D01*
X158191333Y-114571733D02*
X158191333Y-113860533D01*
X158259066Y-114300800D02*
X158462266Y-114571733D01*
X158462266Y-114097600D02*
X158191333Y-114368533D01*
X159715333Y-114504000D02*
X159681466Y-114537866D01*
X159579866Y-114571733D01*
X159512133Y-114571733D01*
X159410533Y-114537866D01*
X159342800Y-114470133D01*
X159308933Y-114402400D01*
X159275066Y-114266933D01*
X159275066Y-114165333D01*
X159308933Y-114029866D01*
X159342800Y-113962133D01*
X159410533Y-113894400D01*
X159512133Y-113860533D01*
X159579866Y-113860533D01*
X159681466Y-113894400D01*
X159715333Y-113928266D01*
X160426533Y-114504000D02*
X160392666Y-114537866D01*
X160291066Y-114571733D01*
X160223333Y-114571733D01*
X160121733Y-114537866D01*
X160054000Y-114470133D01*
X160020133Y-114402400D01*
X159986266Y-114266933D01*
X159986266Y-114165333D01*
X160020133Y-114029866D01*
X160054000Y-113962133D01*
X160121733Y-113894400D01*
X160223333Y-113860533D01*
X160291066Y-113860533D01*
X160392666Y-113894400D01*
X160426533Y-113928266D01*
X160731333Y-114300800D02*
X161273200Y-114300800D01*
X161611866Y-114571733D02*
X161611866Y-113860533D01*
X161611866Y-114131466D02*
X161679600Y-114097600D01*
X161815066Y-114097600D01*
X161882800Y-114131466D01*
X161916666Y-114165333D01*
X161950533Y-114233066D01*
X161950533Y-114436266D01*
X161916666Y-114504000D01*
X161882800Y-114537866D01*
X161815066Y-114571733D01*
X161679600Y-114571733D01*
X161611866Y-114537866D01*
X162187600Y-114097600D02*
X162356933Y-114571733D01*
X162526266Y-114097600D02*
X162356933Y-114571733D01*
X162289200Y-114741066D01*
X162255333Y-114774933D01*
X162187600Y-114808800D01*
X162797200Y-114300800D02*
X163339066Y-114300800D01*
X163643866Y-114537866D02*
X163745466Y-114571733D01*
X163914800Y-114571733D01*
X163982533Y-114537866D01*
X164016400Y-114504000D01*
X164050266Y-114436266D01*
X164050266Y-114368533D01*
X164016400Y-114300800D01*
X163982533Y-114266933D01*
X163914800Y-114233066D01*
X163779333Y-114199200D01*
X163711600Y-114165333D01*
X163677733Y-114131466D01*
X163643866Y-114063733D01*
X163643866Y-113996000D01*
X163677733Y-113928266D01*
X163711600Y-113894400D01*
X163779333Y-113860533D01*
X163948666Y-113860533D01*
X164050266Y-113894400D01*
X164321200Y-114368533D02*
X164659866Y-114368533D01*
X164253466Y-114571733D02*
X164490533Y-113860533D01*
X164727600Y-114571733D01*
D11*
X137938571Y-113407142D02*
X137938571Y-112507142D01*
X138281428Y-112507142D01*
X138367142Y-112550000D01*
X138410000Y-112592857D01*
X138452857Y-112678571D01*
X138452857Y-112807142D01*
X138410000Y-112892857D01*
X138367142Y-112935714D01*
X138281428Y-112978571D01*
X137938571Y-112978571D01*
X138838571Y-113407142D02*
X138838571Y-112507142D01*
X139138571Y-113150000D01*
X139438571Y-112507142D01*
X139438571Y-113407142D01*
X140038571Y-112507142D02*
X140210000Y-112507142D01*
X140295714Y-112550000D01*
X140381428Y-112635714D01*
X140424285Y-112807142D01*
X140424285Y-113107142D01*
X140381428Y-113278571D01*
X140295714Y-113364285D01*
X140210000Y-113407142D01*
X140038571Y-113407142D01*
X139952857Y-113364285D01*
X139867142Y-113278571D01*
X139824285Y-113107142D01*
X139824285Y-112807142D01*
X139867142Y-112635714D01*
X139952857Y-112550000D01*
X140038571Y-112507142D01*
X140810000Y-113407142D02*
X140810000Y-112507142D01*
X141024285Y-112507142D01*
X141152857Y-112550000D01*
X141238571Y-112635714D01*
X141281428Y-112721428D01*
X141324285Y-112892857D01*
X141324285Y-113021428D01*
X141281428Y-113192857D01*
X141238571Y-113278571D01*
X141152857Y-113364285D01*
X141024285Y-113407142D01*
X140810000Y-113407142D01*
X141710000Y-113064285D02*
X142395714Y-113064285D01*
X143252857Y-113407142D02*
X142824285Y-113407142D01*
X142824285Y-112507142D01*
X143552857Y-113407142D02*
X143552857Y-112807142D01*
X143552857Y-112507142D02*
X143510000Y-112550000D01*
X143552857Y-112592857D01*
X143595714Y-112550000D01*
X143552857Y-112507142D01*
X143552857Y-112592857D01*
X143981428Y-112807142D02*
X143981428Y-113407142D01*
X143981428Y-112892857D02*
X144024285Y-112850000D01*
X144110000Y-112807142D01*
X144238571Y-112807142D01*
X144324285Y-112850000D01*
X144367142Y-112935714D01*
X144367142Y-113407142D01*
X144795714Y-113407142D02*
X144795714Y-112507142D01*
X144881428Y-113064285D02*
X145138571Y-113407142D01*
X145138571Y-112807142D02*
X144795714Y-113150000D01*
X145438571Y-112807142D02*
X145652857Y-113407142D01*
X145867142Y-112807142D02*
X145652857Y-113407142D01*
X145567142Y-113621428D01*
X145524285Y-113664285D01*
X145438571Y-113707142D01*
X145995714Y-113492857D02*
X146681428Y-113492857D01*
X146767142Y-112507142D02*
X147281428Y-112507142D01*
X147024285Y-113407142D02*
X147024285Y-112507142D01*
X147581428Y-113407142D02*
X147581428Y-112507142D01*
X148524285Y-113321428D02*
X148481428Y-113364285D01*
X148352857Y-113407142D01*
X148267142Y-113407142D01*
X148138571Y-113364285D01*
X148052857Y-113278571D01*
X148010000Y-113192857D01*
X147967142Y-113021428D01*
X147967142Y-112892857D01*
X148010000Y-112721428D01*
X148052857Y-112635714D01*
X148138571Y-112550000D01*
X148267142Y-112507142D01*
X148352857Y-112507142D01*
X148481428Y-112550000D01*
X148524285Y-112592857D01*
D12*
G04 #@! TO.P,J1,1*
G04 #@! TO.N,/TIC_A*
X162470000Y-110080000D03*
D13*
G04 #@! TO.P,J1,3*
G04 #@! TO.N,GNDGRID*
X162470000Y-99920000D03*
G04 #@! TO.P,J1,2*
G04 #@! TO.N,/TIC_I2*
X162470000Y-105000000D03*
G04 #@! TD*
D14*
G04 #@! TO.P,P1,1*
G04 #@! TO.N,Net-(P1-Pad1)*
X136040000Y-98650000D03*
D15*
G04 #@! TO.P,P1,2*
G04 #@! TO.N,Net-(P1-Pad2)*
X136040000Y-101190000D03*
G04 #@! TO.P,P1,3*
G04 #@! TO.N,PMOD_RXD*
X136040000Y-103730000D03*
G04 #@! TO.P,P1,4*
G04 #@! TO.N,Net-(P1-Pad4)*
X136040000Y-106270000D03*
G04 #@! TO.P,P1,5*
G04 #@! TO.N,GND*
X136040000Y-108810000D03*
G04 #@! TO.P,P1,6*
G04 #@! TO.N,VCC*
X136040000Y-111350000D03*
G04 #@! TO.P,P1,7*
G04 #@! TO.N,Net-(P1-Pad7)*
X133500000Y-98650000D03*
G04 #@! TO.P,P1,8*
G04 #@! TO.N,Net-(P1-Pad8)*
X133500000Y-101190000D03*
G04 #@! TO.P,P1,9*
G04 #@! TO.N,Net-(P1-Pad9)*
X133500000Y-103730000D03*
G04 #@! TO.P,P1,10*
G04 #@! TO.N,Net-(P1-Pad10)*
X133500000Y-106270000D03*
G04 #@! TO.P,P1,11*
G04 #@! TO.N,GND*
X133500000Y-108810000D03*
G04 #@! TO.P,P1,12*
G04 #@! TO.N,VCC*
X133500000Y-111350000D03*
G04 #@! TD*
D16*
G04 #@! TO.P,R1,1*
G04 #@! TO.N,/TIC_I2*
X153500000Y-104952500D03*
G04 #@! TO.P,R1,2*
G04 #@! TO.N,Net-(R1-Pad2)*
X153500000Y-103047500D03*
G04 #@! TD*
D17*
G04 #@! TO.P,U1,4*
G04 #@! TO.N,VCC*
X144500000Y-101270000D03*
G04 #@! TO.P,U1,3*
G04 #@! TO.N,Net-(Q1-Pad1)*
X144500000Y-98730000D03*
G04 #@! TO.P,U1,2*
G04 #@! TO.N,GNDGRID*
X153500000Y-98730000D03*
G04 #@! TO.P,U1,1*
G04 #@! TO.N,Net-(R1-Pad2)*
X153500000Y-101270000D03*
G04 #@! TD*
D18*
G04 #@! TO.P,Q1,2*
G04 #@! TO.N,GND*
X146766000Y-104111000D03*
G04 #@! TO.P,Q1,1*
G04 #@! TO.N,Net-(Q1-Pad1)*
X146766000Y-105889000D03*
G04 #@! TO.P,Q1,3*
G04 #@! TO.N,Net-(Q1-Pad3)*
X144734000Y-105000000D03*
G04 #@! TD*
D19*
G04 #@! TO.P,R2,1*
G04 #@! TO.N,Net-(Q1-Pad1)*
X142762000Y-98750000D03*
G04 #@! TO.P,R2,2*
G04 #@! TO.N,GND*
X141238000Y-98750000D03*
G04 #@! TD*
D20*
G04 #@! TO.P,R3,2*
G04 #@! TO.N,Net-(Q1-Pad3)*
X143000000Y-104988000D03*
G04 #@! TO.P,R3,1*
G04 #@! TO.N,VCC*
X143000000Y-106512000D03*
G04 #@! TD*
D21*
G04 #@! TO.P,U2,5*
G04 #@! TO.N,VCC*
X138730000Y-105952500D03*
G04 #@! TO.P,U2,4*
G04 #@! TO.N,PMOD_RXD*
X138730000Y-104047500D03*
G04 #@! TO.P,U2,3*
G04 #@! TO.N,GND*
X141270000Y-104047500D03*
G04 #@! TO.P,U2,2*
G04 #@! TO.N,Net-(Q1-Pad3)*
X141270000Y-105000000D03*
G04 #@! TO.P,U2,1*
G04 #@! TO.N,N/C*
X141270000Y-105952500D03*
G04 #@! TD*
D16*
G04 #@! TO.P,C1,1*
G04 #@! TO.N,VCC*
X138250000Y-111032500D03*
G04 #@! TO.P,C1,2*
G04 #@! TO.N,GND*
X138250000Y-109127500D03*
G04 #@! TD*
D19*
G04 #@! TO.P,C2,1*
G04 #@! TO.N,VCC*
X139238000Y-107500000D03*
G04 #@! TO.P,C2,2*
G04 #@! TO.N,GND*
X140762000Y-107500000D03*
G04 #@! TD*
G04 #@! TO.P,C3,2*
G04 #@! TO.N,GND*
X141238000Y-101250000D03*
G04 #@! TO.P,C3,1*
G04 #@! TO.N,VCC*
X142762000Y-101250000D03*
G04 #@! TD*
D22*
G04 #@! TO.P,TP1,1*
G04 #@! TO.N,/TIC_A*
X153750000Y-108810000D03*
G04 #@! TD*
G04 #@! TO.P,TP2,1*
G04 #@! TO.N,GNDGRID*
X153750000Y-112070000D03*
G04 #@! TD*
D23*
G04 #@! TO.N,GND*
X140250000Y-98750000D03*
X147900000Y-104110000D03*
X142400000Y-104050000D03*
X140250000Y-101250000D03*
X141700000Y-107500000D03*
X148500000Y-95500000D03*
X144500000Y-95500000D03*
X140500000Y-95500000D03*
X136500000Y-95500000D03*
X132500000Y-95500000D03*
X148500000Y-114500000D03*
X144500000Y-114500000D03*
X140500000Y-114500000D03*
X136500000Y-114500000D03*
X132500000Y-114500000D03*
X130250000Y-110500000D03*
X130250000Y-105000000D03*
X130250000Y-100000000D03*
X140500000Y-111500000D03*
X148500000Y-111500000D03*
X138250000Y-108000000D03*
G04 #@! TO.N,GNDGRID*
X152750000Y-95500000D03*
X166880000Y-95500000D03*
X166880000Y-114500000D03*
X152750000Y-114500000D03*
X159930000Y-102460000D03*
X166880000Y-105000000D03*
X159930000Y-107540000D03*
G04 #@! TD*
D24*
G04 #@! TO.N,/TIC_A*
X153750000Y-108810000D02*
X158670000Y-108810000D01*
X158670000Y-108810000D02*
X159940000Y-110080000D01*
X159940000Y-110080000D02*
X162470000Y-110080000D01*
G04 #@! TO.N,/TIC_I2*
X153500000Y-104952500D02*
X159682500Y-104952500D01*
X159682500Y-104952500D02*
X159730000Y-105000000D01*
X159730000Y-105000000D02*
X162470000Y-105000000D01*
G04 #@! TO.N,PMOD_RXD*
X136040000Y-103730000D02*
X137460000Y-103730000D01*
X137460000Y-103730000D02*
X137777500Y-104047500D01*
X137777500Y-104047500D02*
X138730000Y-104047500D01*
G04 #@! TO.N,GND*
X141238000Y-98750000D02*
X140250000Y-98750000D01*
X146766000Y-104111000D02*
X147899000Y-104111000D01*
X147899000Y-104111000D02*
X147900000Y-104110000D01*
X141270000Y-104047500D02*
X142397500Y-104047500D01*
X142397500Y-104047500D02*
X142400000Y-104050000D01*
X140250000Y-101250000D02*
X141238000Y-101250000D01*
X140762000Y-107500000D02*
X141700000Y-107500000D01*
X133500000Y-108810000D02*
X134770000Y-110080000D01*
X136040000Y-108810000D02*
X134770000Y-110080000D01*
X138250000Y-109127500D02*
X138250000Y-108000000D01*
X138250000Y-108000000D02*
X136850000Y-108000000D01*
X136850000Y-108000000D02*
X136040000Y-108810000D01*
G04 #@! TO.N,VCC*
X133500000Y-111350000D02*
X136040000Y-111350000D01*
X138250000Y-111032500D02*
X137557500Y-111032500D01*
X137557500Y-111032500D02*
X137240000Y-111350000D01*
X137240000Y-111350000D02*
X136040000Y-111350000D01*
X142762000Y-101250000D02*
X144480000Y-101250000D01*
X144480000Y-101250000D02*
X144500000Y-101270000D01*
X138250000Y-111032500D02*
X139357500Y-111032500D01*
X139357500Y-111032500D02*
X140000000Y-110390000D01*
X140000000Y-110390000D02*
X140000000Y-109100000D01*
X140000000Y-109100000D02*
X140000000Y-107500000D01*
X140000000Y-107500000D02*
X140000000Y-103260000D01*
X140000000Y-103260000D02*
X140440000Y-102820000D01*
X140440000Y-102820000D02*
X142180000Y-102820000D01*
X142180000Y-102820000D02*
X142762000Y-102238000D01*
X142762000Y-102238000D02*
X142762000Y-101250000D01*
X139238000Y-107500000D02*
X140000000Y-107500000D01*
X138730000Y-105952500D02*
X138730000Y-106740000D01*
X138730000Y-106740000D02*
X139238000Y-107248000D01*
X139238000Y-107248000D02*
X139238000Y-107500000D01*
X140000000Y-109100000D02*
X141680000Y-109100000D01*
X141680000Y-109100000D02*
X143000000Y-107780000D01*
X143000000Y-107780000D02*
X143000000Y-106512000D01*
G04 #@! TO.N,GNDGRID*
X153500000Y-98730000D02*
X161280000Y-98730000D01*
X161280000Y-98730000D02*
X162470000Y-99920000D01*
G04 #@! TO.N,Net-(R1-Pad2)*
X153500000Y-103047500D02*
X153500000Y-101270000D01*
G04 #@! TO.N,Net-(Q1-Pad1)*
X142762000Y-98750000D02*
X144480000Y-98750000D01*
X144480000Y-98750000D02*
X144500000Y-98730000D01*
X146766000Y-105889000D02*
X146766000Y-105886000D01*
X146766000Y-105886000D02*
X145750000Y-104870000D01*
X145750000Y-104870000D02*
X145750000Y-99980000D01*
X145750000Y-99980000D02*
X144500000Y-98730000D01*
G04 #@! TO.N,Net-(Q1-Pad3)*
X141270000Y-105000000D02*
X142988000Y-105000000D01*
X142988000Y-105000000D02*
X143000000Y-104988000D01*
X144734000Y-105000000D02*
X143012000Y-105000000D01*
X143012000Y-105000000D02*
X143000000Y-104988000D01*
G04 #@! TD*
D25*
G04 #@! TO.N,GND*
G36*
X148923800Y-112037700D02*
X137371886Y-112037700D01*
X137371886Y-114092500D01*
X148923800Y-114092500D01*
X148923800Y-114856400D01*
X129753600Y-114856400D01*
X129753600Y-111106094D01*
X132273800Y-111106094D01*
X132273800Y-111593906D01*
X132460478Y-112044587D01*
X132805413Y-112389522D01*
X133256094Y-112576200D01*
X133743906Y-112576200D01*
X134194587Y-112389522D01*
X134539522Y-112044587D01*
X134628655Y-111829400D01*
X134911345Y-111829400D01*
X135000478Y-112044587D01*
X135345413Y-112389522D01*
X135796094Y-112576200D01*
X136283906Y-112576200D01*
X136734587Y-112389522D01*
X137079522Y-112044587D01*
X137168655Y-111829400D01*
X137192787Y-111829400D01*
X137240000Y-111838791D01*
X137287213Y-111829400D01*
X137287217Y-111829400D01*
X137427053Y-111801585D01*
X137505162Y-111749394D01*
X137551500Y-111758611D01*
X138948500Y-111758611D01*
X139056268Y-111737175D01*
X139147629Y-111676129D01*
X139208675Y-111584768D01*
X139223169Y-111511900D01*
X139310287Y-111511900D01*
X139357500Y-111521291D01*
X139404713Y-111511900D01*
X139404717Y-111511900D01*
X139544553Y-111484085D01*
X139703128Y-111378128D01*
X139729876Y-111338097D01*
X140305600Y-110762374D01*
X140345628Y-110735628D01*
X140451585Y-110577053D01*
X140479400Y-110437217D01*
X140479400Y-110437214D01*
X140488791Y-110390001D01*
X140479400Y-110342788D01*
X140479400Y-109579400D01*
X141632787Y-109579400D01*
X141680000Y-109588791D01*
X141727213Y-109579400D01*
X141727217Y-109579400D01*
X141867053Y-109551585D01*
X142025628Y-109445628D01*
X142052376Y-109405597D01*
X143305600Y-108152374D01*
X143345628Y-108125628D01*
X143451585Y-107967053D01*
X143479400Y-107827217D01*
X143479400Y-107827213D01*
X143488791Y-107780000D01*
X143479400Y-107732787D01*
X143479400Y-107111111D01*
X143571500Y-107111111D01*
X143679268Y-107089675D01*
X143770629Y-107028629D01*
X143831675Y-106937268D01*
X143853111Y-106829500D01*
X143853111Y-106194500D01*
X143831675Y-106086732D01*
X143770629Y-105995371D01*
X143679268Y-105934325D01*
X143571500Y-105912889D01*
X142428500Y-105912889D01*
X142320732Y-105934325D01*
X142229371Y-105995371D01*
X142168325Y-106086732D01*
X142146889Y-106194500D01*
X142146889Y-106829500D01*
X142168325Y-106937268D01*
X142229371Y-107028629D01*
X142320732Y-107089675D01*
X142428500Y-107111111D01*
X142520601Y-107111111D01*
X142520600Y-107581426D01*
X141481427Y-108620600D01*
X140479400Y-108620600D01*
X140479400Y-108300100D01*
X140546100Y-108300100D01*
X140603250Y-108242950D01*
X140603250Y-107677800D01*
X140920750Y-107677800D01*
X140920750Y-108242950D01*
X140977900Y-108300100D01*
X141124971Y-108300100D01*
X141208991Y-108265298D01*
X141273297Y-108200992D01*
X141308100Y-108116972D01*
X141308100Y-107734950D01*
X141250950Y-107677800D01*
X140920750Y-107677800D01*
X140603250Y-107677800D01*
X140564200Y-107677800D01*
X140564200Y-107322200D01*
X140603250Y-107322200D01*
X140603250Y-106757050D01*
X140920750Y-106757050D01*
X140920750Y-107322200D01*
X141250950Y-107322200D01*
X141308100Y-107265050D01*
X141308100Y-106883028D01*
X141273297Y-106799008D01*
X141208991Y-106734702D01*
X141124971Y-106699900D01*
X140977900Y-106699900D01*
X140920750Y-106757050D01*
X140603250Y-106757050D01*
X140546100Y-106699900D01*
X140479400Y-106699900D01*
X140479400Y-103651509D01*
X140541020Y-103651509D01*
X140541020Y-103815090D01*
X140598170Y-103872240D01*
X141092200Y-103872240D01*
X141092200Y-103525530D01*
X141447800Y-103525530D01*
X141447800Y-103872240D01*
X141941830Y-103872240D01*
X141998980Y-103815090D01*
X141998980Y-103651509D01*
X141964178Y-103567489D01*
X141899872Y-103503183D01*
X141815852Y-103468380D01*
X141504950Y-103468380D01*
X141447800Y-103525530D01*
X141092200Y-103525530D01*
X141035050Y-103468380D01*
X140724148Y-103468380D01*
X140640128Y-103503183D01*
X140575822Y-103567489D01*
X140541020Y-103651509D01*
X140479400Y-103651509D01*
X140479400Y-103458573D01*
X140638574Y-103299400D01*
X142132787Y-103299400D01*
X142180000Y-103308791D01*
X142227213Y-103299400D01*
X142227217Y-103299400D01*
X142367053Y-103271585D01*
X142525628Y-103165628D01*
X142552376Y-103125597D01*
X143067600Y-102610374D01*
X143107628Y-102583628D01*
X143213585Y-102425053D01*
X143241400Y-102285217D01*
X143241400Y-102285214D01*
X143250791Y-102238001D01*
X143241400Y-102190788D01*
X143241400Y-102045505D01*
X143278629Y-102020629D01*
X143339675Y-101929268D01*
X143361111Y-101821500D01*
X143361111Y-101729400D01*
X143568389Y-101729400D01*
X143568389Y-102020000D01*
X143589825Y-102127768D01*
X143650871Y-102219129D01*
X143742232Y-102280175D01*
X143850000Y-102301611D01*
X145150000Y-102301611D01*
X145257768Y-102280175D01*
X145270601Y-102271601D01*
X145270600Y-104276982D01*
X145191200Y-104261189D01*
X144276800Y-104261189D01*
X144169032Y-104282625D01*
X144077671Y-104343671D01*
X144016625Y-104435032D01*
X143999605Y-104520600D01*
X143803523Y-104520600D01*
X143770629Y-104471371D01*
X143679268Y-104410325D01*
X143571500Y-104388889D01*
X142428500Y-104388889D01*
X142320732Y-104410325D01*
X142229371Y-104471371D01*
X142196477Y-104520600D01*
X142016448Y-104520600D01*
X141985948Y-104474953D01*
X141998980Y-104443491D01*
X141998980Y-104279910D01*
X141941830Y-104222760D01*
X141447800Y-104222760D01*
X141447800Y-104245300D01*
X141092200Y-104245300D01*
X141092200Y-104222760D01*
X140598170Y-104222760D01*
X140541020Y-104279910D01*
X140541020Y-104443491D01*
X140554052Y-104474953D01*
X140509445Y-104541712D01*
X140488009Y-104649480D01*
X140488009Y-105350520D01*
X140509445Y-105458288D01*
X140521447Y-105476250D01*
X140509445Y-105494212D01*
X140488009Y-105601980D01*
X140488009Y-106303020D01*
X140509445Y-106410788D01*
X140570491Y-106502149D01*
X140661852Y-106563195D01*
X140769620Y-106584631D01*
X141770380Y-106584631D01*
X141878148Y-106563195D01*
X141969509Y-106502149D01*
X142030555Y-106410788D01*
X142051991Y-106303020D01*
X142051991Y-105601980D01*
X142030555Y-105494212D01*
X142020658Y-105479400D01*
X142212513Y-105479400D01*
X142229371Y-105504629D01*
X142320732Y-105565675D01*
X142428500Y-105587111D01*
X143571500Y-105587111D01*
X143679268Y-105565675D01*
X143770629Y-105504629D01*
X143787487Y-105479400D01*
X143999605Y-105479400D01*
X144016625Y-105564968D01*
X144077671Y-105656329D01*
X144169032Y-105717375D01*
X144276800Y-105738811D01*
X145191200Y-105738811D01*
X145298968Y-105717375D01*
X145390329Y-105656329D01*
X145451375Y-105564968D01*
X145472811Y-105457200D01*
X145472811Y-105270784D01*
X146027189Y-105825163D01*
X146027189Y-106346200D01*
X146048625Y-106453968D01*
X146109671Y-106545329D01*
X146201032Y-106606375D01*
X146308800Y-106627811D01*
X147223200Y-106627811D01*
X147330968Y-106606375D01*
X147422329Y-106545329D01*
X147483375Y-106453968D01*
X147504811Y-106346200D01*
X147504811Y-105431800D01*
X147483375Y-105324032D01*
X147422329Y-105232671D01*
X147330968Y-105171625D01*
X147223200Y-105150189D01*
X146708163Y-105150189D01*
X146354773Y-104796800D01*
X146531050Y-104796800D01*
X146588200Y-104739650D01*
X146588200Y-104288800D01*
X146943800Y-104288800D01*
X146943800Y-104739650D01*
X147000950Y-104796800D01*
X147268672Y-104796800D01*
X147352692Y-104761997D01*
X147416998Y-104697691D01*
X147451800Y-104613671D01*
X147451800Y-104345950D01*
X147394650Y-104288800D01*
X146943800Y-104288800D01*
X146588200Y-104288800D01*
X146568200Y-104288800D01*
X146568200Y-103933200D01*
X146588200Y-103933200D01*
X146588200Y-103482350D01*
X146943800Y-103482350D01*
X146943800Y-103933200D01*
X147394650Y-103933200D01*
X147451800Y-103876050D01*
X147451800Y-103608329D01*
X147416998Y-103524309D01*
X147352692Y-103460003D01*
X147268672Y-103425200D01*
X147000950Y-103425200D01*
X146943800Y-103482350D01*
X146588200Y-103482350D01*
X146531050Y-103425200D01*
X146263328Y-103425200D01*
X146229400Y-103439254D01*
X146229400Y-100027213D01*
X146238791Y-99980000D01*
X146229400Y-99932787D01*
X146229400Y-99932783D01*
X146201585Y-99792947D01*
X146095628Y-99634372D01*
X146055600Y-99607626D01*
X145431611Y-98983638D01*
X145431611Y-97980000D01*
X145410175Y-97872232D01*
X145349129Y-97780871D01*
X145257768Y-97719825D01*
X145150000Y-97698389D01*
X143850000Y-97698389D01*
X143742232Y-97719825D01*
X143650871Y-97780871D01*
X143589825Y-97872232D01*
X143568389Y-97980000D01*
X143568389Y-98270600D01*
X143361111Y-98270600D01*
X143361111Y-98178500D01*
X143339675Y-98070732D01*
X143278629Y-97979371D01*
X143187268Y-97918325D01*
X143079500Y-97896889D01*
X142444500Y-97896889D01*
X142336732Y-97918325D01*
X142245371Y-97979371D01*
X142184325Y-98070732D01*
X142162889Y-98178500D01*
X142162889Y-99321500D01*
X142184325Y-99429268D01*
X142245371Y-99520629D01*
X142336732Y-99581675D01*
X142444500Y-99603111D01*
X143079500Y-99603111D01*
X143187268Y-99581675D01*
X143278629Y-99520629D01*
X143339675Y-99429268D01*
X143361111Y-99321500D01*
X143361111Y-99229400D01*
X143568389Y-99229400D01*
X143568389Y-99480000D01*
X143589825Y-99587768D01*
X143650871Y-99679129D01*
X143742232Y-99740175D01*
X143850000Y-99761611D01*
X144853637Y-99761611D01*
X145270601Y-100178575D01*
X145270601Y-100268400D01*
X145257768Y-100259825D01*
X145150000Y-100238389D01*
X143850000Y-100238389D01*
X143742232Y-100259825D01*
X143650871Y-100320871D01*
X143589825Y-100412232D01*
X143568389Y-100520000D01*
X143568389Y-100770600D01*
X143361111Y-100770600D01*
X143361111Y-100678500D01*
X143339675Y-100570732D01*
X143278629Y-100479371D01*
X143187268Y-100418325D01*
X143079500Y-100396889D01*
X142444500Y-100396889D01*
X142336732Y-100418325D01*
X142245371Y-100479371D01*
X142184325Y-100570732D01*
X142162889Y-100678500D01*
X142162889Y-101821500D01*
X142184325Y-101929268D01*
X142245371Y-102020629D01*
X142278956Y-102043070D01*
X141981427Y-102340600D01*
X140487213Y-102340600D01*
X140440000Y-102331209D01*
X140392787Y-102340600D01*
X140392783Y-102340600D01*
X140252947Y-102368415D01*
X140094372Y-102474372D01*
X140067626Y-102514400D01*
X139694401Y-102887626D01*
X139654373Y-102914372D01*
X139627627Y-102954400D01*
X139627626Y-102954401D01*
X139548415Y-103072948D01*
X139511209Y-103260000D01*
X139520601Y-103307218D01*
X139520600Y-106646889D01*
X139314862Y-106646889D01*
X139248917Y-106580944D01*
X139338148Y-106563195D01*
X139429509Y-106502149D01*
X139490555Y-106410788D01*
X139511991Y-106303020D01*
X139511991Y-105601980D01*
X139490555Y-105494212D01*
X139429509Y-105402851D01*
X139338148Y-105341805D01*
X139230380Y-105320369D01*
X138229620Y-105320369D01*
X138121852Y-105341805D01*
X138030491Y-105402851D01*
X137969445Y-105494212D01*
X137948009Y-105601980D01*
X137948009Y-106303020D01*
X137969445Y-106410788D01*
X138030491Y-106502149D01*
X138121852Y-106563195D01*
X138229620Y-106584631D01*
X138250601Y-106584631D01*
X138250601Y-106692783D01*
X138241209Y-106740000D01*
X138278415Y-106927052D01*
X138303496Y-106964587D01*
X138384373Y-107085628D01*
X138424401Y-107112374D01*
X138638889Y-107326862D01*
X138638889Y-108071500D01*
X138660325Y-108179268D01*
X138721371Y-108270629D01*
X138812732Y-108331675D01*
X138920500Y-108353111D01*
X139520600Y-108353111D01*
X139520600Y-109052783D01*
X139511208Y-109100000D01*
X139520601Y-109147222D01*
X139520600Y-110191426D01*
X139212511Y-110499516D01*
X139208675Y-110480232D01*
X139147629Y-110388871D01*
X139056268Y-110327825D01*
X138948500Y-110306389D01*
X137551500Y-110306389D01*
X137443732Y-110327825D01*
X137352371Y-110388871D01*
X137291325Y-110480232D01*
X137269889Y-110588000D01*
X137269889Y-110648106D01*
X137211872Y-110686872D01*
X137185126Y-110726901D01*
X137131391Y-110780636D01*
X137079522Y-110655413D01*
X136734587Y-110310478D01*
X136283906Y-110123800D01*
X135796094Y-110123800D01*
X135345413Y-110310478D01*
X135000478Y-110655413D01*
X134911345Y-110870600D01*
X134628655Y-110870600D01*
X134539522Y-110655413D01*
X134194587Y-110310478D01*
X133743906Y-110123800D01*
X133256094Y-110123800D01*
X132805413Y-110310478D01*
X132460478Y-110655413D01*
X132273800Y-111106094D01*
X129753600Y-111106094D01*
X129753600Y-109735210D01*
X132826237Y-109735210D01*
X132945282Y-109875996D01*
X133395446Y-110007133D01*
X133861527Y-109956019D01*
X134054718Y-109875996D01*
X134173763Y-109735210D01*
X135366237Y-109735210D01*
X135485282Y-109875996D01*
X135935446Y-110007133D01*
X136401527Y-109956019D01*
X136594718Y-109875996D01*
X136713763Y-109735210D01*
X136040000Y-109061447D01*
X135366237Y-109735210D01*
X134173763Y-109735210D01*
X133500000Y-109061447D01*
X132826237Y-109735210D01*
X129753600Y-109735210D01*
X129753600Y-108705446D01*
X132302867Y-108705446D01*
X132353981Y-109171527D01*
X132434004Y-109364718D01*
X132574790Y-109483763D01*
X133248553Y-108810000D01*
X133751447Y-108810000D01*
X134425210Y-109483763D01*
X134565996Y-109364718D01*
X134697133Y-108914554D01*
X134674201Y-108705446D01*
X134842867Y-108705446D01*
X134893981Y-109171527D01*
X134974004Y-109364718D01*
X135114790Y-109483763D01*
X135788553Y-108810000D01*
X136291447Y-108810000D01*
X136965210Y-109483763D01*
X137105996Y-109364718D01*
X137106656Y-109362450D01*
X137322900Y-109362450D01*
X137322900Y-109617471D01*
X137357702Y-109701491D01*
X137422008Y-109765797D01*
X137506028Y-109800600D01*
X138015050Y-109800600D01*
X138072200Y-109743450D01*
X138072200Y-109305300D01*
X138427800Y-109305300D01*
X138427800Y-109743450D01*
X138484950Y-109800600D01*
X138993972Y-109800600D01*
X139077992Y-109765797D01*
X139142298Y-109701491D01*
X139177100Y-109617471D01*
X139177100Y-109362450D01*
X139119950Y-109305300D01*
X138427800Y-109305300D01*
X138072200Y-109305300D01*
X137380050Y-109305300D01*
X137322900Y-109362450D01*
X137106656Y-109362450D01*
X137237133Y-108914554D01*
X137206753Y-108637529D01*
X137322900Y-108637529D01*
X137322900Y-108892550D01*
X137380050Y-108949700D01*
X138072200Y-108949700D01*
X138072200Y-108511550D01*
X138427800Y-108511550D01*
X138427800Y-108949700D01*
X139119950Y-108949700D01*
X139177100Y-108892550D01*
X139177100Y-108637529D01*
X139142298Y-108553509D01*
X139077992Y-108489203D01*
X138993972Y-108454400D01*
X138484950Y-108454400D01*
X138427800Y-108511550D01*
X138072200Y-108511550D01*
X138015050Y-108454400D01*
X137506028Y-108454400D01*
X137422008Y-108489203D01*
X137357702Y-108553509D01*
X137322900Y-108637529D01*
X137206753Y-108637529D01*
X137186019Y-108448473D01*
X137105996Y-108255282D01*
X136965210Y-108136237D01*
X136291447Y-108810000D01*
X135788553Y-108810000D01*
X135114790Y-108136237D01*
X134974004Y-108255282D01*
X134842867Y-108705446D01*
X134674201Y-108705446D01*
X134646019Y-108448473D01*
X134565996Y-108255282D01*
X134425210Y-108136237D01*
X133751447Y-108810000D01*
X133248553Y-108810000D01*
X132574790Y-108136237D01*
X132434004Y-108255282D01*
X132302867Y-108705446D01*
X129753600Y-108705446D01*
X129753600Y-107884790D01*
X132826237Y-107884790D01*
X133500000Y-108558553D01*
X134173763Y-107884790D01*
X135366237Y-107884790D01*
X136040000Y-108558553D01*
X136713763Y-107884790D01*
X136594718Y-107744004D01*
X136144554Y-107612867D01*
X135678473Y-107663981D01*
X135485282Y-107744004D01*
X135366237Y-107884790D01*
X134173763Y-107884790D01*
X134054718Y-107744004D01*
X133604554Y-107612867D01*
X133138473Y-107663981D01*
X132945282Y-107744004D01*
X132826237Y-107884790D01*
X129753600Y-107884790D01*
X129753600Y-106026094D01*
X132273800Y-106026094D01*
X132273800Y-106513906D01*
X132460478Y-106964587D01*
X132805413Y-107309522D01*
X133256094Y-107496200D01*
X133743906Y-107496200D01*
X134194587Y-107309522D01*
X134539522Y-106964587D01*
X134726200Y-106513906D01*
X134726200Y-106026094D01*
X134813800Y-106026094D01*
X134813800Y-106513906D01*
X135000478Y-106964587D01*
X135345413Y-107309522D01*
X135796094Y-107496200D01*
X136283906Y-107496200D01*
X136734587Y-107309522D01*
X137079522Y-106964587D01*
X137266200Y-106513906D01*
X137266200Y-106026094D01*
X137079522Y-105575413D01*
X136734587Y-105230478D01*
X136283906Y-105043800D01*
X135796094Y-105043800D01*
X135345413Y-105230478D01*
X135000478Y-105575413D01*
X134813800Y-106026094D01*
X134726200Y-106026094D01*
X134539522Y-105575413D01*
X134194587Y-105230478D01*
X133743906Y-105043800D01*
X133256094Y-105043800D01*
X132805413Y-105230478D01*
X132460478Y-105575413D01*
X132273800Y-106026094D01*
X129753600Y-106026094D01*
X129753600Y-103486094D01*
X132273800Y-103486094D01*
X132273800Y-103973906D01*
X132460478Y-104424587D01*
X132805413Y-104769522D01*
X133256094Y-104956200D01*
X133743906Y-104956200D01*
X134194587Y-104769522D01*
X134539522Y-104424587D01*
X134726200Y-103973906D01*
X134726200Y-103486094D01*
X134813800Y-103486094D01*
X134813800Y-103973906D01*
X135000478Y-104424587D01*
X135345413Y-104769522D01*
X135796094Y-104956200D01*
X136283906Y-104956200D01*
X136734587Y-104769522D01*
X137079522Y-104424587D01*
X137168655Y-104209400D01*
X137261427Y-104209400D01*
X137405126Y-104353099D01*
X137431872Y-104393128D01*
X137590447Y-104499085D01*
X137730283Y-104526900D01*
X137730287Y-104526900D01*
X137777500Y-104536291D01*
X137824713Y-104526900D01*
X137983552Y-104526900D01*
X138030491Y-104597149D01*
X138121852Y-104658195D01*
X138229620Y-104679631D01*
X139230380Y-104679631D01*
X139338148Y-104658195D01*
X139429509Y-104597149D01*
X139490555Y-104505788D01*
X139511991Y-104398020D01*
X139511991Y-103696980D01*
X139490555Y-103589212D01*
X139429509Y-103497851D01*
X139338148Y-103436805D01*
X139230380Y-103415369D01*
X138229620Y-103415369D01*
X138121852Y-103436805D01*
X138030491Y-103497851D01*
X137983552Y-103568100D01*
X137976074Y-103568100D01*
X137832376Y-103424402D01*
X137805628Y-103384372D01*
X137647053Y-103278415D01*
X137507217Y-103250600D01*
X137507213Y-103250600D01*
X137460000Y-103241209D01*
X137412787Y-103250600D01*
X137168655Y-103250600D01*
X137079522Y-103035413D01*
X136734587Y-102690478D01*
X136283906Y-102503800D01*
X135796094Y-102503800D01*
X135345413Y-102690478D01*
X135000478Y-103035413D01*
X134813800Y-103486094D01*
X134726200Y-103486094D01*
X134539522Y-103035413D01*
X134194587Y-102690478D01*
X133743906Y-102503800D01*
X133256094Y-102503800D01*
X132805413Y-102690478D01*
X132460478Y-103035413D01*
X132273800Y-103486094D01*
X129753600Y-103486094D01*
X129753600Y-100946094D01*
X132273800Y-100946094D01*
X132273800Y-101433906D01*
X132460478Y-101884587D01*
X132805413Y-102229522D01*
X133256094Y-102416200D01*
X133743906Y-102416200D01*
X134194587Y-102229522D01*
X134539522Y-101884587D01*
X134726200Y-101433906D01*
X134726200Y-100946094D01*
X134813800Y-100946094D01*
X134813800Y-101433906D01*
X135000478Y-101884587D01*
X135345413Y-102229522D01*
X135796094Y-102416200D01*
X136283906Y-102416200D01*
X136734587Y-102229522D01*
X137079522Y-101884587D01*
X137245056Y-101484950D01*
X140691900Y-101484950D01*
X140691900Y-101866972D01*
X140726703Y-101950992D01*
X140791009Y-102015298D01*
X140875029Y-102050100D01*
X141022100Y-102050100D01*
X141079250Y-101992950D01*
X141079250Y-101427800D01*
X141396750Y-101427800D01*
X141396750Y-101992950D01*
X141453900Y-102050100D01*
X141600971Y-102050100D01*
X141684991Y-102015298D01*
X141749297Y-101950992D01*
X141784100Y-101866972D01*
X141784100Y-101484950D01*
X141726950Y-101427800D01*
X141396750Y-101427800D01*
X141079250Y-101427800D01*
X140749050Y-101427800D01*
X140691900Y-101484950D01*
X137245056Y-101484950D01*
X137266200Y-101433906D01*
X137266200Y-100946094D01*
X137136524Y-100633028D01*
X140691900Y-100633028D01*
X140691900Y-101015050D01*
X140749050Y-101072200D01*
X141079250Y-101072200D01*
X141079250Y-100507050D01*
X141396750Y-100507050D01*
X141396750Y-101072200D01*
X141726950Y-101072200D01*
X141784100Y-101015050D01*
X141784100Y-100633028D01*
X141749297Y-100549008D01*
X141684991Y-100484702D01*
X141600971Y-100449900D01*
X141453900Y-100449900D01*
X141396750Y-100507050D01*
X141079250Y-100507050D01*
X141022100Y-100449900D01*
X140875029Y-100449900D01*
X140791009Y-100484702D01*
X140726703Y-100549008D01*
X140691900Y-100633028D01*
X137136524Y-100633028D01*
X137079522Y-100495413D01*
X136734587Y-100150478D01*
X136283906Y-99963800D01*
X135796094Y-99963800D01*
X135345413Y-100150478D01*
X135000478Y-100495413D01*
X134813800Y-100946094D01*
X134726200Y-100946094D01*
X134539522Y-100495413D01*
X134194587Y-100150478D01*
X133743906Y-99963800D01*
X133256094Y-99963800D01*
X132805413Y-100150478D01*
X132460478Y-100495413D01*
X132273800Y-100946094D01*
X129753600Y-100946094D01*
X129753600Y-98406094D01*
X132273800Y-98406094D01*
X132273800Y-98893906D01*
X132460478Y-99344587D01*
X132805413Y-99689522D01*
X133256094Y-99876200D01*
X133743906Y-99876200D01*
X134194587Y-99689522D01*
X134539522Y-99344587D01*
X134726200Y-98893906D01*
X134726200Y-98406094D01*
X134539522Y-97955413D01*
X134284109Y-97700000D01*
X134758389Y-97700000D01*
X134758389Y-99600000D01*
X134779825Y-99707768D01*
X134840871Y-99799129D01*
X134932232Y-99860175D01*
X135040000Y-99881611D01*
X137040000Y-99881611D01*
X137147768Y-99860175D01*
X137239129Y-99799129D01*
X137300175Y-99707768D01*
X137321611Y-99600000D01*
X137321611Y-98984950D01*
X140691900Y-98984950D01*
X140691900Y-99366972D01*
X140726703Y-99450992D01*
X140791009Y-99515298D01*
X140875029Y-99550100D01*
X141022100Y-99550100D01*
X141079250Y-99492950D01*
X141079250Y-98927800D01*
X141396750Y-98927800D01*
X141396750Y-99492950D01*
X141453900Y-99550100D01*
X141600971Y-99550100D01*
X141684991Y-99515298D01*
X141749297Y-99450992D01*
X141784100Y-99366972D01*
X141784100Y-98984950D01*
X141726950Y-98927800D01*
X141396750Y-98927800D01*
X141079250Y-98927800D01*
X140749050Y-98927800D01*
X140691900Y-98984950D01*
X137321611Y-98984950D01*
X137321611Y-98133028D01*
X140691900Y-98133028D01*
X140691900Y-98515050D01*
X140749050Y-98572200D01*
X141079250Y-98572200D01*
X141079250Y-98007050D01*
X141396750Y-98007050D01*
X141396750Y-98572200D01*
X141726950Y-98572200D01*
X141784100Y-98515050D01*
X141784100Y-98133028D01*
X141749297Y-98049008D01*
X141684991Y-97984702D01*
X141600971Y-97949900D01*
X141453900Y-97949900D01*
X141396750Y-98007050D01*
X141079250Y-98007050D01*
X141022100Y-97949900D01*
X140875029Y-97949900D01*
X140791009Y-97984702D01*
X140726703Y-98049008D01*
X140691900Y-98133028D01*
X137321611Y-98133028D01*
X137321611Y-97700000D01*
X137300175Y-97592232D01*
X137239129Y-97500871D01*
X137147768Y-97439825D01*
X137040000Y-97418389D01*
X135040000Y-97418389D01*
X134932232Y-97439825D01*
X134840871Y-97500871D01*
X134779825Y-97592232D01*
X134758389Y-97700000D01*
X134284109Y-97700000D01*
X134194587Y-97610478D01*
X133743906Y-97423800D01*
X133256094Y-97423800D01*
X132805413Y-97610478D01*
X132460478Y-97955413D01*
X132273800Y-98406094D01*
X129753600Y-98406094D01*
X129753600Y-95143600D01*
X148923800Y-95143600D01*
X148923800Y-112037700D01*
X148923800Y-112037700D01*
G37*
X148923800Y-112037700D02*
X137371886Y-112037700D01*
X137371886Y-114092500D01*
X148923800Y-114092500D01*
X148923800Y-114856400D01*
X129753600Y-114856400D01*
X129753600Y-111106094D01*
X132273800Y-111106094D01*
X132273800Y-111593906D01*
X132460478Y-112044587D01*
X132805413Y-112389522D01*
X133256094Y-112576200D01*
X133743906Y-112576200D01*
X134194587Y-112389522D01*
X134539522Y-112044587D01*
X134628655Y-111829400D01*
X134911345Y-111829400D01*
X135000478Y-112044587D01*
X135345413Y-112389522D01*
X135796094Y-112576200D01*
X136283906Y-112576200D01*
X136734587Y-112389522D01*
X137079522Y-112044587D01*
X137168655Y-111829400D01*
X137192787Y-111829400D01*
X137240000Y-111838791D01*
X137287213Y-111829400D01*
X137287217Y-111829400D01*
X137427053Y-111801585D01*
X137505162Y-111749394D01*
X137551500Y-111758611D01*
X138948500Y-111758611D01*
X139056268Y-111737175D01*
X139147629Y-111676129D01*
X139208675Y-111584768D01*
X139223169Y-111511900D01*
X139310287Y-111511900D01*
X139357500Y-111521291D01*
X139404713Y-111511900D01*
X139404717Y-111511900D01*
X139544553Y-111484085D01*
X139703128Y-111378128D01*
X139729876Y-111338097D01*
X140305600Y-110762374D01*
X140345628Y-110735628D01*
X140451585Y-110577053D01*
X140479400Y-110437217D01*
X140479400Y-110437214D01*
X140488791Y-110390001D01*
X140479400Y-110342788D01*
X140479400Y-109579400D01*
X141632787Y-109579400D01*
X141680000Y-109588791D01*
X141727213Y-109579400D01*
X141727217Y-109579400D01*
X141867053Y-109551585D01*
X142025628Y-109445628D01*
X142052376Y-109405597D01*
X143305600Y-108152374D01*
X143345628Y-108125628D01*
X143451585Y-107967053D01*
X143479400Y-107827217D01*
X143479400Y-107827213D01*
X143488791Y-107780000D01*
X143479400Y-107732787D01*
X143479400Y-107111111D01*
X143571500Y-107111111D01*
X143679268Y-107089675D01*
X143770629Y-107028629D01*
X143831675Y-106937268D01*
X143853111Y-106829500D01*
X143853111Y-106194500D01*
X143831675Y-106086732D01*
X143770629Y-105995371D01*
X143679268Y-105934325D01*
X143571500Y-105912889D01*
X142428500Y-105912889D01*
X142320732Y-105934325D01*
X142229371Y-105995371D01*
X142168325Y-106086732D01*
X142146889Y-106194500D01*
X142146889Y-106829500D01*
X142168325Y-106937268D01*
X142229371Y-107028629D01*
X142320732Y-107089675D01*
X142428500Y-107111111D01*
X142520601Y-107111111D01*
X142520600Y-107581426D01*
X141481427Y-108620600D01*
X140479400Y-108620600D01*
X140479400Y-108300100D01*
X140546100Y-108300100D01*
X140603250Y-108242950D01*
X140603250Y-107677800D01*
X140920750Y-107677800D01*
X140920750Y-108242950D01*
X140977900Y-108300100D01*
X141124971Y-108300100D01*
X141208991Y-108265298D01*
X141273297Y-108200992D01*
X141308100Y-108116972D01*
X141308100Y-107734950D01*
X141250950Y-107677800D01*
X140920750Y-107677800D01*
X140603250Y-107677800D01*
X140564200Y-107677800D01*
X140564200Y-107322200D01*
X140603250Y-107322200D01*
X140603250Y-106757050D01*
X140920750Y-106757050D01*
X140920750Y-107322200D01*
X141250950Y-107322200D01*
X141308100Y-107265050D01*
X141308100Y-106883028D01*
X141273297Y-106799008D01*
X141208991Y-106734702D01*
X141124971Y-106699900D01*
X140977900Y-106699900D01*
X140920750Y-106757050D01*
X140603250Y-106757050D01*
X140546100Y-106699900D01*
X140479400Y-106699900D01*
X140479400Y-103651509D01*
X140541020Y-103651509D01*
X140541020Y-103815090D01*
X140598170Y-103872240D01*
X141092200Y-103872240D01*
X141092200Y-103525530D01*
X141447800Y-103525530D01*
X141447800Y-103872240D01*
X141941830Y-103872240D01*
X141998980Y-103815090D01*
X141998980Y-103651509D01*
X141964178Y-103567489D01*
X141899872Y-103503183D01*
X141815852Y-103468380D01*
X141504950Y-103468380D01*
X141447800Y-103525530D01*
X141092200Y-103525530D01*
X141035050Y-103468380D01*
X140724148Y-103468380D01*
X140640128Y-103503183D01*
X140575822Y-103567489D01*
X140541020Y-103651509D01*
X140479400Y-103651509D01*
X140479400Y-103458573D01*
X140638574Y-103299400D01*
X142132787Y-103299400D01*
X142180000Y-103308791D01*
X142227213Y-103299400D01*
X142227217Y-103299400D01*
X142367053Y-103271585D01*
X142525628Y-103165628D01*
X142552376Y-103125597D01*
X143067600Y-102610374D01*
X143107628Y-102583628D01*
X143213585Y-102425053D01*
X143241400Y-102285217D01*
X143241400Y-102285214D01*
X143250791Y-102238001D01*
X143241400Y-102190788D01*
X143241400Y-102045505D01*
X143278629Y-102020629D01*
X143339675Y-101929268D01*
X143361111Y-101821500D01*
X143361111Y-101729400D01*
X143568389Y-101729400D01*
X143568389Y-102020000D01*
X143589825Y-102127768D01*
X143650871Y-102219129D01*
X143742232Y-102280175D01*
X143850000Y-102301611D01*
X145150000Y-102301611D01*
X145257768Y-102280175D01*
X145270601Y-102271601D01*
X145270600Y-104276982D01*
X145191200Y-104261189D01*
X144276800Y-104261189D01*
X144169032Y-104282625D01*
X144077671Y-104343671D01*
X144016625Y-104435032D01*
X143999605Y-104520600D01*
X143803523Y-104520600D01*
X143770629Y-104471371D01*
X143679268Y-104410325D01*
X143571500Y-104388889D01*
X142428500Y-104388889D01*
X142320732Y-104410325D01*
X142229371Y-104471371D01*
X142196477Y-104520600D01*
X142016448Y-104520600D01*
X141985948Y-104474953D01*
X141998980Y-104443491D01*
X141998980Y-104279910D01*
X141941830Y-104222760D01*
X141447800Y-104222760D01*
X141447800Y-104245300D01*
X141092200Y-104245300D01*
X141092200Y-104222760D01*
X140598170Y-104222760D01*
X140541020Y-104279910D01*
X140541020Y-104443491D01*
X140554052Y-104474953D01*
X140509445Y-104541712D01*
X140488009Y-104649480D01*
X140488009Y-105350520D01*
X140509445Y-105458288D01*
X140521447Y-105476250D01*
X140509445Y-105494212D01*
X140488009Y-105601980D01*
X140488009Y-106303020D01*
X140509445Y-106410788D01*
X140570491Y-106502149D01*
X140661852Y-106563195D01*
X140769620Y-106584631D01*
X141770380Y-106584631D01*
X141878148Y-106563195D01*
X141969509Y-106502149D01*
X142030555Y-106410788D01*
X142051991Y-106303020D01*
X142051991Y-105601980D01*
X142030555Y-105494212D01*
X142020658Y-105479400D01*
X142212513Y-105479400D01*
X142229371Y-105504629D01*
X142320732Y-105565675D01*
X142428500Y-105587111D01*
X143571500Y-105587111D01*
X143679268Y-105565675D01*
X143770629Y-105504629D01*
X143787487Y-105479400D01*
X143999605Y-105479400D01*
X144016625Y-105564968D01*
X144077671Y-105656329D01*
X144169032Y-105717375D01*
X144276800Y-105738811D01*
X145191200Y-105738811D01*
X145298968Y-105717375D01*
X145390329Y-105656329D01*
X145451375Y-105564968D01*
X145472811Y-105457200D01*
X145472811Y-105270784D01*
X146027189Y-105825163D01*
X146027189Y-106346200D01*
X146048625Y-106453968D01*
X146109671Y-106545329D01*
X146201032Y-106606375D01*
X146308800Y-106627811D01*
X147223200Y-106627811D01*
X147330968Y-106606375D01*
X147422329Y-106545329D01*
X147483375Y-106453968D01*
X147504811Y-106346200D01*
X147504811Y-105431800D01*
X147483375Y-105324032D01*
X147422329Y-105232671D01*
X147330968Y-105171625D01*
X147223200Y-105150189D01*
X146708163Y-105150189D01*
X146354773Y-104796800D01*
X146531050Y-104796800D01*
X146588200Y-104739650D01*
X146588200Y-104288800D01*
X146943800Y-104288800D01*
X146943800Y-104739650D01*
X147000950Y-104796800D01*
X147268672Y-104796800D01*
X147352692Y-104761997D01*
X147416998Y-104697691D01*
X147451800Y-104613671D01*
X147451800Y-104345950D01*
X147394650Y-104288800D01*
X146943800Y-104288800D01*
X146588200Y-104288800D01*
X146568200Y-104288800D01*
X146568200Y-103933200D01*
X146588200Y-103933200D01*
X146588200Y-103482350D01*
X146943800Y-103482350D01*
X146943800Y-103933200D01*
X147394650Y-103933200D01*
X147451800Y-103876050D01*
X147451800Y-103608329D01*
X147416998Y-103524309D01*
X147352692Y-103460003D01*
X147268672Y-103425200D01*
X147000950Y-103425200D01*
X146943800Y-103482350D01*
X146588200Y-103482350D01*
X146531050Y-103425200D01*
X146263328Y-103425200D01*
X146229400Y-103439254D01*
X146229400Y-100027213D01*
X146238791Y-99980000D01*
X146229400Y-99932787D01*
X146229400Y-99932783D01*
X146201585Y-99792947D01*
X146095628Y-99634372D01*
X146055600Y-99607626D01*
X145431611Y-98983638D01*
X145431611Y-97980000D01*
X145410175Y-97872232D01*
X145349129Y-97780871D01*
X145257768Y-97719825D01*
X145150000Y-97698389D01*
X143850000Y-97698389D01*
X143742232Y-97719825D01*
X143650871Y-97780871D01*
X143589825Y-97872232D01*
X143568389Y-97980000D01*
X143568389Y-98270600D01*
X143361111Y-98270600D01*
X143361111Y-98178500D01*
X143339675Y-98070732D01*
X143278629Y-97979371D01*
X143187268Y-97918325D01*
X143079500Y-97896889D01*
X142444500Y-97896889D01*
X142336732Y-97918325D01*
X142245371Y-97979371D01*
X142184325Y-98070732D01*
X142162889Y-98178500D01*
X142162889Y-99321500D01*
X142184325Y-99429268D01*
X142245371Y-99520629D01*
X142336732Y-99581675D01*
X142444500Y-99603111D01*
X143079500Y-99603111D01*
X143187268Y-99581675D01*
X143278629Y-99520629D01*
X143339675Y-99429268D01*
X143361111Y-99321500D01*
X143361111Y-99229400D01*
X143568389Y-99229400D01*
X143568389Y-99480000D01*
X143589825Y-99587768D01*
X143650871Y-99679129D01*
X143742232Y-99740175D01*
X143850000Y-99761611D01*
X144853637Y-99761611D01*
X145270601Y-100178575D01*
X145270601Y-100268400D01*
X145257768Y-100259825D01*
X145150000Y-100238389D01*
X143850000Y-100238389D01*
X143742232Y-100259825D01*
X143650871Y-100320871D01*
X143589825Y-100412232D01*
X143568389Y-100520000D01*
X143568389Y-100770600D01*
X143361111Y-100770600D01*
X143361111Y-100678500D01*
X143339675Y-100570732D01*
X143278629Y-100479371D01*
X143187268Y-100418325D01*
X143079500Y-100396889D01*
X142444500Y-100396889D01*
X142336732Y-100418325D01*
X142245371Y-100479371D01*
X142184325Y-100570732D01*
X142162889Y-100678500D01*
X142162889Y-101821500D01*
X142184325Y-101929268D01*
X142245371Y-102020629D01*
X142278956Y-102043070D01*
X141981427Y-102340600D01*
X140487213Y-102340600D01*
X140440000Y-102331209D01*
X140392787Y-102340600D01*
X140392783Y-102340600D01*
X140252947Y-102368415D01*
X140094372Y-102474372D01*
X140067626Y-102514400D01*
X139694401Y-102887626D01*
X139654373Y-102914372D01*
X139627627Y-102954400D01*
X139627626Y-102954401D01*
X139548415Y-103072948D01*
X139511209Y-103260000D01*
X139520601Y-103307218D01*
X139520600Y-106646889D01*
X139314862Y-106646889D01*
X139248917Y-106580944D01*
X139338148Y-106563195D01*
X139429509Y-106502149D01*
X139490555Y-106410788D01*
X139511991Y-106303020D01*
X139511991Y-105601980D01*
X139490555Y-105494212D01*
X139429509Y-105402851D01*
X139338148Y-105341805D01*
X139230380Y-105320369D01*
X138229620Y-105320369D01*
X138121852Y-105341805D01*
X138030491Y-105402851D01*
X137969445Y-105494212D01*
X137948009Y-105601980D01*
X137948009Y-106303020D01*
X137969445Y-106410788D01*
X138030491Y-106502149D01*
X138121852Y-106563195D01*
X138229620Y-106584631D01*
X138250601Y-106584631D01*
X138250601Y-106692783D01*
X138241209Y-106740000D01*
X138278415Y-106927052D01*
X138303496Y-106964587D01*
X138384373Y-107085628D01*
X138424401Y-107112374D01*
X138638889Y-107326862D01*
X138638889Y-108071500D01*
X138660325Y-108179268D01*
X138721371Y-108270629D01*
X138812732Y-108331675D01*
X138920500Y-108353111D01*
X139520600Y-108353111D01*
X139520600Y-109052783D01*
X139511208Y-109100000D01*
X139520601Y-109147222D01*
X139520600Y-110191426D01*
X139212511Y-110499516D01*
X139208675Y-110480232D01*
X139147629Y-110388871D01*
X139056268Y-110327825D01*
X138948500Y-110306389D01*
X137551500Y-110306389D01*
X137443732Y-110327825D01*
X137352371Y-110388871D01*
X137291325Y-110480232D01*
X137269889Y-110588000D01*
X137269889Y-110648106D01*
X137211872Y-110686872D01*
X137185126Y-110726901D01*
X137131391Y-110780636D01*
X137079522Y-110655413D01*
X136734587Y-110310478D01*
X136283906Y-110123800D01*
X135796094Y-110123800D01*
X135345413Y-110310478D01*
X135000478Y-110655413D01*
X134911345Y-110870600D01*
X134628655Y-110870600D01*
X134539522Y-110655413D01*
X134194587Y-110310478D01*
X133743906Y-110123800D01*
X133256094Y-110123800D01*
X132805413Y-110310478D01*
X132460478Y-110655413D01*
X132273800Y-111106094D01*
X129753600Y-111106094D01*
X129753600Y-109735210D01*
X132826237Y-109735210D01*
X132945282Y-109875996D01*
X133395446Y-110007133D01*
X133861527Y-109956019D01*
X134054718Y-109875996D01*
X134173763Y-109735210D01*
X135366237Y-109735210D01*
X135485282Y-109875996D01*
X135935446Y-110007133D01*
X136401527Y-109956019D01*
X136594718Y-109875996D01*
X136713763Y-109735210D01*
X136040000Y-109061447D01*
X135366237Y-109735210D01*
X134173763Y-109735210D01*
X133500000Y-109061447D01*
X132826237Y-109735210D01*
X129753600Y-109735210D01*
X129753600Y-108705446D01*
X132302867Y-108705446D01*
X132353981Y-109171527D01*
X132434004Y-109364718D01*
X132574790Y-109483763D01*
X133248553Y-108810000D01*
X133751447Y-108810000D01*
X134425210Y-109483763D01*
X134565996Y-109364718D01*
X134697133Y-108914554D01*
X134674201Y-108705446D01*
X134842867Y-108705446D01*
X134893981Y-109171527D01*
X134974004Y-109364718D01*
X135114790Y-109483763D01*
X135788553Y-108810000D01*
X136291447Y-108810000D01*
X136965210Y-109483763D01*
X137105996Y-109364718D01*
X137106656Y-109362450D01*
X137322900Y-109362450D01*
X137322900Y-109617471D01*
X137357702Y-109701491D01*
X137422008Y-109765797D01*
X137506028Y-109800600D01*
X138015050Y-109800600D01*
X138072200Y-109743450D01*
X138072200Y-109305300D01*
X138427800Y-109305300D01*
X138427800Y-109743450D01*
X138484950Y-109800600D01*
X138993972Y-109800600D01*
X139077992Y-109765797D01*
X139142298Y-109701491D01*
X139177100Y-109617471D01*
X139177100Y-109362450D01*
X139119950Y-109305300D01*
X138427800Y-109305300D01*
X138072200Y-109305300D01*
X137380050Y-109305300D01*
X137322900Y-109362450D01*
X137106656Y-109362450D01*
X137237133Y-108914554D01*
X137206753Y-108637529D01*
X137322900Y-108637529D01*
X137322900Y-108892550D01*
X137380050Y-108949700D01*
X138072200Y-108949700D01*
X138072200Y-108511550D01*
X138427800Y-108511550D01*
X138427800Y-108949700D01*
X139119950Y-108949700D01*
X139177100Y-108892550D01*
X139177100Y-108637529D01*
X139142298Y-108553509D01*
X139077992Y-108489203D01*
X138993972Y-108454400D01*
X138484950Y-108454400D01*
X138427800Y-108511550D01*
X138072200Y-108511550D01*
X138015050Y-108454400D01*
X137506028Y-108454400D01*
X137422008Y-108489203D01*
X137357702Y-108553509D01*
X137322900Y-108637529D01*
X137206753Y-108637529D01*
X137186019Y-108448473D01*
X137105996Y-108255282D01*
X136965210Y-108136237D01*
X136291447Y-108810000D01*
X135788553Y-108810000D01*
X135114790Y-108136237D01*
X134974004Y-108255282D01*
X134842867Y-108705446D01*
X134674201Y-108705446D01*
X134646019Y-108448473D01*
X134565996Y-108255282D01*
X134425210Y-108136237D01*
X133751447Y-108810000D01*
X133248553Y-108810000D01*
X132574790Y-108136237D01*
X132434004Y-108255282D01*
X132302867Y-108705446D01*
X129753600Y-108705446D01*
X129753600Y-107884790D01*
X132826237Y-107884790D01*
X133500000Y-108558553D01*
X134173763Y-107884790D01*
X135366237Y-107884790D01*
X136040000Y-108558553D01*
X136713763Y-107884790D01*
X136594718Y-107744004D01*
X136144554Y-107612867D01*
X135678473Y-107663981D01*
X135485282Y-107744004D01*
X135366237Y-107884790D01*
X134173763Y-107884790D01*
X134054718Y-107744004D01*
X133604554Y-107612867D01*
X133138473Y-107663981D01*
X132945282Y-107744004D01*
X132826237Y-107884790D01*
X129753600Y-107884790D01*
X129753600Y-106026094D01*
X132273800Y-106026094D01*
X132273800Y-106513906D01*
X132460478Y-106964587D01*
X132805413Y-107309522D01*
X133256094Y-107496200D01*
X133743906Y-107496200D01*
X134194587Y-107309522D01*
X134539522Y-106964587D01*
X134726200Y-106513906D01*
X134726200Y-106026094D01*
X134813800Y-106026094D01*
X134813800Y-106513906D01*
X135000478Y-106964587D01*
X135345413Y-107309522D01*
X135796094Y-107496200D01*
X136283906Y-107496200D01*
X136734587Y-107309522D01*
X137079522Y-106964587D01*
X137266200Y-106513906D01*
X137266200Y-106026094D01*
X137079522Y-105575413D01*
X136734587Y-105230478D01*
X136283906Y-105043800D01*
X135796094Y-105043800D01*
X135345413Y-105230478D01*
X135000478Y-105575413D01*
X134813800Y-106026094D01*
X134726200Y-106026094D01*
X134539522Y-105575413D01*
X134194587Y-105230478D01*
X133743906Y-105043800D01*
X133256094Y-105043800D01*
X132805413Y-105230478D01*
X132460478Y-105575413D01*
X132273800Y-106026094D01*
X129753600Y-106026094D01*
X129753600Y-103486094D01*
X132273800Y-103486094D01*
X132273800Y-103973906D01*
X132460478Y-104424587D01*
X132805413Y-104769522D01*
X133256094Y-104956200D01*
X133743906Y-104956200D01*
X134194587Y-104769522D01*
X134539522Y-104424587D01*
X134726200Y-103973906D01*
X134726200Y-103486094D01*
X134813800Y-103486094D01*
X134813800Y-103973906D01*
X135000478Y-104424587D01*
X135345413Y-104769522D01*
X135796094Y-104956200D01*
X136283906Y-104956200D01*
X136734587Y-104769522D01*
X137079522Y-104424587D01*
X137168655Y-104209400D01*
X137261427Y-104209400D01*
X137405126Y-104353099D01*
X137431872Y-104393128D01*
X137590447Y-104499085D01*
X137730283Y-104526900D01*
X137730287Y-104526900D01*
X137777500Y-104536291D01*
X137824713Y-104526900D01*
X137983552Y-104526900D01*
X138030491Y-104597149D01*
X138121852Y-104658195D01*
X138229620Y-104679631D01*
X139230380Y-104679631D01*
X139338148Y-104658195D01*
X139429509Y-104597149D01*
X139490555Y-104505788D01*
X139511991Y-104398020D01*
X139511991Y-103696980D01*
X139490555Y-103589212D01*
X139429509Y-103497851D01*
X139338148Y-103436805D01*
X139230380Y-103415369D01*
X138229620Y-103415369D01*
X138121852Y-103436805D01*
X138030491Y-103497851D01*
X137983552Y-103568100D01*
X137976074Y-103568100D01*
X137832376Y-103424402D01*
X137805628Y-103384372D01*
X137647053Y-103278415D01*
X137507217Y-103250600D01*
X137507213Y-103250600D01*
X137460000Y-103241209D01*
X137412787Y-103250600D01*
X137168655Y-103250600D01*
X137079522Y-103035413D01*
X136734587Y-102690478D01*
X136283906Y-102503800D01*
X135796094Y-102503800D01*
X135345413Y-102690478D01*
X135000478Y-103035413D01*
X134813800Y-103486094D01*
X134726200Y-103486094D01*
X134539522Y-103035413D01*
X134194587Y-102690478D01*
X133743906Y-102503800D01*
X133256094Y-102503800D01*
X132805413Y-102690478D01*
X132460478Y-103035413D01*
X132273800Y-103486094D01*
X129753600Y-103486094D01*
X129753600Y-100946094D01*
X132273800Y-100946094D01*
X132273800Y-101433906D01*
X132460478Y-101884587D01*
X132805413Y-102229522D01*
X133256094Y-102416200D01*
X133743906Y-102416200D01*
X134194587Y-102229522D01*
X134539522Y-101884587D01*
X134726200Y-101433906D01*
X134726200Y-100946094D01*
X134813800Y-100946094D01*
X134813800Y-101433906D01*
X135000478Y-101884587D01*
X135345413Y-102229522D01*
X135796094Y-102416200D01*
X136283906Y-102416200D01*
X136734587Y-102229522D01*
X137079522Y-101884587D01*
X137245056Y-101484950D01*
X140691900Y-101484950D01*
X140691900Y-101866972D01*
X140726703Y-101950992D01*
X140791009Y-102015298D01*
X140875029Y-102050100D01*
X141022100Y-102050100D01*
X141079250Y-101992950D01*
X141079250Y-101427800D01*
X141396750Y-101427800D01*
X141396750Y-101992950D01*
X141453900Y-102050100D01*
X141600971Y-102050100D01*
X141684991Y-102015298D01*
X141749297Y-101950992D01*
X141784100Y-101866972D01*
X141784100Y-101484950D01*
X141726950Y-101427800D01*
X141396750Y-101427800D01*
X141079250Y-101427800D01*
X140749050Y-101427800D01*
X140691900Y-101484950D01*
X137245056Y-101484950D01*
X137266200Y-101433906D01*
X137266200Y-100946094D01*
X137136524Y-100633028D01*
X140691900Y-100633028D01*
X140691900Y-101015050D01*
X140749050Y-101072200D01*
X141079250Y-101072200D01*
X141079250Y-100507050D01*
X141396750Y-100507050D01*
X141396750Y-101072200D01*
X141726950Y-101072200D01*
X141784100Y-101015050D01*
X141784100Y-100633028D01*
X141749297Y-100549008D01*
X141684991Y-100484702D01*
X141600971Y-100449900D01*
X141453900Y-100449900D01*
X141396750Y-100507050D01*
X141079250Y-100507050D01*
X141022100Y-100449900D01*
X140875029Y-100449900D01*
X140791009Y-100484702D01*
X140726703Y-100549008D01*
X140691900Y-100633028D01*
X137136524Y-100633028D01*
X137079522Y-100495413D01*
X136734587Y-100150478D01*
X136283906Y-99963800D01*
X135796094Y-99963800D01*
X135345413Y-100150478D01*
X135000478Y-100495413D01*
X134813800Y-100946094D01*
X134726200Y-100946094D01*
X134539522Y-100495413D01*
X134194587Y-100150478D01*
X133743906Y-99963800D01*
X133256094Y-99963800D01*
X132805413Y-100150478D01*
X132460478Y-100495413D01*
X132273800Y-100946094D01*
X129753600Y-100946094D01*
X129753600Y-98406094D01*
X132273800Y-98406094D01*
X132273800Y-98893906D01*
X132460478Y-99344587D01*
X132805413Y-99689522D01*
X133256094Y-99876200D01*
X133743906Y-99876200D01*
X134194587Y-99689522D01*
X134539522Y-99344587D01*
X134726200Y-98893906D01*
X134726200Y-98406094D01*
X134539522Y-97955413D01*
X134284109Y-97700000D01*
X134758389Y-97700000D01*
X134758389Y-99600000D01*
X134779825Y-99707768D01*
X134840871Y-99799129D01*
X134932232Y-99860175D01*
X135040000Y-99881611D01*
X137040000Y-99881611D01*
X137147768Y-99860175D01*
X137239129Y-99799129D01*
X137300175Y-99707768D01*
X137321611Y-99600000D01*
X137321611Y-98984950D01*
X140691900Y-98984950D01*
X140691900Y-99366972D01*
X140726703Y-99450992D01*
X140791009Y-99515298D01*
X140875029Y-99550100D01*
X141022100Y-99550100D01*
X141079250Y-99492950D01*
X141079250Y-98927800D01*
X141396750Y-98927800D01*
X141396750Y-99492950D01*
X141453900Y-99550100D01*
X141600971Y-99550100D01*
X141684991Y-99515298D01*
X141749297Y-99450992D01*
X141784100Y-99366972D01*
X141784100Y-98984950D01*
X141726950Y-98927800D01*
X141396750Y-98927800D01*
X141079250Y-98927800D01*
X140749050Y-98927800D01*
X140691900Y-98984950D01*
X137321611Y-98984950D01*
X137321611Y-98133028D01*
X140691900Y-98133028D01*
X140691900Y-98515050D01*
X140749050Y-98572200D01*
X141079250Y-98572200D01*
X141079250Y-98007050D01*
X141396750Y-98007050D01*
X141396750Y-98572200D01*
X141726950Y-98572200D01*
X141784100Y-98515050D01*
X141784100Y-98133028D01*
X141749297Y-98049008D01*
X141684991Y-97984702D01*
X141600971Y-97949900D01*
X141453900Y-97949900D01*
X141396750Y-98007050D01*
X141079250Y-98007050D01*
X141022100Y-97949900D01*
X140875029Y-97949900D01*
X140791009Y-97984702D01*
X140726703Y-98049008D01*
X140691900Y-98133028D01*
X137321611Y-98133028D01*
X137321611Y-97700000D01*
X137300175Y-97592232D01*
X137239129Y-97500871D01*
X137147768Y-97439825D01*
X137040000Y-97418389D01*
X135040000Y-97418389D01*
X134932232Y-97439825D01*
X134840871Y-97500871D01*
X134779825Y-97592232D01*
X134758389Y-97700000D01*
X134284109Y-97700000D01*
X134194587Y-97610478D01*
X133743906Y-97423800D01*
X133256094Y-97423800D01*
X132805413Y-97610478D01*
X132460478Y-97955413D01*
X132273800Y-98406094D01*
X129753600Y-98406094D01*
X129753600Y-95143600D01*
X148923800Y-95143600D01*
X148923800Y-112037700D01*
G04 #@! TO.N,GNDGRID*
G36*
X167246401Y-114856400D02*
X165122334Y-114856400D01*
X165122334Y-113436336D01*
X154477667Y-113436336D01*
X154477667Y-114856400D01*
X152076200Y-114856400D01*
X152076200Y-112811935D01*
X153259512Y-112811935D01*
X153347374Y-112926659D01*
X153705852Y-113015528D01*
X154071050Y-112960449D01*
X154152626Y-112926659D01*
X154240488Y-112811935D01*
X153750000Y-112321447D01*
X153259512Y-112811935D01*
X152076200Y-112811935D01*
X152076200Y-112025852D01*
X152804472Y-112025852D01*
X152859551Y-112391050D01*
X152893341Y-112472626D01*
X153008065Y-112560488D01*
X153498553Y-112070000D01*
X154001447Y-112070000D01*
X154491935Y-112560488D01*
X154606659Y-112472626D01*
X154695528Y-112114148D01*
X154640449Y-111748950D01*
X154606659Y-111667374D01*
X154491935Y-111579512D01*
X154001447Y-112070000D01*
X153498553Y-112070000D01*
X153008065Y-111579512D01*
X152893341Y-111667374D01*
X152804472Y-112025852D01*
X152076200Y-112025852D01*
X152076200Y-111328065D01*
X153259512Y-111328065D01*
X153750000Y-111818553D01*
X154240488Y-111328065D01*
X154152626Y-111213341D01*
X153794148Y-111124472D01*
X153428950Y-111179551D01*
X153347374Y-111213341D01*
X153259512Y-111328065D01*
X152076200Y-111328065D01*
X152076200Y-108615868D01*
X152774030Y-108615868D01*
X152774030Y-109004132D01*
X152922613Y-109362842D01*
X153197158Y-109637387D01*
X153555868Y-109785970D01*
X153944132Y-109785970D01*
X154302842Y-109637387D01*
X154577387Y-109362842D01*
X154607808Y-109289400D01*
X158471427Y-109289400D01*
X159567626Y-110385600D01*
X159594372Y-110425628D01*
X159752947Y-110531585D01*
X159892783Y-110559400D01*
X159892786Y-110559400D01*
X159939999Y-110568791D01*
X159987212Y-110559400D01*
X160918389Y-110559400D01*
X160918389Y-111350000D01*
X160939825Y-111457768D01*
X161000871Y-111549129D01*
X161092232Y-111610175D01*
X161200000Y-111631611D01*
X163740000Y-111631611D01*
X163847768Y-111610175D01*
X163939129Y-111549129D01*
X164000175Y-111457768D01*
X164021611Y-111350000D01*
X164021611Y-108810000D01*
X164000175Y-108702232D01*
X163939129Y-108610871D01*
X163847768Y-108549825D01*
X163740000Y-108528389D01*
X161200000Y-108528389D01*
X161092232Y-108549825D01*
X161000871Y-108610871D01*
X160939825Y-108702232D01*
X160918389Y-108810000D01*
X160918389Y-109600600D01*
X160138574Y-109600600D01*
X159042376Y-108504403D01*
X159015628Y-108464372D01*
X158857053Y-108358415D01*
X158717217Y-108330600D01*
X158717213Y-108330600D01*
X158670000Y-108321209D01*
X158622787Y-108330600D01*
X154607808Y-108330600D01*
X154577387Y-108257158D01*
X154302842Y-107982613D01*
X153944132Y-107834030D01*
X153555868Y-107834030D01*
X153197158Y-107982613D01*
X152922613Y-108257158D01*
X152774030Y-108615868D01*
X152076200Y-108615868D01*
X152076200Y-104508000D01*
X152519889Y-104508000D01*
X152519889Y-105397000D01*
X152541325Y-105504768D01*
X152602371Y-105596129D01*
X152693732Y-105657175D01*
X152801500Y-105678611D01*
X154198500Y-105678611D01*
X154306268Y-105657175D01*
X154397629Y-105596129D01*
X154458675Y-105504768D01*
X154473169Y-105431900D01*
X159513486Y-105431900D01*
X159542947Y-105451585D01*
X159682783Y-105479400D01*
X159682786Y-105479400D01*
X159729999Y-105488791D01*
X159777212Y-105479400D01*
X160994979Y-105479400D01*
X161159195Y-105875852D01*
X161594148Y-106310805D01*
X162162442Y-106546200D01*
X162777558Y-106546200D01*
X163345852Y-106310805D01*
X163780805Y-105875852D01*
X164016200Y-105307558D01*
X164016200Y-104692442D01*
X163780805Y-104124148D01*
X163345852Y-103689195D01*
X162777558Y-103453800D01*
X162162442Y-103453800D01*
X161594148Y-103689195D01*
X161159195Y-104124148D01*
X160994979Y-104520600D01*
X159899014Y-104520600D01*
X159869553Y-104500915D01*
X159729717Y-104473100D01*
X159729713Y-104473100D01*
X159682500Y-104463709D01*
X159635287Y-104473100D01*
X154473169Y-104473100D01*
X154458675Y-104400232D01*
X154397629Y-104308871D01*
X154306268Y-104247825D01*
X154198500Y-104226389D01*
X152801500Y-104226389D01*
X152693732Y-104247825D01*
X152602371Y-104308871D01*
X152541325Y-104400232D01*
X152519889Y-104508000D01*
X152076200Y-104508000D01*
X152076200Y-102603000D01*
X152519889Y-102603000D01*
X152519889Y-103492000D01*
X152541325Y-103599768D01*
X152602371Y-103691129D01*
X152693732Y-103752175D01*
X152801500Y-103773611D01*
X154198500Y-103773611D01*
X154306268Y-103752175D01*
X154397629Y-103691129D01*
X154458675Y-103599768D01*
X154480111Y-103492000D01*
X154480111Y-102603000D01*
X154458675Y-102495232D01*
X154397629Y-102403871D01*
X154306268Y-102342825D01*
X154198500Y-102321389D01*
X153979400Y-102321389D01*
X153979400Y-102301611D01*
X154150000Y-102301611D01*
X154257768Y-102280175D01*
X154349129Y-102219129D01*
X154410175Y-102127768D01*
X154431611Y-102020000D01*
X154431611Y-101078116D01*
X161563331Y-101078116D01*
X161721833Y-101252256D01*
X162288617Y-101437155D01*
X162883013Y-101391081D01*
X163218167Y-101252256D01*
X163376669Y-101078116D01*
X162470000Y-100171447D01*
X161563331Y-101078116D01*
X154431611Y-101078116D01*
X154431611Y-100520000D01*
X154410175Y-100412232D01*
X154349129Y-100320871D01*
X154257768Y-100259825D01*
X154150000Y-100238389D01*
X152850000Y-100238389D01*
X152742232Y-100259825D01*
X152650871Y-100320871D01*
X152589825Y-100412232D01*
X152568389Y-100520000D01*
X152568389Y-102020000D01*
X152589825Y-102127768D01*
X152650871Y-102219129D01*
X152742232Y-102280175D01*
X152850000Y-102301611D01*
X153020600Y-102301611D01*
X153020600Y-102321389D01*
X152801500Y-102321389D01*
X152693732Y-102342825D01*
X152602371Y-102403871D01*
X152541325Y-102495232D01*
X152519889Y-102603000D01*
X152076200Y-102603000D01*
X152076200Y-99738617D01*
X160952845Y-99738617D01*
X160998919Y-100333013D01*
X161137744Y-100668167D01*
X161311884Y-100826669D01*
X162218553Y-99920000D01*
X162721447Y-99920000D01*
X163628116Y-100826669D01*
X163802256Y-100668167D01*
X163987155Y-100101383D01*
X163941081Y-99506987D01*
X163802256Y-99171833D01*
X163628116Y-99013331D01*
X162721447Y-99920000D01*
X162218553Y-99920000D01*
X161311884Y-99013331D01*
X161137744Y-99171833D01*
X160952845Y-99738617D01*
X152076200Y-99738617D01*
X152076200Y-98964950D01*
X152621400Y-98964950D01*
X152621400Y-99525471D01*
X152656202Y-99609491D01*
X152720508Y-99673797D01*
X152804528Y-99708600D01*
X153265050Y-99708600D01*
X153322200Y-99651450D01*
X153322200Y-98907800D01*
X153677800Y-98907800D01*
X153677800Y-99651450D01*
X153734950Y-99708600D01*
X154195472Y-99708600D01*
X154279492Y-99673797D01*
X154343798Y-99609491D01*
X154378600Y-99525471D01*
X154378600Y-98964950D01*
X154321450Y-98907800D01*
X153677800Y-98907800D01*
X153322200Y-98907800D01*
X152678550Y-98907800D01*
X152621400Y-98964950D01*
X152076200Y-98964950D01*
X152076200Y-98761884D01*
X161563331Y-98761884D01*
X162470000Y-99668553D01*
X163376669Y-98761884D01*
X163218167Y-98587744D01*
X162651383Y-98402845D01*
X162056987Y-98448919D01*
X161721833Y-98587744D01*
X161563331Y-98761884D01*
X152076200Y-98761884D01*
X152076200Y-97934529D01*
X152621400Y-97934529D01*
X152621400Y-98495050D01*
X152678550Y-98552200D01*
X153322200Y-98552200D01*
X153322200Y-97808550D01*
X153677800Y-97808550D01*
X153677800Y-98552200D01*
X154321450Y-98552200D01*
X154378600Y-98495050D01*
X154378600Y-97934529D01*
X154343798Y-97850509D01*
X154279492Y-97786203D01*
X154195472Y-97751400D01*
X153734950Y-97751400D01*
X153677800Y-97808550D01*
X153322200Y-97808550D01*
X153265050Y-97751400D01*
X152804528Y-97751400D01*
X152720508Y-97786203D01*
X152656202Y-97850509D01*
X152621400Y-97934529D01*
X152076200Y-97934529D01*
X152076200Y-95143600D01*
X167246400Y-95143600D01*
X167246401Y-114856400D01*
X167246401Y-114856400D01*
G37*
X167246401Y-114856400D02*
X165122334Y-114856400D01*
X165122334Y-113436336D01*
X154477667Y-113436336D01*
X154477667Y-114856400D01*
X152076200Y-114856400D01*
X152076200Y-112811935D01*
X153259512Y-112811935D01*
X153347374Y-112926659D01*
X153705852Y-113015528D01*
X154071050Y-112960449D01*
X154152626Y-112926659D01*
X154240488Y-112811935D01*
X153750000Y-112321447D01*
X153259512Y-112811935D01*
X152076200Y-112811935D01*
X152076200Y-112025852D01*
X152804472Y-112025852D01*
X152859551Y-112391050D01*
X152893341Y-112472626D01*
X153008065Y-112560488D01*
X153498553Y-112070000D01*
X154001447Y-112070000D01*
X154491935Y-112560488D01*
X154606659Y-112472626D01*
X154695528Y-112114148D01*
X154640449Y-111748950D01*
X154606659Y-111667374D01*
X154491935Y-111579512D01*
X154001447Y-112070000D01*
X153498553Y-112070000D01*
X153008065Y-111579512D01*
X152893341Y-111667374D01*
X152804472Y-112025852D01*
X152076200Y-112025852D01*
X152076200Y-111328065D01*
X153259512Y-111328065D01*
X153750000Y-111818553D01*
X154240488Y-111328065D01*
X154152626Y-111213341D01*
X153794148Y-111124472D01*
X153428950Y-111179551D01*
X153347374Y-111213341D01*
X153259512Y-111328065D01*
X152076200Y-111328065D01*
X152076200Y-108615868D01*
X152774030Y-108615868D01*
X152774030Y-109004132D01*
X152922613Y-109362842D01*
X153197158Y-109637387D01*
X153555868Y-109785970D01*
X153944132Y-109785970D01*
X154302842Y-109637387D01*
X154577387Y-109362842D01*
X154607808Y-109289400D01*
X158471427Y-109289400D01*
X159567626Y-110385600D01*
X159594372Y-110425628D01*
X159752947Y-110531585D01*
X159892783Y-110559400D01*
X159892786Y-110559400D01*
X159939999Y-110568791D01*
X159987212Y-110559400D01*
X160918389Y-110559400D01*
X160918389Y-111350000D01*
X160939825Y-111457768D01*
X161000871Y-111549129D01*
X161092232Y-111610175D01*
X161200000Y-111631611D01*
X163740000Y-111631611D01*
X163847768Y-111610175D01*
X163939129Y-111549129D01*
X164000175Y-111457768D01*
X164021611Y-111350000D01*
X164021611Y-108810000D01*
X164000175Y-108702232D01*
X163939129Y-108610871D01*
X163847768Y-108549825D01*
X163740000Y-108528389D01*
X161200000Y-108528389D01*
X161092232Y-108549825D01*
X161000871Y-108610871D01*
X160939825Y-108702232D01*
X160918389Y-108810000D01*
X160918389Y-109600600D01*
X160138574Y-109600600D01*
X159042376Y-108504403D01*
X159015628Y-108464372D01*
X158857053Y-108358415D01*
X158717217Y-108330600D01*
X158717213Y-108330600D01*
X158670000Y-108321209D01*
X158622787Y-108330600D01*
X154607808Y-108330600D01*
X154577387Y-108257158D01*
X154302842Y-107982613D01*
X153944132Y-107834030D01*
X153555868Y-107834030D01*
X153197158Y-107982613D01*
X152922613Y-108257158D01*
X152774030Y-108615868D01*
X152076200Y-108615868D01*
X152076200Y-104508000D01*
X152519889Y-104508000D01*
X152519889Y-105397000D01*
X152541325Y-105504768D01*
X152602371Y-105596129D01*
X152693732Y-105657175D01*
X152801500Y-105678611D01*
X154198500Y-105678611D01*
X154306268Y-105657175D01*
X154397629Y-105596129D01*
X154458675Y-105504768D01*
X154473169Y-105431900D01*
X159513486Y-105431900D01*
X159542947Y-105451585D01*
X159682783Y-105479400D01*
X159682786Y-105479400D01*
X159729999Y-105488791D01*
X159777212Y-105479400D01*
X160994979Y-105479400D01*
X161159195Y-105875852D01*
X161594148Y-106310805D01*
X162162442Y-106546200D01*
X162777558Y-106546200D01*
X163345852Y-106310805D01*
X163780805Y-105875852D01*
X164016200Y-105307558D01*
X164016200Y-104692442D01*
X163780805Y-104124148D01*
X163345852Y-103689195D01*
X162777558Y-103453800D01*
X162162442Y-103453800D01*
X161594148Y-103689195D01*
X161159195Y-104124148D01*
X160994979Y-104520600D01*
X159899014Y-104520600D01*
X159869553Y-104500915D01*
X159729717Y-104473100D01*
X159729713Y-104473100D01*
X159682500Y-104463709D01*
X159635287Y-104473100D01*
X154473169Y-104473100D01*
X154458675Y-104400232D01*
X154397629Y-104308871D01*
X154306268Y-104247825D01*
X154198500Y-104226389D01*
X152801500Y-104226389D01*
X152693732Y-104247825D01*
X152602371Y-104308871D01*
X152541325Y-104400232D01*
X152519889Y-104508000D01*
X152076200Y-104508000D01*
X152076200Y-102603000D01*
X152519889Y-102603000D01*
X152519889Y-103492000D01*
X152541325Y-103599768D01*
X152602371Y-103691129D01*
X152693732Y-103752175D01*
X152801500Y-103773611D01*
X154198500Y-103773611D01*
X154306268Y-103752175D01*
X154397629Y-103691129D01*
X154458675Y-103599768D01*
X154480111Y-103492000D01*
X154480111Y-102603000D01*
X154458675Y-102495232D01*
X154397629Y-102403871D01*
X154306268Y-102342825D01*
X154198500Y-102321389D01*
X153979400Y-102321389D01*
X153979400Y-102301611D01*
X154150000Y-102301611D01*
X154257768Y-102280175D01*
X154349129Y-102219129D01*
X154410175Y-102127768D01*
X154431611Y-102020000D01*
X154431611Y-101078116D01*
X161563331Y-101078116D01*
X161721833Y-101252256D01*
X162288617Y-101437155D01*
X162883013Y-101391081D01*
X163218167Y-101252256D01*
X163376669Y-101078116D01*
X162470000Y-100171447D01*
X161563331Y-101078116D01*
X154431611Y-101078116D01*
X154431611Y-100520000D01*
X154410175Y-100412232D01*
X154349129Y-100320871D01*
X154257768Y-100259825D01*
X154150000Y-100238389D01*
X152850000Y-100238389D01*
X152742232Y-100259825D01*
X152650871Y-100320871D01*
X152589825Y-100412232D01*
X152568389Y-100520000D01*
X152568389Y-102020000D01*
X152589825Y-102127768D01*
X152650871Y-102219129D01*
X152742232Y-102280175D01*
X152850000Y-102301611D01*
X153020600Y-102301611D01*
X153020600Y-102321389D01*
X152801500Y-102321389D01*
X152693732Y-102342825D01*
X152602371Y-102403871D01*
X152541325Y-102495232D01*
X152519889Y-102603000D01*
X152076200Y-102603000D01*
X152076200Y-99738617D01*
X160952845Y-99738617D01*
X160998919Y-100333013D01*
X161137744Y-100668167D01*
X161311884Y-100826669D01*
X162218553Y-99920000D01*
X162721447Y-99920000D01*
X163628116Y-100826669D01*
X163802256Y-100668167D01*
X163987155Y-100101383D01*
X163941081Y-99506987D01*
X163802256Y-99171833D01*
X163628116Y-99013331D01*
X162721447Y-99920000D01*
X162218553Y-99920000D01*
X161311884Y-99013331D01*
X161137744Y-99171833D01*
X160952845Y-99738617D01*
X152076200Y-99738617D01*
X152076200Y-98964950D01*
X152621400Y-98964950D01*
X152621400Y-99525471D01*
X152656202Y-99609491D01*
X152720508Y-99673797D01*
X152804528Y-99708600D01*
X153265050Y-99708600D01*
X153322200Y-99651450D01*
X153322200Y-98907800D01*
X153677800Y-98907800D01*
X153677800Y-99651450D01*
X153734950Y-99708600D01*
X154195472Y-99708600D01*
X154279492Y-99673797D01*
X154343798Y-99609491D01*
X154378600Y-99525471D01*
X154378600Y-98964950D01*
X154321450Y-98907800D01*
X153677800Y-98907800D01*
X153322200Y-98907800D01*
X152678550Y-98907800D01*
X152621400Y-98964950D01*
X152076200Y-98964950D01*
X152076200Y-98761884D01*
X161563331Y-98761884D01*
X162470000Y-99668553D01*
X163376669Y-98761884D01*
X163218167Y-98587744D01*
X162651383Y-98402845D01*
X162056987Y-98448919D01*
X161721833Y-98587744D01*
X161563331Y-98761884D01*
X152076200Y-98761884D01*
X152076200Y-97934529D01*
X152621400Y-97934529D01*
X152621400Y-98495050D01*
X152678550Y-98552200D01*
X153322200Y-98552200D01*
X153322200Y-97808550D01*
X153677800Y-97808550D01*
X153677800Y-98552200D01*
X154321450Y-98552200D01*
X154378600Y-98495050D01*
X154378600Y-97934529D01*
X154343798Y-97850509D01*
X154279492Y-97786203D01*
X154195472Y-97751400D01*
X153734950Y-97751400D01*
X153677800Y-97808550D01*
X153322200Y-97808550D01*
X153265050Y-97751400D01*
X152804528Y-97751400D01*
X152720508Y-97786203D01*
X152656202Y-97850509D01*
X152621400Y-97934529D01*
X152076200Y-97934529D01*
X152076200Y-95143600D01*
X167246400Y-95143600D01*
X167246401Y-114856400D01*
G04 #@! TD*
M02*
