M48
;DRILL file {KiCad 5.0.2} date mar. 01 sept. 2020 14:55:31 CEST
;FORMAT={-:-/ absolute / inch / decimal}
FMAT,2
INCH,TZ
T1C0.0120
T2C0.0354
T3C0.0433
T4C0.0469
T5C0.0600
%
G90
G05
T1
X5.128Y-3.937
X5.128Y-4.1339
X5.128Y-4.3504
X5.2165Y-3.7598
X5.2165Y-4.5079
X5.374Y-3.7598
X5.374Y-4.5079
X5.4429Y-4.252
X5.5217Y-3.8878
X5.5217Y-3.9862
X5.5315Y-3.7598
X5.5315Y-4.3898
X5.5315Y-4.5079
X5.5787Y-4.2323
X5.6063Y-4.0965
X5.689Y-3.7598
X5.689Y-4.5079
X5.8228Y-4.0988
X5.8465Y-3.7598
X5.8465Y-4.3898
X5.8465Y-4.5079
X6.0138Y-3.7598
X6.0138Y-4.5079
X6.2965Y-4.0339
X6.2965Y-4.2339
X6.5701Y-3.7598
X6.5701Y-4.1339
X6.5701Y-4.5079
T2
X6.0531Y-4.2839
X6.0531Y-4.4122
T3
X5.3559Y-3.8839
T4
X5.2559Y-3.8839
X5.2559Y-3.9839
X5.2559Y-4.0839
X5.2559Y-4.1839
X5.2559Y-4.2839
X5.2559Y-4.3839
X5.3559Y-3.9839
X5.3559Y-4.0839
X5.3559Y-4.1839
X5.3559Y-4.2839
X5.3559Y-4.3839
T5
X6.3965Y-3.9339
X6.3965Y-4.1339
X6.3965Y-4.3339
T0
M30
