G04 #@! TF.GenerationSoftware,KiCad,Pcbnew,5.0.2*
G04 #@! TF.CreationDate,2020-09-01T14:55:28+02:00*
G04 #@! TF.ProjectId,pmod-linky_tic,706d6f64-2d6c-4696-9e6b-795f7469632e,1*
G04 #@! TF.SameCoordinates,Original*
G04 #@! TF.FileFunction,Soldermask,Top*
G04 #@! TF.FilePolarity,Negative*
%FSLAX46Y46*%
G04 Gerber Fmt 4.6, Leading zero omitted, Abs format (unit mm)*
G04 Created by KiCad (PCBNEW 5.0.2) date mar. 01 sept. 2020 14:55:28 CEST*
%MOMM*%
%LPD*%
G01*
G04 APERTURE LIST*
%ADD10C,0.100000*%
G04 APERTURE END LIST*
D10*
G36*
X153968992Y-111348081D02*
X154105623Y-111404676D01*
X154227760Y-111486286D01*
X154228591Y-111486841D01*
X154333159Y-111591409D01*
X154333161Y-111591412D01*
X154415324Y-111714377D01*
X154471919Y-111851008D01*
X154500770Y-111996056D01*
X154500770Y-112143944D01*
X154471919Y-112288992D01*
X154415324Y-112425623D01*
X154333714Y-112547760D01*
X154333159Y-112548591D01*
X154228591Y-112653159D01*
X154228588Y-112653161D01*
X154105623Y-112735324D01*
X153968992Y-112791919D01*
X153823944Y-112820770D01*
X153676056Y-112820770D01*
X153531008Y-112791919D01*
X153394377Y-112735324D01*
X153271412Y-112653161D01*
X153271409Y-112653159D01*
X153166841Y-112548591D01*
X153166286Y-112547760D01*
X153084676Y-112425623D01*
X153028081Y-112288992D01*
X152999230Y-112143944D01*
X152999230Y-111996056D01*
X153028081Y-111851008D01*
X153084676Y-111714377D01*
X153166839Y-111591412D01*
X153166841Y-111591409D01*
X153271409Y-111486841D01*
X153272240Y-111486286D01*
X153394377Y-111404676D01*
X153531008Y-111348081D01*
X153676056Y-111319230D01*
X153823944Y-111319230D01*
X153968992Y-111348081D01*
X153968992Y-111348081D01*
G37*
G36*
X136331981Y-110387468D02*
X136514150Y-110462925D01*
X136678103Y-110572475D01*
X136817525Y-110711897D01*
X136927075Y-110875850D01*
X137002532Y-111058019D01*
X137041000Y-111251410D01*
X137041000Y-111448590D01*
X137002532Y-111641981D01*
X136927075Y-111824150D01*
X136817525Y-111988103D01*
X136678103Y-112127525D01*
X136514150Y-112237075D01*
X136331981Y-112312532D01*
X136138590Y-112351000D01*
X135941410Y-112351000D01*
X135748019Y-112312532D01*
X135565850Y-112237075D01*
X135401897Y-112127525D01*
X135262475Y-111988103D01*
X135152925Y-111824150D01*
X135077468Y-111641981D01*
X135039000Y-111448590D01*
X135039000Y-111251410D01*
X135077468Y-111058019D01*
X135152925Y-110875850D01*
X135262475Y-110711897D01*
X135401897Y-110572475D01*
X135565850Y-110462925D01*
X135748019Y-110387468D01*
X135941410Y-110349000D01*
X136138590Y-110349000D01*
X136331981Y-110387468D01*
X136331981Y-110387468D01*
G37*
G36*
X133791981Y-110387468D02*
X133974150Y-110462925D01*
X134138103Y-110572475D01*
X134277525Y-110711897D01*
X134387075Y-110875850D01*
X134462532Y-111058019D01*
X134501000Y-111251410D01*
X134501000Y-111448590D01*
X134462532Y-111641981D01*
X134387075Y-111824150D01*
X134277525Y-111988103D01*
X134138103Y-112127525D01*
X133974150Y-112237075D01*
X133848811Y-112288992D01*
X133791981Y-112312532D01*
X133598590Y-112351000D01*
X133401410Y-112351000D01*
X133208019Y-112312532D01*
X133151189Y-112288992D01*
X133025850Y-112237075D01*
X132861897Y-112127525D01*
X132722475Y-111988103D01*
X132612925Y-111824150D01*
X132537468Y-111641981D01*
X132499000Y-111448590D01*
X132499000Y-111251410D01*
X132537468Y-111058019D01*
X132612925Y-110875850D01*
X132722475Y-110711897D01*
X132861897Y-110572475D01*
X133025850Y-110462925D01*
X133208019Y-110387468D01*
X133401410Y-110349000D01*
X133598590Y-110349000D01*
X133791981Y-110387468D01*
X133791981Y-110387468D01*
G37*
G36*
X138999500Y-111528000D02*
X137500500Y-111528000D01*
X137500500Y-110537000D01*
X138999500Y-110537000D01*
X138999500Y-111528000D01*
X138999500Y-111528000D01*
G37*
G36*
X163791000Y-111401000D02*
X161149000Y-111401000D01*
X161149000Y-108759000D01*
X163791000Y-108759000D01*
X163791000Y-111401000D01*
X163791000Y-111401000D01*
G37*
G36*
X133791981Y-107847468D02*
X133974150Y-107922925D01*
X134138103Y-108032475D01*
X134277525Y-108171897D01*
X134387075Y-108335850D01*
X134462532Y-108518019D01*
X134501000Y-108711410D01*
X134501000Y-108908590D01*
X134462532Y-109101981D01*
X134387075Y-109284150D01*
X134277525Y-109448103D01*
X134138103Y-109587525D01*
X133974150Y-109697075D01*
X133791981Y-109772532D01*
X133598590Y-109811000D01*
X133401410Y-109811000D01*
X133208019Y-109772532D01*
X133025850Y-109697075D01*
X132861897Y-109587525D01*
X132722475Y-109448103D01*
X132612925Y-109284150D01*
X132537468Y-109101981D01*
X132499000Y-108908590D01*
X132499000Y-108711410D01*
X132537468Y-108518019D01*
X132612925Y-108335850D01*
X132722475Y-108171897D01*
X132861897Y-108032475D01*
X133025850Y-107922925D01*
X133208019Y-107847468D01*
X133401410Y-107809000D01*
X133598590Y-107809000D01*
X133791981Y-107847468D01*
X133791981Y-107847468D01*
G37*
G36*
X136331981Y-107847468D02*
X136514150Y-107922925D01*
X136678103Y-108032475D01*
X136817525Y-108171897D01*
X136927075Y-108335850D01*
X137002532Y-108518019D01*
X137041000Y-108711410D01*
X137041000Y-108908590D01*
X137002532Y-109101981D01*
X136927075Y-109284150D01*
X136817525Y-109448103D01*
X136678103Y-109587525D01*
X136514150Y-109697075D01*
X136331981Y-109772532D01*
X136138590Y-109811000D01*
X135941410Y-109811000D01*
X135748019Y-109772532D01*
X135565850Y-109697075D01*
X135401897Y-109587525D01*
X135262475Y-109448103D01*
X135152925Y-109284150D01*
X135077468Y-109101981D01*
X135039000Y-108908590D01*
X135039000Y-108711410D01*
X135077468Y-108518019D01*
X135152925Y-108335850D01*
X135262475Y-108171897D01*
X135401897Y-108032475D01*
X135565850Y-107922925D01*
X135748019Y-107847468D01*
X135941410Y-107809000D01*
X136138590Y-107809000D01*
X136331981Y-107847468D01*
X136331981Y-107847468D01*
G37*
G36*
X138999500Y-109623000D02*
X137500500Y-109623000D01*
X137500500Y-108632000D01*
X138999500Y-108632000D01*
X138999500Y-109623000D01*
X138999500Y-109623000D01*
G37*
G36*
X153968992Y-108088081D02*
X154105623Y-108144676D01*
X154146366Y-108171900D01*
X154228591Y-108226841D01*
X154333159Y-108331409D01*
X154333161Y-108331412D01*
X154415324Y-108454377D01*
X154471919Y-108591008D01*
X154500770Y-108736056D01*
X154500770Y-108883944D01*
X154471919Y-109028992D01*
X154415324Y-109165623D01*
X154336126Y-109284150D01*
X154333159Y-109288591D01*
X154228591Y-109393159D01*
X154228588Y-109393161D01*
X154105623Y-109475324D01*
X153968992Y-109531919D01*
X153823944Y-109560770D01*
X153676056Y-109560770D01*
X153531008Y-109531919D01*
X153394377Y-109475324D01*
X153271412Y-109393161D01*
X153271409Y-109393159D01*
X153166841Y-109288591D01*
X153163874Y-109284150D01*
X153084676Y-109165623D01*
X153028081Y-109028992D01*
X152999230Y-108883944D01*
X152999230Y-108736056D01*
X153028081Y-108591008D01*
X153084676Y-108454377D01*
X153166839Y-108331412D01*
X153166841Y-108331409D01*
X153271409Y-108226841D01*
X153353634Y-108171900D01*
X153394377Y-108144676D01*
X153531008Y-108088081D01*
X153676056Y-108059230D01*
X153823944Y-108059230D01*
X153968992Y-108088081D01*
X153968992Y-108088081D01*
G37*
G36*
X141130500Y-108122500D02*
X140393500Y-108122500D01*
X140393500Y-106877500D01*
X141130500Y-106877500D01*
X141130500Y-108122500D01*
X141130500Y-108122500D01*
G37*
G36*
X139606500Y-108122500D02*
X138869500Y-108122500D01*
X138869500Y-106877500D01*
X139606500Y-106877500D01*
X139606500Y-108122500D01*
X139606500Y-108122500D01*
G37*
G36*
X136331981Y-105307468D02*
X136514150Y-105382925D01*
X136678103Y-105492475D01*
X136817525Y-105631897D01*
X136927075Y-105795850D01*
X137002532Y-105978019D01*
X137041000Y-106171410D01*
X137041000Y-106368590D01*
X137002532Y-106561981D01*
X136927075Y-106744150D01*
X136817525Y-106908103D01*
X136678103Y-107047525D01*
X136514150Y-107157075D01*
X136331981Y-107232532D01*
X136138590Y-107271000D01*
X135941410Y-107271000D01*
X135748019Y-107232532D01*
X135565850Y-107157075D01*
X135401897Y-107047525D01*
X135262475Y-106908103D01*
X135152925Y-106744150D01*
X135077468Y-106561981D01*
X135039000Y-106368590D01*
X135039000Y-106171410D01*
X135077468Y-105978019D01*
X135152925Y-105795850D01*
X135262475Y-105631897D01*
X135401897Y-105492475D01*
X135565850Y-105382925D01*
X135748019Y-105307468D01*
X135941410Y-105269000D01*
X136138590Y-105269000D01*
X136331981Y-105307468D01*
X136331981Y-105307468D01*
G37*
G36*
X133791981Y-105307468D02*
X133974150Y-105382925D01*
X134138103Y-105492475D01*
X134277525Y-105631897D01*
X134387075Y-105795850D01*
X134462532Y-105978019D01*
X134501000Y-106171410D01*
X134501000Y-106368590D01*
X134462532Y-106561981D01*
X134387075Y-106744150D01*
X134277525Y-106908103D01*
X134138103Y-107047525D01*
X133974150Y-107157075D01*
X133791981Y-107232532D01*
X133598590Y-107271000D01*
X133401410Y-107271000D01*
X133208019Y-107232532D01*
X133025850Y-107157075D01*
X132861897Y-107047525D01*
X132722475Y-106908103D01*
X132612925Y-106744150D01*
X132537468Y-106561981D01*
X132499000Y-106368590D01*
X132499000Y-106171410D01*
X132537468Y-105978019D01*
X132612925Y-105795850D01*
X132722475Y-105631897D01*
X132861897Y-105492475D01*
X133025850Y-105382925D01*
X133208019Y-105307468D01*
X133401410Y-105269000D01*
X133598590Y-105269000D01*
X133791981Y-105307468D01*
X133791981Y-105307468D01*
G37*
G36*
X143622500Y-106880500D02*
X142377500Y-106880500D01*
X142377500Y-106143500D01*
X143622500Y-106143500D01*
X143622500Y-106880500D01*
X143622500Y-106880500D01*
G37*
G36*
X147274200Y-106397200D02*
X146257800Y-106397200D01*
X146257800Y-105380800D01*
X147274200Y-105380800D01*
X147274200Y-106397200D01*
X147274200Y-106397200D01*
G37*
G36*
X141821380Y-106354020D02*
X140718620Y-106354020D01*
X140718620Y-103645980D01*
X141821380Y-103645980D01*
X141821380Y-106354020D01*
X141821380Y-106354020D01*
G37*
G36*
X139281380Y-106354020D02*
X138178620Y-106354020D01*
X138178620Y-105550980D01*
X139281380Y-105550980D01*
X139281380Y-106354020D01*
X139281380Y-106354020D01*
G37*
G36*
X162770250Y-103712843D02*
X162855322Y-103729765D01*
X162925735Y-103758931D01*
X163095728Y-103829344D01*
X163312092Y-103973914D01*
X163496086Y-104157908D01*
X163640656Y-104374272D01*
X163711069Y-104544265D01*
X163740235Y-104614678D01*
X163791000Y-104869893D01*
X163791000Y-105130107D01*
X163740235Y-105385322D01*
X163714273Y-105448000D01*
X163640656Y-105625728D01*
X163496086Y-105842092D01*
X163312092Y-106026086D01*
X163095728Y-106170656D01*
X162925735Y-106241069D01*
X162855322Y-106270235D01*
X162770250Y-106287157D01*
X162600109Y-106321000D01*
X162339891Y-106321000D01*
X162169750Y-106287157D01*
X162084678Y-106270235D01*
X162014265Y-106241069D01*
X161844272Y-106170656D01*
X161627908Y-106026086D01*
X161443914Y-105842092D01*
X161299344Y-105625728D01*
X161225727Y-105448000D01*
X161199765Y-105385322D01*
X161149000Y-105130107D01*
X161149000Y-104869893D01*
X161199765Y-104614678D01*
X161228931Y-104544265D01*
X161299344Y-104374272D01*
X161443914Y-104157908D01*
X161627908Y-103973914D01*
X161844272Y-103829344D01*
X162014265Y-103758931D01*
X162084678Y-103729765D01*
X162169750Y-103712843D01*
X162339891Y-103679000D01*
X162600109Y-103679000D01*
X162770250Y-103712843D01*
X162770250Y-103712843D01*
G37*
G36*
X145242200Y-105508200D02*
X144225800Y-105508200D01*
X144225800Y-104491800D01*
X145242200Y-104491800D01*
X145242200Y-105508200D01*
X145242200Y-105508200D01*
G37*
G36*
X154249500Y-105448000D02*
X152750500Y-105448000D01*
X152750500Y-104457000D01*
X154249500Y-104457000D01*
X154249500Y-105448000D01*
X154249500Y-105448000D01*
G37*
G36*
X143622500Y-105356500D02*
X142377500Y-105356500D01*
X142377500Y-104619500D01*
X143622500Y-104619500D01*
X143622500Y-105356500D01*
X143622500Y-105356500D01*
G37*
G36*
X136331981Y-102767468D02*
X136514150Y-102842925D01*
X136678103Y-102952475D01*
X136817525Y-103091897D01*
X136927075Y-103255850D01*
X137002532Y-103438019D01*
X137041000Y-103631410D01*
X137041000Y-103828590D01*
X137002532Y-104021981D01*
X136927075Y-104204150D01*
X136817525Y-104368103D01*
X136678103Y-104507525D01*
X136514150Y-104617075D01*
X136331981Y-104692532D01*
X136138590Y-104731000D01*
X135941410Y-104731000D01*
X135748019Y-104692532D01*
X135565850Y-104617075D01*
X135401897Y-104507525D01*
X135262475Y-104368103D01*
X135152925Y-104204150D01*
X135077468Y-104021981D01*
X135039000Y-103828590D01*
X135039000Y-103631410D01*
X135077468Y-103438019D01*
X135152925Y-103255850D01*
X135262475Y-103091897D01*
X135401897Y-102952475D01*
X135565850Y-102842925D01*
X135748019Y-102767468D01*
X135941410Y-102729000D01*
X136138590Y-102729000D01*
X136331981Y-102767468D01*
X136331981Y-102767468D01*
G37*
G36*
X133791981Y-102767468D02*
X133974150Y-102842925D01*
X134138103Y-102952475D01*
X134277525Y-103091897D01*
X134387075Y-103255850D01*
X134462532Y-103438019D01*
X134501000Y-103631410D01*
X134501000Y-103828590D01*
X134462532Y-104021981D01*
X134387075Y-104204150D01*
X134277525Y-104368103D01*
X134138103Y-104507525D01*
X133974150Y-104617075D01*
X133791981Y-104692532D01*
X133598590Y-104731000D01*
X133401410Y-104731000D01*
X133208019Y-104692532D01*
X133025850Y-104617075D01*
X132861897Y-104507525D01*
X132722475Y-104368103D01*
X132612925Y-104204150D01*
X132537468Y-104021981D01*
X132499000Y-103828590D01*
X132499000Y-103631410D01*
X132537468Y-103438019D01*
X132612925Y-103255850D01*
X132722475Y-103091897D01*
X132861897Y-102952475D01*
X133025850Y-102842925D01*
X133208019Y-102767468D01*
X133401410Y-102729000D01*
X133598590Y-102729000D01*
X133791981Y-102767468D01*
X133791981Y-102767468D01*
G37*
G36*
X147274200Y-104619200D02*
X146257800Y-104619200D01*
X146257800Y-103602800D01*
X147274200Y-103602800D01*
X147274200Y-104619200D01*
X147274200Y-104619200D01*
G37*
G36*
X139281380Y-104449020D02*
X138178620Y-104449020D01*
X138178620Y-103645980D01*
X139281380Y-103645980D01*
X139281380Y-104449020D01*
X139281380Y-104449020D01*
G37*
G36*
X154249500Y-103543000D02*
X152750500Y-103543000D01*
X152750500Y-102552000D01*
X154249500Y-102552000D01*
X154249500Y-103543000D01*
X154249500Y-103543000D01*
G37*
G36*
X136331981Y-100227468D02*
X136514150Y-100302925D01*
X136678103Y-100412475D01*
X136817525Y-100551897D01*
X136927075Y-100715850D01*
X137002532Y-100898019D01*
X137041000Y-101091410D01*
X137041000Y-101288590D01*
X137002532Y-101481981D01*
X136927075Y-101664150D01*
X136817525Y-101828103D01*
X136678103Y-101967525D01*
X136514150Y-102077075D01*
X136331981Y-102152532D01*
X136138590Y-102191000D01*
X135941410Y-102191000D01*
X135748019Y-102152532D01*
X135565850Y-102077075D01*
X135401897Y-101967525D01*
X135262475Y-101828103D01*
X135152925Y-101664150D01*
X135077468Y-101481981D01*
X135039000Y-101288590D01*
X135039000Y-101091410D01*
X135077468Y-100898019D01*
X135152925Y-100715850D01*
X135262475Y-100551897D01*
X135401897Y-100412475D01*
X135565850Y-100302925D01*
X135748019Y-100227468D01*
X135941410Y-100189000D01*
X136138590Y-100189000D01*
X136331981Y-100227468D01*
X136331981Y-100227468D01*
G37*
G36*
X133791981Y-100227468D02*
X133974150Y-100302925D01*
X134138103Y-100412475D01*
X134277525Y-100551897D01*
X134387075Y-100715850D01*
X134462532Y-100898019D01*
X134501000Y-101091410D01*
X134501000Y-101288590D01*
X134462532Y-101481981D01*
X134387075Y-101664150D01*
X134277525Y-101828103D01*
X134138103Y-101967525D01*
X133974150Y-102077075D01*
X133791981Y-102152532D01*
X133598590Y-102191000D01*
X133401410Y-102191000D01*
X133208019Y-102152532D01*
X133025850Y-102077075D01*
X132861897Y-101967525D01*
X132722475Y-101828103D01*
X132612925Y-101664150D01*
X132537468Y-101481981D01*
X132499000Y-101288590D01*
X132499000Y-101091410D01*
X132537468Y-100898019D01*
X132612925Y-100715850D01*
X132722475Y-100551897D01*
X132861897Y-100412475D01*
X133025850Y-100302925D01*
X133208019Y-100227468D01*
X133401410Y-100189000D01*
X133598590Y-100189000D01*
X133791981Y-100227468D01*
X133791981Y-100227468D01*
G37*
G36*
X145201000Y-102071000D02*
X143799000Y-102071000D01*
X143799000Y-100469000D01*
X145201000Y-100469000D01*
X145201000Y-102071000D01*
X145201000Y-102071000D01*
G37*
G36*
X154201000Y-102071000D02*
X152799000Y-102071000D01*
X152799000Y-100469000D01*
X154201000Y-100469000D01*
X154201000Y-102071000D01*
X154201000Y-102071000D01*
G37*
G36*
X143130500Y-101872500D02*
X142393500Y-101872500D01*
X142393500Y-100627500D01*
X143130500Y-100627500D01*
X143130500Y-101872500D01*
X143130500Y-101872500D01*
G37*
G36*
X141606500Y-101872500D02*
X140869500Y-101872500D01*
X140869500Y-100627500D01*
X141606500Y-100627500D01*
X141606500Y-101872500D01*
X141606500Y-101872500D01*
G37*
G36*
X162770250Y-98632843D02*
X162855322Y-98649765D01*
X162925735Y-98678931D01*
X163095728Y-98749344D01*
X163312092Y-98893914D01*
X163496086Y-99077908D01*
X163640656Y-99294272D01*
X163711069Y-99464265D01*
X163740235Y-99534678D01*
X163791000Y-99789893D01*
X163791000Y-100050107D01*
X163740712Y-100302926D01*
X163740235Y-100305321D01*
X163640656Y-100545728D01*
X163496086Y-100762092D01*
X163312092Y-100946086D01*
X163095728Y-101090656D01*
X162925735Y-101161069D01*
X162855322Y-101190235D01*
X162770250Y-101207157D01*
X162600109Y-101241000D01*
X162339891Y-101241000D01*
X162169750Y-101207157D01*
X162084678Y-101190235D01*
X162014265Y-101161069D01*
X161844272Y-101090656D01*
X161627908Y-100946086D01*
X161443914Y-100762092D01*
X161299344Y-100545728D01*
X161199765Y-100305321D01*
X161199289Y-100302926D01*
X161149000Y-100050107D01*
X161149000Y-99789893D01*
X161199765Y-99534678D01*
X161228931Y-99464265D01*
X161299344Y-99294272D01*
X161443914Y-99077908D01*
X161627908Y-98893914D01*
X161844272Y-98749344D01*
X162014265Y-98678931D01*
X162084678Y-98649765D01*
X162169750Y-98632843D01*
X162339891Y-98599000D01*
X162600109Y-98599000D01*
X162770250Y-98632843D01*
X162770250Y-98632843D01*
G37*
G36*
X133791981Y-97687468D02*
X133974150Y-97762925D01*
X134138103Y-97872475D01*
X134277525Y-98011897D01*
X134387075Y-98175850D01*
X134462532Y-98358019D01*
X134501000Y-98551410D01*
X134501000Y-98748590D01*
X134462532Y-98941981D01*
X134387075Y-99124150D01*
X134277525Y-99288103D01*
X134138103Y-99427525D01*
X133974150Y-99537075D01*
X133791981Y-99612532D01*
X133598590Y-99651000D01*
X133401410Y-99651000D01*
X133208019Y-99612532D01*
X133025850Y-99537075D01*
X132861897Y-99427525D01*
X132722475Y-99288103D01*
X132612925Y-99124150D01*
X132537468Y-98941981D01*
X132499000Y-98748590D01*
X132499000Y-98551410D01*
X132537468Y-98358019D01*
X132612925Y-98175850D01*
X132722475Y-98011897D01*
X132861897Y-97872475D01*
X133025850Y-97762925D01*
X133208019Y-97687468D01*
X133401410Y-97649000D01*
X133598590Y-97649000D01*
X133791981Y-97687468D01*
X133791981Y-97687468D01*
G37*
G36*
X137091000Y-99651000D02*
X134989000Y-99651000D01*
X134989000Y-97649000D01*
X137091000Y-97649000D01*
X137091000Y-99651000D01*
X137091000Y-99651000D01*
G37*
G36*
X154201000Y-99531000D02*
X152799000Y-99531000D01*
X152799000Y-97929000D01*
X154201000Y-97929000D01*
X154201000Y-99531000D01*
X154201000Y-99531000D01*
G37*
G36*
X145201000Y-99531000D02*
X143799000Y-99531000D01*
X143799000Y-97929000D01*
X145201000Y-97929000D01*
X145201000Y-99531000D01*
X145201000Y-99531000D01*
G37*
G36*
X143130500Y-99372500D02*
X142393500Y-99372500D01*
X142393500Y-98127500D01*
X143130500Y-98127500D01*
X143130500Y-99372500D01*
X143130500Y-99372500D01*
G37*
G36*
X141606500Y-99372500D02*
X140869500Y-99372500D01*
X140869500Y-98127500D01*
X141606500Y-98127500D01*
X141606500Y-99372500D01*
X141606500Y-99372500D01*
G37*
M02*
